<svg width="22" height="20" viewBox="0 0 22 20" fill="none" xmlns="http://www.w3.org/2000/svg">
<path d="M13.8069 2.44201H15.3687C15.5551 2.44201 15.7062 2.29095 15.7062 2.10451C15.7062 1.91829 15.5551 1.76724 15.3687 1.76724H13.8069C13.6207 1.76724 13.4696 1.9183 13.4696 2.10451C13.4696 2.29094 13.6207 2.44201 13.8069 2.44201Z" fill="#8C8E98" stroke="#8C8E98" stroke-width="0.05"/>
<path d="M4.12356 2.44201H5.68539C5.87161 2.44201 6.02266 2.29094 6.02266 2.10451C6.02266 1.9183 5.8716 1.76724 5.68539 1.76724H4.12356C3.93735 1.76724 3.78629 1.9183 3.78629 2.10451C3.78629 2.29094 3.93734 2.44201 4.12356 2.44201Z" fill="#8C8E98" stroke="#8C8E98" stroke-width="0.05"/>
<path d="M17.8425 10.3432C17.8425 10.5294 17.9936 10.6805 18.18 10.6805C18.3662 10.6805 18.5173 10.5294 18.5173 10.3432V2.10451C18.5173 1.9183 18.3662 1.76724 18.18 1.76724H16.6182C16.4318 1.76724 16.2807 1.91829 16.2807 2.10451C16.2807 2.29095 16.4318 2.44201 16.6182 2.44201H17.8425V10.3432Z" fill="#8C8E98" stroke="#8C8E98" stroke-width="0.05"/>
<mask id="mask0_14_823" style="mask-type:luminance" maskUnits="userSpaceOnUse" x="0" y="1" width="12" height="14">
<path d="M1 1.75308H0.975V1.77808V14.7933V14.8183H1H11.632H11.657V14.7933V1.77808V1.75308H11.632H1Z" fill="white" stroke="white" stroke-width="0.05"/>
</mask>
<g mask="url(#mask0_14_823)">
<path d="M1.3125 14.7803H11.308C11.4945 14.7803 11.6453 14.6292 11.6453 14.443C11.6453 14.2566 11.4945 14.1055 11.308 14.1055H1.64978V2.44201H2.87433C3.06055 2.44201 3.2116 2.29094 3.2116 2.10451C3.2116 1.9183 3.06054 1.76724 2.87433 1.76724H1.3125C1.12607 1.76724 0.975 1.91829 0.975 2.10451V14.443C0.975 14.6292 1.12607 14.7803 1.3125 14.7803Z" fill="#8C8E98" stroke="#8C8E98" stroke-width="0.05"/>
</g>
<path d="M6.93498 2.44201H12.5575C12.7437 2.44201 12.8948 2.29094 12.8948 2.10451C12.8948 1.9183 12.7437 1.76724 12.5575 1.76724H6.93498C6.74855 1.76724 6.59747 1.91829 6.59747 2.10451C6.59747 2.29095 6.74854 2.44201 6.93498 2.44201Z" fill="#8C8E98" stroke="#8C8E98" stroke-width="0.05"/>
<mask id="mask1_14_823" style="mask-type:luminance" maskUnits="userSpaceOnUse" x="0" y="4" width="19" height="2">
<path d="M1 4.52957H0.975V4.55457V5.24871V5.27371H1H18.5156H18.5406V5.24871V4.55457V4.52957H18.5156H1Z" fill="white" stroke="white" stroke-width="0.05"/>
</mask>
<g mask="url(#mask1_14_823)">
<path d="M1.3125 5.25317H18.1801C18.3663 5.25317 18.5174 5.10211 18.5174 4.91589C18.5174 4.72947 18.3663 4.57839 18.1801 4.57839H1.3125C1.12606 4.57839 0.975 4.72945 0.975 4.91589C0.975 5.10212 1.12607 5.25317 1.3125 5.25317Z" fill="#8C8E98" stroke="#8C8E98" stroke-width="0.05"/>
</g>
<mask id="mask2_14_823" style="mask-type:luminance" maskUnits="userSpaceOnUse" x="2" y="0" width="3" height="4">
<path d="M2.55021 0.49624H2.52521V0.52124V3.68692V3.71192H2.55021H4.45911H4.48411V3.68692V0.52124V0.49624H4.45911H2.55021Z" fill="white" stroke="white" stroke-width="0.05"/>
</mask>
<g mask="url(#mask2_14_823)">
<path d="M2.53673 2.70992C2.53673 3.24026 2.96843 3.67197 3.49878 3.67197C4.02936 3.67197 4.46083 3.24026 4.46083 2.70992V1.46037C4.46083 0.929791 4.02936 0.498315 3.49878 0.498315C2.96844 0.498315 2.53673 0.929787 2.53673 1.46037V2.70992ZM3.21151 1.46037C3.21151 1.30199 3.34041 1.17309 3.49878 1.17309C3.65739 1.17309 3.78628 1.302 3.78628 1.46037V2.70992C3.78628 2.86828 3.65739 2.99719 3.49878 2.99719C3.34041 2.99719 3.21151 2.86829 3.21151 2.70992V1.46037Z" fill="#8C8E98" stroke="#8C8E98" stroke-width="0.05"/>
</g>
<mask id="mask3_14_823" style="mask-type:luminance" maskUnits="userSpaceOnUse" x="5" y="0" width="3" height="4">
<path d="M5.32684 0.49624H5.30184V0.52124V3.68692V3.71192H5.32684H7.29359H7.31859V3.68692V0.52124V0.49624H7.29359H5.32684Z" fill="white" stroke="white" stroke-width="0.05"/>
</mask>
<g mask="url(#mask3_14_823)">
<path d="M5.34816 2.70992C5.34816 3.24026 5.77963 3.67197 6.31021 3.67197C6.84056 3.67197 7.27226 3.24026 7.27226 2.70992V1.46037C7.27226 0.929787 6.84056 0.498315 6.31021 0.498315C5.77964 0.498315 5.34816 0.929791 5.34816 1.46037V2.70992ZM6.02271 1.46037C6.02271 1.30202 6.15181 1.17309 6.31021 1.17309C6.46858 1.17309 6.59749 1.30199 6.59749 1.46037V2.70992C6.59749 2.86829 6.46858 2.99719 6.31021 2.99719C6.15181 2.99719 6.02271 2.86827 6.02271 2.70992V1.46037Z" fill="#8C8E98" stroke="#8C8E98" stroke-width="0.05"/>
</g>
<mask id="mask4_14_823" style="mask-type:luminance" maskUnits="userSpaceOnUse" x="12" y="0" width="3" height="4">
<path d="M12.2104 0.49624H12.1854V0.52124V3.68692V3.71192H12.2104H14.1193H14.1443V3.68692V0.52124V0.49624H14.1193H12.2104Z" fill="white" stroke="white" stroke-width="0.05"/>
</mask>
<g mask="url(#mask4_14_823)">
<path d="M12.22 2.70992C12.22 3.24026 12.6517 3.67197 13.182 3.67197C13.7126 3.67197 14.1443 3.24027 14.1443 2.70992V1.46037C14.1443 0.929783 13.7126 0.498315 13.182 0.498315C12.6517 0.498315 12.22 0.929787 12.22 1.46037V2.70992ZM12.8947 1.46037C12.8947 1.30199 13.0236 1.17309 13.182 1.17309C13.3406 1.17309 13.4695 1.302 13.4695 1.46037V2.70992C13.4695 2.86828 13.3406 2.99719 13.182 2.99719C13.0236 2.99719 12.8947 2.86829 12.8947 2.70992V1.46037Z" fill="#8C8E98" stroke="#8C8E98" stroke-width="0.05"/>
</g>
<mask id="mask5_14_823" style="mask-type:luminance" maskUnits="userSpaceOnUse" x="14" y="0" width="4" height="4">
<path d="M15.0448 0.49624H15.0198V0.52124V3.68692V3.71192H15.0448H16.9537H16.9787V3.68692V0.52124V0.49624H16.9537H15.0448Z" fill="white" stroke="white" stroke-width="0.05"/>
</mask>
<g mask="url(#mask5_14_823)">
<path d="M15.0313 2.70992C15.0313 3.24026 15.4628 3.67197 15.9934 3.67197C16.524 3.67197 16.9554 3.24026 16.9554 2.70992V1.46037C16.9554 0.929791 16.524 0.498315 15.9934 0.498315C15.4628 0.498315 15.0313 0.929791 15.0313 1.46037V2.70992ZM15.7061 1.46037C15.7061 1.30199 15.835 1.17309 15.9934 1.17309C16.1518 1.17309 16.2807 1.30199 16.2807 1.46037V2.70992C16.2807 2.86829 16.1518 2.99719 15.9934 2.99719C15.835 2.99719 15.7061 2.86829 15.7061 2.70992V1.46037Z" fill="#8C8E98" stroke="#8C8E98" stroke-width="0.05"/>
</g>
<path d="M2.87433 8.04485H4.12365C4.3101 8.04485 4.46093 7.89378 4.46093 7.70758V6.45803C4.46093 6.27182 4.3101 6.12075 4.12365 6.12075H2.87433C2.6879 6.12075 2.53682 6.2718 2.53682 6.45803V7.70758C2.53682 7.8938 2.6879 8.04485 2.87433 8.04485ZM3.78638 6.79553V7.37008H3.2116V6.79553H3.78638Z" fill="#8C8E98" stroke="#8C8E98" stroke-width="0.05"/>
<path d="M5.37315 8.04485H6.62248C6.8089 8.04485 6.95998 7.8938 6.95998 7.70758V6.45803C6.95998 6.2718 6.8089 6.12075 6.62248 6.12075H5.37315C5.18672 6.12075 5.03565 6.2718 5.03565 6.45803V7.70758C5.03565 7.8938 5.18672 8.04485 5.37315 8.04485ZM6.2852 6.79553V7.37008H5.71043V6.79553H6.2852Z" fill="#8C8E98" stroke="#8C8E98" stroke-width="0.05"/>
<path d="M7.87207 8.04485H9.1214C9.30782 8.04485 9.4589 7.8938 9.4589 7.70758V6.45803C9.4589 6.2718 9.30782 6.12075 9.1214 6.12075H7.87207C7.68564 6.12075 7.53457 6.2718 7.53457 6.45803V7.70758C7.53457 7.8938 7.68564 8.04485 7.87207 8.04485ZM8.78412 6.79553V7.37008H8.20935V6.79553H8.78412Z" fill="#8C8E98" stroke="#8C8E98" stroke-width="0.05"/>
<path d="M10.3709 8.04485H11.6202C11.8066 8.04485 11.9577 7.8938 11.9577 7.70758V6.45803C11.9577 6.2718 11.8066 6.12075 11.6202 6.12075H10.3709C10.1844 6.12075 10.0336 6.27182 10.0336 6.45803V7.70758C10.0336 7.89378 10.1844 8.04485 10.3709 8.04485ZM11.2829 6.79553V7.37008H10.7081V6.79553H11.2829Z" fill="#8C8E98" stroke="#8C8E98" stroke-width="0.05"/>
<path d="M12.8698 8.04485H14.1193C14.3055 8.04485 14.4566 7.89379 14.4566 7.70758V6.45803C14.4566 6.27181 14.3055 6.12075 14.1193 6.12075H12.8698C12.6836 6.12075 12.5325 6.27181 12.5325 6.45803V7.70758C12.5325 7.89379 12.6836 8.04485 12.8698 8.04485ZM13.7818 6.79553V7.37008H13.2071V6.79553H13.7818Z" fill="#8C8E98" stroke="#8C8E98" stroke-width="0.05"/>
<path d="M15.3687 8.04485H16.6183C16.8045 8.04485 16.9555 7.89379 16.9555 7.70758V6.45803C16.9555 6.27181 16.8045 6.12075 16.6183 6.12075H15.3687C15.1825 6.12075 15.0314 6.27181 15.0314 6.45803V7.70758C15.0314 7.89379 15.1825 8.04485 15.3687 8.04485ZM16.2808 6.79553V7.37008H15.7062V6.79553H16.2808Z" fill="#8C8E98" stroke="#8C8E98" stroke-width="0.05"/>
<path d="M2.87433 10.5438H4.12365C4.3101 10.5438 4.46093 10.3927 4.46093 10.2065V8.95693C4.46093 8.77073 4.3101 8.61965 4.12365 8.61965H2.87433C2.6879 8.61965 2.53682 8.7707 2.53682 8.95693V10.2065C2.53682 10.3927 2.6879 10.5438 2.87433 10.5438ZM3.78638 9.29443V9.8692H3.2116V9.29443H3.78638Z" fill="#8C8E98" stroke="#8C8E98" stroke-width="0.05"/>
<path d="M7.87207 10.5438H9.1214C9.30782 10.5438 9.4589 10.3927 9.4589 10.2065V8.95693C9.4589 8.7707 9.30782 8.61965 9.1214 8.61965H7.87207C7.68564 8.61965 7.53457 8.7707 7.53457 8.95693V10.2065C7.53457 10.3927 7.68564 10.5438 7.87207 10.5438ZM8.78412 9.29443V9.8692H8.20935V9.29443H8.78412Z" fill="#8C8E98" stroke="#8C8E98" stroke-width="0.05"/>
<path d="M10.3709 10.5438H11.6202C11.8066 10.5438 11.9577 10.3927 11.9577 10.2065V8.95693C11.9577 8.7707 11.8066 8.61965 11.6202 8.61965H10.3709C10.1844 8.61965 10.0336 8.77073 10.0336 8.95693V10.2065C10.0336 10.3927 10.1844 10.5438 10.3709 10.5438ZM11.2829 9.29443V9.8692H10.7081V9.29443H11.2829Z" fill="#8C8E98" stroke="#8C8E98" stroke-width="0.05"/>
<path d="M2.87433 13.0429H4.12365C4.31011 13.0429 4.46093 12.8918 4.46093 12.7054V11.4561C4.46093 11.2696 4.31011 11.1186 4.12365 11.1186H2.87433C2.68789 11.1186 2.53682 11.2696 2.53682 11.4561V12.7054C2.53682 12.8918 2.68789 13.0429 2.87433 13.0429ZM3.78638 11.7933V12.3681H3.2116V11.7933H3.78638Z" fill="#8C8E98" stroke="#8C8E98" stroke-width="0.05"/>
<path d="M5.37315 13.0429H6.62248C6.80891 13.0429 6.95998 12.8918 6.95998 12.7054V11.4561C6.95998 11.2696 6.80891 11.1186 6.62248 11.1186H5.37315C5.18671 11.1186 5.03565 11.2696 5.03565 11.4561V12.7054C5.03565 12.8918 5.18671 13.0429 5.37315 13.0429ZM6.2852 11.7933V12.3681H5.71043V11.7933H6.2852Z" fill="#8C8E98" stroke="#8C8E98" stroke-width="0.05"/>
<path d="M7.87207 13.0429H9.1214C9.30784 13.0429 9.4589 12.8918 9.4589 12.7054V11.4561C9.4589 11.2696 9.30784 11.1186 9.1214 11.1186H7.87207C7.68563 11.1186 7.53457 11.2696 7.53457 11.4561V12.7054C7.53457 12.8918 7.68563 13.0429 7.87207 13.0429ZM8.78412 11.7933V12.3681H8.20935V11.7933H8.78412Z" fill="#8C8E98" stroke="#8C8E98" stroke-width="0.05"/>
<mask id="mask6_14_823" style="mask-type:luminance" maskUnits="userSpaceOnUse" x="10" y="9" width="12" height="11">
<path d="M10.9957 9.38857H10.9707V9.41357V19.4787V19.5037H10.9957H21H21.025V19.4787V9.41357V9.38857H21H10.9957Z" fill="white" stroke="white" stroke-width="0.05"/>
</mask>
<g mask="url(#mask6_14_823)">
<path d="M18.0224 10.616L18.0224 10.616C19.4529 11.3718 20.3414 12.8456 20.3414 14.4624C20.3414 16.86 18.3908 18.8106 15.9934 18.8106C13.5958 18.8106 11.6452 16.86 11.6452 14.4624C11.6452 12.065 13.5958 10.1144 15.9934 10.1144C16.7007 10.1144 17.4021 10.2878 18.0224 10.616ZM10.9707 14.4624C10.9707 17.2319 13.2238 19.4851 15.9934 19.4851C18.763 19.4851 21.0162 17.2319 21.0162 14.4624C21.0162 12.5948 19.9897 10.8925 18.3377 10.0196C17.6209 9.6401 16.8102 9.4396 15.9934 9.4396C13.2238 9.4396 10.9707 11.6928 10.9707 14.4624Z" fill="#8C8E98" stroke="#8C8E98" stroke-width="0.05"/>
</g>
<path d="M18.4219 12.5333L18.4218 12.5333C18.2901 12.4015 18.0763 12.4015 17.9445 12.5333L15.5327 14.9451L14.6669 14.0793C14.5351 13.9475 14.3215 13.9475 14.1898 14.0793C14.058 14.2111 14.058 14.4246 14.1898 14.5564L15.2942 15.6609C15.3599 15.7266 15.4463 15.7595 15.5327 15.7595C15.619 15.7595 15.7054 15.7266 15.7713 15.6609L15.7713 15.6609L18.4218 13.0104L18.4219 13.0104C18.5534 12.8786 18.5534 12.6651 18.4219 12.5333Z" fill="#8C8E98" stroke="#8C8E98" stroke-width="0.05"/>
<path d="M6.42176 8.86852L6.42176 8.86851C6.55354 8.73673 6.76708 8.73673 6.89887 8.86851C7.03065 9.00029 7.03065 9.21384 6.89887 9.34562L6.0154 10.2291L6.01537 10.2291L5.99769 10.2114L6.42176 8.86852ZM6.42176 8.86852L5.77693 9.51357L6.42176 8.86852Z" fill="#8C8E98" stroke="#8C8E98" stroke-width="0.05"/>
</svg>
