<svg width="23" height="22" viewBox="0 0 23 22" fill="none" xmlns="http://www.w3.org/2000/svg">
<mask id="mask0_14_1442" style="mask-type:luminance" maskUnits="userSpaceOnUse" x="0" y="0" width="23" height="22">
<path d="M1 0.925H0.925V1V21V21.075H1H22.7357H22.8107V21V1V0.925H22.7357H1Z" fill="white" stroke="white" stroke-width="0.15"/>
</mask>
<g mask="url(#mask0_14_1442)">
<mask id="path-2-outside-1_14_1442" maskUnits="userSpaceOnUse" x="0" y="0.00610352" width="23" height="22" fill="black">
<rect fill="white" y="0.00610352" width="23" height="22"/>
<path d="M9.00992 1.0061C12.0277 1.0061 14.6558 2.67523 16.0209 5.14072C19.8058 5.53216 22.7261 8.73264 22.7261 12.5851C22.7261 14.0715 22.2907 15.4943 21.4845 16.7116L21.497 16.6925L21.5805 20.4727C21.5876 20.802 21.2598 21.0292 20.9578 20.9165L20.9268 20.9037L17.9672 19.5563L17.8948 19.5845C17.0987 19.8868 16.2532 20.0516 15.3863 20.068L15.2417 20.0695C12.8297 20.0695 10.6113 18.9195 9.21301 17.0208L9.14228 17.0225L9.00992 17.0237C8.02249 17.0237 7.05962 16.8447 6.15667 16.5007L6.07809 16.4697L2.21507 18.229L2.32042 13.4205L2.25706 13.323C1.4656 12.0841 1.02628 10.6498 1.00123 9.15133L1 9.0148C1 4.59163 4.58578 1.0061 9.00992 1.0061ZM16.4884 6.14338C16.5353 6.26518 16.579 6.38845 16.6201 6.51295C16.6215 6.51787 16.6233 6.52278 16.6247 6.52769C16.6537 6.61634 16.6812 6.70548 16.707 6.79511C16.7107 6.80837 16.7144 6.82163 16.7183 6.83465C16.7571 6.97266 16.7924 7.11189 16.8241 7.25236C16.8266 7.26415 16.8293 7.27593 16.8317 7.28772C16.8393 7.32185 16.8467 7.35623 16.8538 7.39061C16.8573 7.40805 16.8607 7.42548 16.8642 7.44267C16.8838 7.53992 16.9012 7.6379 16.9172 7.73662C16.9172 7.73809 16.9174 7.73956 16.9177 7.74104L16.9172 7.73662C16.9251 7.78573 16.9324 7.83509 16.9395 7.88445C16.941 7.89575 16.9425 7.90704 16.9442 7.91834C16.9494 7.95714 16.9545 7.99594 16.9592 8.03498C16.9607 8.04652 16.9619 8.05831 16.9634 8.0701C16.9747 8.16562 16.9842 8.26164 16.9921 8.35815L16.9933 8.37509C16.9938 8.38197 16.9945 8.38909 16.995 8.39621C16.998 8.43599 17.0009 8.47578 17.0034 8.5158C17.0039 8.52685 17.0046 8.53815 17.0054 8.5492C17.0076 8.58751 17.0095 8.62631 17.011 8.66486C17.0115 8.67763 17.0122 8.6904 17.0127 8.70317C17.0142 8.7432 17.0154 8.78372 17.0164 8.82424C17.0179 8.88759 17.0186 8.95119 17.0186 9.0148L17.0171 8.86696C17.0181 8.91608 17.0186 8.96544 17.0186 9.0148C17.0186 9.05752 17.0184 9.10001 17.0176 9.14249C17.0166 9.20781 17.0147 9.27289 17.0122 9.33772C17.0115 9.35614 17.0108 9.37431 17.0098 9.39248C17.0093 9.40574 17.0085 9.41925 17.0078 9.43275C17.0063 9.46026 17.0049 9.488 17.0031 9.51575C17.0019 9.53515 17.0007 9.55455 16.9995 9.57395C16.9985 9.58525 16.9977 9.59679 16.997 9.60833C16.9945 9.64026 16.9921 9.67243 16.9894 9.70435C16.9879 9.71908 16.9867 9.73357 16.9855 9.74806C16.9833 9.77286 16.9808 9.79791 16.9783 9.82296C16.9771 9.83376 16.9761 9.84432 16.9749 9.85513C16.953 10.0666 16.9228 10.2755 16.8845 10.4816C16.8808 10.5 16.8774 10.5184 16.874 10.5368C16.8696 10.5606 16.8649 10.5845 16.8602 10.608C16.8573 10.6208 16.8548 10.6333 16.8521 10.6461C16.5712 12.0051 15.9457 13.2381 15.071 14.2498C15.0548 14.2682 15.0388 14.2866 15.0226 14.3051C15.0099 14.3198 14.9969 14.3345 14.9836 14.3493C14.9725 14.3615 14.9615 14.3738 14.9504 14.3861C14.9085 14.4325 14.866 14.4784 14.823 14.5239C14.8105 14.5369 14.7979 14.5501 14.7854 14.5631C14.7739 14.5752 14.7623 14.587 14.7508 14.5988C13.8127 15.5641 12.6325 16.2942 11.3055 16.69C11.3008 16.6912 11.2959 16.6927 11.2912 16.6942C11.2166 16.7165 11.1412 16.7376 11.0656 16.7575C11.0609 16.7588 11.056 16.76 11.0513 16.7612C11.0177 16.7701 10.9838 16.7789 10.9499 16.7873C10.9428 16.789 10.9357 16.7907 10.9285 16.7924L10.9499 16.7873C10.9133 16.7963 10.8767 16.8052 10.8401 16.8138C10.8271 16.8167 10.8141 16.8197 10.8011 16.8226C10.7849 16.8263 10.7687 16.83 10.7522 16.8337C10.7149 16.842 10.6773 16.8499 10.6398 16.8577C10.6147 16.8629 10.5899 16.868 10.5649 16.873C10.555 16.8747 10.5452 16.8766 10.5351 16.8786C10.4718 16.8909 10.4082 16.9022 10.3441 16.913L10.447 16.8951C10.4035 16.9029 10.3601 16.9105 10.3163 16.9176L10.3532 16.9599C11.5569 18.3056 13.2747 19.1135 15.1324 19.144L15.2417 19.1449C16.1309 19.1449 16.9955 18.9674 17.7976 18.6275C17.9167 18.577 18.0515 18.5789 18.1693 18.6324L20.64 19.7571L20.5695 16.5665C20.5678 16.4845 20.5877 16.4039 20.6272 16.3325L20.6486 16.2978L20.7161 16.1979C21.4204 15.1341 21.8015 13.8886 21.8015 12.5851C21.8015 9.40844 19.5359 6.7374 16.5059 6.14681L16.4884 6.14338ZM9.00992 1.93067C5.09631 1.93067 1.92456 5.10217 1.92456 9.0148C1.92456 10.4651 2.36216 11.8504 3.16713 13.0229L3.25136 13.1457L3.1718 16.7774L6.06115 15.4619L6.24827 15.541C7.11439 15.9079 8.04828 16.0992 9.00992 16.0992C9.15333 16.0992 9.29601 16.095 9.43721 16.0864C9.46299 16.0849 9.48853 16.0832 9.51383 16.0815L9.43721 16.0864C9.47527 16.0842 9.51333 16.0817 9.55115 16.0788L9.51383 16.0815C9.55017 16.0788 9.58651 16.0761 9.62261 16.0729L9.55115 16.0788C9.587 16.0761 9.62261 16.0731 9.65822 16.07L9.62261 16.0729C9.73557 16.0633 9.8478 16.051 9.95928 16.0361C9.975 16.0341 9.99072 16.0319 10.0064 16.0297L9.95928 16.0361C9.99391 16.0314 10.0285 16.0265 10.0629 16.0213L10.0064 16.0297C10.045 16.0243 10.0833 16.0184 10.1216 16.0125L10.0629 16.0213C10.102 16.0157 10.141 16.0095 10.1796 16.0032L10.1216 16.0125C10.1545 16.0073 10.1877 16.0019 10.2206 15.996L10.1796 16.0032C10.2147 15.9973 10.2495 15.9911 10.2842 15.985L10.2206 15.996C10.2643 15.9887 10.3077 15.9806 10.3512 15.9725L10.2842 15.985C10.3203 15.9784 10.3564 15.9715 10.3922 15.9644L10.3512 15.9725C10.3939 15.9641 10.4367 15.9555 10.4792 15.9467L10.3922 15.9644C10.4278 15.9575 10.4629 15.9501 10.4983 15.9427L10.4792 15.9467C11.9152 15.6436 13.1912 14.9057 14.1624 13.8768C14.1764 13.8621 14.1902 13.8471 14.2042 13.8323L14.1624 13.8768C14.1875 13.8503 14.2123 13.8237 14.2368 13.7967L14.2042 13.8323C14.2309 13.8034 14.2575 13.7741 14.2837 13.7449L14.2368 13.7967C14.2604 13.7712 14.2835 13.7452 14.3068 13.7191L14.2837 13.7449C14.3053 13.7209 14.3267 13.6968 14.3478 13.6725L14.3068 13.7191C14.3304 13.6926 14.3537 13.6661 14.3768 13.6391L14.3478 13.6725C15.2739 12.6114 15.888 11.2725 16.0508 9.80135C16.0535 9.77704 16.0562 9.75248 16.0587 9.72792L16.0508 9.80135C16.0626 9.69355 16.0722 9.585 16.0793 9.47597C16.0835 9.41065 16.0869 9.34508 16.0891 9.27952C16.0923 9.1916 16.0941 9.10345 16.0941 9.0148C16.0941 8.88612 16.0906 8.75793 16.0837 8.63048C16.0828 8.61157 16.0818 8.59291 16.0805 8.57425L16.0837 8.63048C16.0813 8.58284 16.0783 8.53545 16.0749 8.4883L16.0805 8.57425C16.069 8.38492 16.0498 8.19779 16.0238 8.01288C16.0211 7.99373 16.0184 7.97457 16.0155 7.95566L16.0238 8.01288C15.9971 7.82355 15.9627 7.63643 15.9212 7.45225C15.917 7.43334 15.9128 7.41419 15.9084 7.39528L15.9212 7.45225C15.9133 7.41763 15.9055 7.38325 15.8971 7.34887L15.9084 7.39528C15.8993 7.35648 15.8897 7.31768 15.8802 7.27888L15.8971 7.34887C15.8861 7.30368 15.8748 7.25874 15.8632 7.2138L15.8802 7.27888C15.8716 7.24475 15.8627 7.21061 15.8534 7.17672L15.8632 7.2138C15.7692 6.85552 15.6479 6.50804 15.5015 6.17407C15.4951 6.15909 15.4885 6.14411 15.4819 6.12938L15.5015 6.17407C15.4833 6.13257 15.4647 6.09132 15.4458 6.05031C15.4445 6.04711 15.4431 6.04368 15.4416 6.04048L15.4458 6.05031C14.3238 3.61845 11.8639 1.93067 9.00992 1.93067ZM9.05486 12.09C9.3741 12.09 9.63268 12.3489 9.63268 12.6681C9.63268 12.9871 9.3741 13.2459 9.05486 13.2459C8.73562 13.2459 8.47704 12.9871 8.47704 12.6681C8.47704 12.3489 8.73562 12.09 9.05486 12.09ZM10.5749 8.96028L10.5278 9.00645C10.4595 9.07103 10.3952 9.1366 10.3345 9.20339C9.97721 9.59581 9.75399 10.0091 9.63489 10.4219C9.57522 10.6292 9.54992 10.802 9.54501 10.9253L9.54452 11L9.54526 11.0346C9.54305 11.3111 9.33677 11.5429 9.06861 11.5611C8.80021 11.5795 8.56692 11.3776 8.53033 11.1041L8.52542 11.0466L8.52492 11.0358C8.51756 10.803 8.55095 10.4865 8.65827 10.1144C8.82206 9.54645 9.12485 8.98631 9.59535 8.46939C9.64717 8.41242 9.70095 8.35618 9.75645 8.30069L9.84141 8.21818C10.7473 7.35795 10.2537 5.94938 9.10103 6.08935C8.55341 6.1559 8.19857 6.39877 7.96871 6.77203C7.87245 6.92821 7.80443 7.09888 7.76121 7.26955L7.74304 7.34739L7.73125 7.40977L7.72462 7.45397L7.72339 7.4687C7.70203 7.76216 7.4572 7.98194 7.17627 7.95959C6.89534 7.93749 6.68489 7.68161 6.70625 7.38816C6.71264 7.29853 6.73302 7.16346 6.77526 6.99697C6.84426 6.72463 6.9528 6.45255 7.11095 6.19568C7.50165 5.56138 8.12342 5.13581 8.98315 5.0312C11.1545 4.76722 12.1105 7.43089 10.5749 8.96028Z"/>
</mask>
<path d="M9.00992 1.0061C12.0277 1.0061 14.6558 2.67523 16.0209 5.14072C19.8058 5.53216 22.7261 8.73264 22.7261 12.5851C22.7261 14.0715 22.2907 15.4943 21.4845 16.7116L21.497 16.6925L21.5805 20.4727C21.5876 20.802 21.2598 21.0292 20.9578 20.9165L20.9268 20.9037L17.9672 19.5563L17.8948 19.5845C17.0987 19.8868 16.2532 20.0516 15.3863 20.068L15.2417 20.0695C12.8297 20.0695 10.6113 18.9195 9.21301 17.0208L9.14228 17.0225L9.00992 17.0237C8.02249 17.0237 7.05962 16.8447 6.15667 16.5007L6.07809 16.4697L2.21507 18.229L2.32042 13.4205L2.25706 13.323C1.4656 12.0841 1.02628 10.6498 1.00123 9.15133L1 9.0148C1 4.59163 4.58578 1.0061 9.00992 1.0061ZM16.4884 6.14338C16.5353 6.26518 16.579 6.38845 16.6201 6.51295C16.6215 6.51787 16.6233 6.52278 16.6247 6.52769C16.6537 6.61634 16.6812 6.70548 16.707 6.79511C16.7107 6.80837 16.7144 6.82163 16.7183 6.83465C16.7571 6.97266 16.7924 7.11189 16.8241 7.25236C16.8266 7.26415 16.8293 7.27593 16.8317 7.28772C16.8393 7.32185 16.8467 7.35623 16.8538 7.39061C16.8573 7.40805 16.8607 7.42548 16.8642 7.44267C16.8838 7.53992 16.9012 7.6379 16.9172 7.73662C16.9172 7.73809 16.9174 7.73956 16.9177 7.74104L16.9172 7.73662C16.9251 7.78573 16.9324 7.83509 16.9395 7.88445C16.941 7.89575 16.9425 7.90704 16.9442 7.91834C16.9494 7.95714 16.9545 7.99594 16.9592 8.03498C16.9607 8.04652 16.9619 8.05831 16.9634 8.0701C16.9747 8.16562 16.9842 8.26164 16.9921 8.35815L16.9933 8.37509C16.9938 8.38197 16.9945 8.38909 16.995 8.39621C16.998 8.43599 17.0009 8.47578 17.0034 8.5158C17.0039 8.52685 17.0046 8.53815 17.0054 8.5492C17.0076 8.58751 17.0095 8.62631 17.011 8.66486C17.0115 8.67763 17.0122 8.6904 17.0127 8.70317C17.0142 8.7432 17.0154 8.78372 17.0164 8.82424C17.0179 8.88759 17.0186 8.95119 17.0186 9.0148L17.0171 8.86696C17.0181 8.91608 17.0186 8.96544 17.0186 9.0148C17.0186 9.05752 17.0184 9.10001 17.0176 9.14249C17.0166 9.20781 17.0147 9.27289 17.0122 9.33772C17.0115 9.35614 17.0108 9.37431 17.0098 9.39248C17.0093 9.40574 17.0085 9.41925 17.0078 9.43275C17.0063 9.46026 17.0049 9.488 17.0031 9.51575C17.0019 9.53515 17.0007 9.55455 16.9995 9.57395C16.9985 9.58525 16.9977 9.59679 16.997 9.60833C16.9945 9.64026 16.9921 9.67243 16.9894 9.70435C16.9879 9.71908 16.9867 9.73357 16.9855 9.74806C16.9833 9.77286 16.9808 9.79791 16.9783 9.82296C16.9771 9.83376 16.9761 9.84432 16.9749 9.85513C16.953 10.0666 16.9228 10.2755 16.8845 10.4816C16.8808 10.5 16.8774 10.5184 16.874 10.5368C16.8696 10.5606 16.8649 10.5845 16.8602 10.608C16.8573 10.6208 16.8548 10.6333 16.8521 10.6461C16.5712 12.0051 15.9457 13.2381 15.071 14.2498C15.0548 14.2682 15.0388 14.2866 15.0226 14.3051C15.0099 14.3198 14.9969 14.3345 14.9836 14.3493C14.9725 14.3615 14.9615 14.3738 14.9504 14.3861C14.9085 14.4325 14.866 14.4784 14.823 14.5239C14.8105 14.5369 14.7979 14.5501 14.7854 14.5631C14.7739 14.5752 14.7623 14.587 14.7508 14.5988C13.8127 15.5641 12.6325 16.2942 11.3055 16.69C11.3008 16.6912 11.2959 16.6927 11.2912 16.6942C11.2166 16.7165 11.1412 16.7376 11.0656 16.7575C11.0609 16.7588 11.056 16.76 11.0513 16.7612C11.0177 16.7701 10.9838 16.7789 10.9499 16.7873C10.9428 16.789 10.9357 16.7907 10.9285 16.7924L10.9499 16.7873C10.9133 16.7963 10.8767 16.8052 10.8401 16.8138C10.8271 16.8167 10.8141 16.8197 10.8011 16.8226C10.7849 16.8263 10.7687 16.83 10.7522 16.8337C10.7149 16.842 10.6773 16.8499 10.6398 16.8577C10.6147 16.8629 10.5899 16.868 10.5649 16.873C10.555 16.8747 10.5452 16.8766 10.5351 16.8786C10.4718 16.8909 10.4082 16.9022 10.3441 16.913L10.447 16.8951C10.4035 16.9029 10.3601 16.9105 10.3163 16.9176L10.3532 16.9599C11.5569 18.3056 13.2747 19.1135 15.1324 19.144L15.2417 19.1449C16.1309 19.1449 16.9955 18.9674 17.7976 18.6275C17.9167 18.577 18.0515 18.5789 18.1693 18.6324L20.64 19.7571L20.5695 16.5665C20.5678 16.4845 20.5877 16.4039 20.6272 16.3325L20.6486 16.2978L20.7161 16.1979C21.4204 15.1341 21.8015 13.8886 21.8015 12.5851C21.8015 9.40844 19.5359 6.7374 16.5059 6.14681L16.4884 6.14338ZM9.00992 1.93067C5.09631 1.93067 1.92456 5.10217 1.92456 9.0148C1.92456 10.4651 2.36216 11.8504 3.16713 13.0229L3.25136 13.1457L3.1718 16.7774L6.06115 15.4619L6.24827 15.541C7.11439 15.9079 8.04828 16.0992 9.00992 16.0992C9.15333 16.0992 9.29601 16.095 9.43721 16.0864C9.46299 16.0849 9.48853 16.0832 9.51383 16.0815L9.43721 16.0864C9.47527 16.0842 9.51333 16.0817 9.55115 16.0788L9.51383 16.0815C9.55017 16.0788 9.58651 16.0761 9.62261 16.0729L9.55115 16.0788C9.587 16.0761 9.62261 16.0731 9.65822 16.07L9.62261 16.0729C9.73557 16.0633 9.8478 16.051 9.95928 16.0361C9.975 16.0341 9.99072 16.0319 10.0064 16.0297L9.95928 16.0361C9.99391 16.0314 10.0285 16.0265 10.0629 16.0213L10.0064 16.0297C10.045 16.0243 10.0833 16.0184 10.1216 16.0125L10.0629 16.0213C10.102 16.0157 10.141 16.0095 10.1796 16.0032L10.1216 16.0125C10.1545 16.0073 10.1877 16.0019 10.2206 15.996L10.1796 16.0032C10.2147 15.9973 10.2495 15.9911 10.2842 15.985L10.2206 15.996C10.2643 15.9887 10.3077 15.9806 10.3512 15.9725L10.2842 15.985C10.3203 15.9784 10.3564 15.9715 10.3922 15.9644L10.3512 15.9725C10.3939 15.9641 10.4367 15.9555 10.4792 15.9467L10.3922 15.9644C10.4278 15.9575 10.4629 15.9501 10.4983 15.9427L10.4792 15.9467C11.9152 15.6436 13.1912 14.9057 14.1624 13.8768C14.1764 13.8621 14.1902 13.8471 14.2042 13.8323L14.1624 13.8768C14.1875 13.8503 14.2123 13.8237 14.2368 13.7967L14.2042 13.8323C14.2309 13.8034 14.2575 13.7741 14.2837 13.7449L14.2368 13.7967C14.2604 13.7712 14.2835 13.7452 14.3068 13.7191L14.2837 13.7449C14.3053 13.7209 14.3267 13.6968 14.3478 13.6725L14.3068 13.7191C14.3304 13.6926 14.3537 13.6661 14.3768 13.6391L14.3478 13.6725C15.2739 12.6114 15.888 11.2725 16.0508 9.80135C16.0535 9.77704 16.0562 9.75248 16.0587 9.72792L16.0508 9.80135C16.0626 9.69355 16.0722 9.585 16.0793 9.47597C16.0835 9.41065 16.0869 9.34508 16.0891 9.27952C16.0923 9.1916 16.0941 9.10345 16.0941 9.0148C16.0941 8.88612 16.0906 8.75793 16.0837 8.63048C16.0828 8.61157 16.0818 8.59291 16.0805 8.57425L16.0837 8.63048C16.0813 8.58284 16.0783 8.53545 16.0749 8.4883L16.0805 8.57425C16.069 8.38492 16.0498 8.19779 16.0238 8.01288C16.0211 7.99373 16.0184 7.97457 16.0155 7.95566L16.0238 8.01288C15.9971 7.82355 15.9627 7.63643 15.9212 7.45225C15.917 7.43334 15.9128 7.41419 15.9084 7.39528L15.9212 7.45225C15.9133 7.41763 15.9055 7.38325 15.8971 7.34887L15.9084 7.39528C15.8993 7.35648 15.8897 7.31768 15.8802 7.27888L15.8971 7.34887C15.8861 7.30368 15.8748 7.25874 15.8632 7.2138L15.8802 7.27888C15.8716 7.24475 15.8627 7.21061 15.8534 7.17672L15.8632 7.2138C15.7692 6.85552 15.6479 6.50804 15.5015 6.17407C15.4951 6.15909 15.4885 6.14411 15.4819 6.12938L15.5015 6.17407C15.4833 6.13257 15.4647 6.09132 15.4458 6.05031C15.4445 6.04711 15.4431 6.04368 15.4416 6.04048L15.4458 6.05031C14.3238 3.61845 11.8639 1.93067 9.00992 1.93067ZM9.05486 12.09C9.3741 12.09 9.63268 12.3489 9.63268 12.6681C9.63268 12.9871 9.3741 13.2459 9.05486 13.2459C8.73562 13.2459 8.47704 12.9871 8.47704 12.6681C8.47704 12.3489 8.73562 12.09 9.05486 12.09ZM10.5749 8.96028L10.5278 9.00645C10.4595 9.07103 10.3952 9.1366 10.3345 9.20339C9.97721 9.59581 9.75399 10.0091 9.63489 10.4219C9.57522 10.6292 9.54992 10.802 9.54501 10.9253L9.54452 11L9.54526 11.0346C9.54305 11.3111 9.33677 11.5429 9.06861 11.5611C8.80021 11.5795 8.56692 11.3776 8.53033 11.1041L8.52542 11.0466L8.52492 11.0358C8.51756 10.803 8.55095 10.4865 8.65827 10.1144C8.82206 9.54645 9.12485 8.98631 9.59535 8.46939C9.64717 8.41242 9.70095 8.35618 9.75645 8.30069L9.84141 8.21818C10.7473 7.35795 10.2537 5.94938 9.10103 6.08935C8.55341 6.1559 8.19857 6.39877 7.96871 6.77203C7.87245 6.92821 7.80443 7.09888 7.76121 7.26955L7.74304 7.34739L7.73125 7.40977L7.72462 7.45397L7.72339 7.4687C7.70203 7.76216 7.4572 7.98194 7.17627 7.95959C6.89534 7.93749 6.68489 7.68161 6.70625 7.38816C6.71264 7.29853 6.73302 7.16346 6.77526 6.99697C6.84426 6.72463 6.9528 6.45255 7.11095 6.19568C7.50165 5.56138 8.12342 5.13581 8.98315 5.0312C11.1545 4.76722 12.1105 7.43089 10.5749 8.96028Z" fill="#8C8E98"/>
<path d="M17.0936 9.01378L17.0931 8.97768L16.9431 8.97972L16.9436 9.01582L17.0936 9.01378ZM16.0209 5.14072L15.8896 5.21338L15.9276 5.28187L16.0054 5.28993L16.0209 5.14072ZM21.4845 16.7116L21.359 16.6295L21.6096 16.7944L21.4845 16.7116ZM21.497 16.6925L21.647 16.6892L21.6363 16.2054L21.3715 16.6104L21.497 16.6925ZM21.5805 20.4727L21.7305 20.4695L21.7305 20.4694L21.5805 20.4727ZM20.9578 20.9165L20.9005 21.0552L20.9053 21.057L20.9578 20.9165ZM20.9268 20.9037L20.8646 21.0403L20.8696 21.0424L20.9268 20.9037ZM17.9672 19.5563L18.0294 19.4198L17.9718 19.3935L17.9128 19.4165L17.9672 19.5563ZM17.8948 19.5845L17.948 19.7247L17.9493 19.7243L17.8948 19.5845ZM15.3863 20.068L15.3879 20.218L15.3892 20.218L15.3863 20.068ZM15.2417 20.0695V20.2195L15.2432 20.2195L15.2417 20.0695ZM9.21301 17.0208L9.33379 16.9318L9.28746 16.8689L9.20936 16.8708L9.21301 17.0208ZM9.14228 17.0225L9.14367 17.1725L9.14593 17.1725L9.14228 17.0225ZM9.00992 17.0237V17.1737L9.01131 17.1737L9.00992 17.0237ZM6.15667 16.5007L6.10171 16.6403L6.10326 16.6408L6.15667 16.5007ZM6.07809 16.4697L6.13305 16.3302L6.07384 16.3068L6.01592 16.3332L6.07809 16.4697ZM2.21507 18.229L2.0651 18.2257L2.05987 18.4645L2.27724 18.3655L2.21507 18.229ZM2.32042 13.4205L2.47038 13.4238L2.47139 13.3776L2.44619 13.3388L2.32042 13.4205ZM2.25706 13.323L2.13065 13.4038L2.13129 13.4048L2.25706 13.323ZM1.00123 9.15133L0.851229 9.15268L0.851249 9.15384L1.00123 9.15133ZM1 9.0148H0.849994L0.850006 9.01614L1 9.0148ZM16.4884 6.14338L16.5175 5.99621L16.2508 5.94363L16.3485 6.19728L16.4884 6.14338ZM16.6201 6.51295L16.7638 6.46984L16.7625 6.46603L16.6201 6.51295ZM16.6247 6.52769L16.481 6.57081L16.4821 6.57429L16.6247 6.52769ZM16.707 6.79511L16.8515 6.75496L16.8511 6.75364L16.707 6.79511ZM16.7183 6.83465L16.8627 6.79404L16.8619 6.7913L16.7183 6.83465ZM16.8241 7.25236L16.971 7.22176L16.9704 7.21936L16.8241 7.25236ZM16.8317 7.28772L16.6849 7.31832L16.6853 7.32037L16.8317 7.28772ZM16.8538 7.39061L17.001 7.36159L17.0007 7.36019L16.8538 7.39061ZM16.8642 7.44267L16.7171 7.47209L16.7171 7.47238L16.8642 7.44267ZM16.9172 7.73662L17.0653 7.71292L17.0653 7.71267L16.9172 7.73662ZM16.9177 7.74104L16.7697 7.7657L17.0668 7.72447L16.9177 7.74104ZM16.9395 7.88445L17.0883 7.86505L17.088 7.86303L16.9395 7.88445ZM16.9442 7.91834L17.0929 7.89857L17.0925 7.89577L16.9442 7.91834ZM16.9592 8.03498L16.8102 8.05278L16.8104 8.05398L16.9592 8.03498ZM16.9634 8.0701L17.1123 8.05248L17.1122 8.05149L16.9634 8.0701ZM16.9921 8.35815L17.1417 8.34731L17.1416 8.34598L16.9921 8.35815ZM16.9933 8.37509L17.1429 8.36441L17.1429 8.36425L16.9933 8.37509ZM16.995 8.39621L16.8454 8.40653L16.8454 8.40729L16.995 8.39621ZM17.0034 8.5158L17.1533 8.50914L17.1531 8.50662L17.0034 8.5158ZM17.0054 8.5492L17.1551 8.54056L17.155 8.53922L17.0054 8.5492ZM17.011 8.66486L16.8611 8.67059L16.8611 8.67063L17.011 8.66486ZM17.0127 8.70317L17.1626 8.69765L17.1626 8.69741L17.0127 8.70317ZM17.0164 8.82424L17.1664 8.82075L17.1664 8.8206L17.0164 8.82424ZM17.0171 8.86696L17.1671 8.86397L16.8671 8.86846L17.0171 8.86696ZM17.0176 9.14249L16.8677 9.13989L16.8676 9.14024L17.0176 9.14249ZM17.0122 9.33772L17.1621 9.34371L17.1621 9.3434L17.0122 9.33772ZM17.0098 9.39248L16.86 9.38438L16.8599 9.38693L17.0098 9.39248ZM17.0078 9.43275L16.858 9.42458L16.858 9.42473L17.0078 9.43275ZM17.0031 9.51575L17.1528 9.52523L17.1529 9.52503L17.0031 9.51575ZM16.9995 9.57395L17.1489 9.58695L17.1492 9.58343L16.9995 9.57395ZM16.997 9.60833L17.1466 9.61984L17.1467 9.61789L16.997 9.60833ZM16.9894 9.70435L17.1387 9.71928L17.1389 9.717L16.9894 9.70435ZM16.9855 9.74806L17.1349 9.76137L17.1349 9.76073L16.9855 9.74806ZM16.9783 9.82296L17.1274 9.8399L17.1276 9.83759L16.9783 9.82296ZM16.9749 9.85513L16.8259 9.83819L16.8257 9.83971L16.9749 9.85513ZM16.8845 10.4816L17.0316 10.511L17.032 10.509L16.8845 10.4816ZM16.874 10.5368L16.7265 10.5093L16.7265 10.5095L16.874 10.5368ZM16.8602 10.608L17.0065 10.6418L17.0074 10.6372L16.8602 10.608ZM16.8521 10.6461L16.7054 10.6151L16.7052 10.6157L16.8521 10.6461ZM15.071 14.2498L15.1836 14.3489L15.1845 14.3479L15.071 14.2498ZM15.0226 14.3051L14.91 14.206L14.9093 14.2068L15.0226 14.3051ZM14.9836 14.3493L14.8721 14.2489H14.8721L14.9836 14.3493ZM14.9504 14.3861L15.0617 14.4867L15.0619 14.4864L14.9504 14.3861ZM14.823 14.5239L14.9311 14.6279L14.932 14.6269L14.823 14.5239ZM14.7854 14.5631L14.6773 14.4591L14.6772 14.4593L14.7854 14.5631ZM14.7508 14.5988L14.6436 14.4938L14.6432 14.4942L14.7508 14.5988ZM11.3055 16.69L11.3437 16.8351L11.3484 16.8337L11.3055 16.69ZM11.2912 16.6942L11.3343 16.8379L11.3364 16.8372L11.2912 16.6942ZM11.0656 16.7575L11.0274 16.6125L11.0274 16.6125L11.0656 16.7575ZM11.0513 16.7612L11.0894 16.9063L11.0895 16.9063L11.0513 16.7612ZM10.8401 16.8138L10.8733 16.9601L10.8744 16.9598L10.8401 16.8138ZM10.8011 16.8226L10.768 16.6763L10.7678 16.6763L10.8011 16.8226ZM10.7522 16.8337L10.785 16.98L10.785 16.98L10.7522 16.8337ZM10.6398 16.8577L10.67 17.0047L10.6705 17.0046L10.6398 16.8577ZM10.5649 16.873L10.5907 17.0207L10.5937 17.0202L10.5649 16.873ZM10.5351 16.8786L10.5637 17.0259L10.5639 17.0258L10.5351 16.8786ZM10.3441 16.913L10.3183 16.7652L10.369 17.0609L10.3441 16.913ZM10.447 16.8951L10.4737 17.0427L10.4212 16.7473L10.447 16.8951ZM10.3163 16.9176L10.2922 16.7696L10.026 16.813L10.2033 17.0162L10.3163 16.9176ZM10.3532 16.9599L10.2401 17.0585L10.2414 17.0599L10.3532 16.9599ZM15.1324 19.144L15.13 19.2939L15.1311 19.294L15.1324 19.144ZM15.2417 19.1449L15.2403 19.2949H15.2417V19.1449ZM17.7976 18.6275L17.8561 18.7656L17.8562 18.7656L17.7976 18.6275ZM18.1693 18.6324L18.2315 18.4959L18.2314 18.4959L18.1693 18.6324ZM20.64 19.7571L20.5779 19.8937L20.7952 19.9926L20.79 19.7538L20.64 19.7571ZM20.5695 16.5665L20.4196 16.5696L20.4196 16.5698L20.5695 16.5665ZM20.6272 16.3325L20.4994 16.2536L20.496 16.2598L20.6272 16.3325ZM20.6486 16.2978L20.5242 16.2138L20.5209 16.2191L20.6486 16.2978ZM20.7161 16.1979L20.8404 16.2819L20.8412 16.2807L20.7161 16.1979ZM16.5059 6.14681L16.4768 6.29398L16.4772 6.29404L16.5059 6.14681ZM3.16713 13.0229L3.29083 12.9381L3.2908 12.9381L3.16713 13.0229ZM3.25136 13.1457L3.40133 13.149L3.40238 13.1007L3.37506 13.0609L3.25136 13.1457ZM3.1718 16.7774L3.02183 16.7741L3.0166 17.0129L3.23395 16.9139L3.1718 16.7774ZM6.06115 15.4619L6.11953 15.3238L6.0589 15.2981L5.99899 15.3254L6.06115 15.4619ZM6.24827 15.541L6.30677 15.4029L6.30666 15.4028L6.24827 15.541ZM9.51383 16.0815L9.524 16.2311L9.52465 16.2311L9.51383 16.0815ZM9.65822 16.07L9.67161 16.2194L9.64585 15.9205L9.65822 16.07ZM10.1216 16.0125L10.1444 16.1607L10.1448 16.1607L10.1216 16.0125ZM10.1796 16.0032L10.2041 16.1511L10.2044 16.1511L10.1796 16.0032ZM10.2842 15.985L10.3104 16.1327L10.3113 16.1325L10.2842 15.985ZM10.3512 15.9725L10.3788 16.1199L10.38 16.1197L10.3512 15.9725ZM10.4983 15.9427L10.5289 16.0896L10.4682 15.7958L10.4983 15.9427ZM14.2042 13.8323L14.3135 13.935L14.3143 13.9341L14.2042 13.8323ZM14.2837 13.7449L14.3953 13.8452L14.3953 13.8451L14.2837 13.7449ZM14.3068 13.7191L14.4186 13.8192L14.4189 13.8188L14.3068 13.7191ZM14.3768 13.6391L14.4908 13.7365L14.2635 13.5408L14.3768 13.6391ZM16.0587 9.72792L16.2079 9.74285L15.9095 9.71196L16.0587 9.72792ZM16.0793 9.47597L16.229 9.48575L16.229 9.48554L16.0793 9.47597ZM16.0891 9.27952L15.9392 9.27407L15.9392 9.27446L16.0891 9.27952ZM16.0749 8.4883L16.2245 8.47739L15.9252 8.49814L16.0749 8.4883ZM16.0238 8.01288L16.1724 7.99197L16.1723 7.99193L16.0238 8.01288ZM16.0155 7.95566L16.1637 7.93257L15.867 7.97732L16.0155 7.95566ZM15.9084 7.39528L16.0545 7.36113L16.0545 7.36108L15.9084 7.39528ZM15.8802 7.27888L16.0258 7.24293L16.0256 7.24225L15.8802 7.27888ZM15.8632 7.2138L16.0084 7.17601L16.0083 7.17572L15.8632 7.2138ZM15.8534 7.17672L15.998 7.1369L15.7084 7.21513L15.8534 7.17672ZM15.4819 6.12938L15.6186 6.06782L15.3445 6.18974L15.4819 6.12938ZM15.4416 6.04048L15.5778 5.97762L15.3035 6.09915L15.4416 6.04048ZM10.5749 8.96028L10.6799 9.06746L10.6808 9.06656L10.5749 8.96028ZM10.5278 9.00645L10.6309 9.11543L10.6327 9.11362L10.5278 9.00645ZM10.3345 9.20339L10.4454 9.30438L10.4456 9.30423L10.3345 9.20339ZM9.63489 10.4219L9.49077 10.3803L9.49075 10.3804L9.63489 10.4219ZM9.54501 10.9253L9.39505 10.9193L9.39502 10.9243L9.54501 10.9253ZM9.54452 11L9.39447 10.999L9.39456 11.0032L9.54452 11ZM9.54526 11.0346L9.69532 11.0358L9.69522 11.0314L9.54526 11.0346ZM9.06861 11.5611L9.05847 11.4114L9.05834 11.4114L9.06861 11.5611ZM8.53033 11.1041L8.3807 11.1169L8.38165 11.124L8.53033 11.1041ZM8.52542 11.0466L8.37545 11.0534L8.37596 11.0594L8.52542 11.0466ZM8.52492 11.0358L8.37499 11.0406L8.37508 11.0426L8.52492 11.0358ZM8.65827 10.1144L8.80239 10.156L8.80239 10.156L8.65827 10.1144ZM9.59535 8.46939L9.70628 8.57036L9.70632 8.57032L9.59535 8.46939ZM9.75645 8.30069L9.65193 8.19306L9.65038 8.19462L9.75645 8.30069ZM9.84141 8.21818L9.73812 8.1094L9.73691 8.11057L9.84141 8.21818ZM9.10103 6.08935L9.08294 5.94044L9.08293 5.94045L9.10103 6.08935ZM7.96871 6.77203L8.09641 6.85073L8.09644 6.85068L7.96871 6.77203ZM7.76121 7.26955L7.61577 7.23272L7.61514 7.23545L7.76121 7.26955ZM7.74304 7.34739L7.59683 7.31326L7.59565 7.31954L7.74304 7.34739ZM7.73125 7.40977L7.58375 7.38189L7.58291 7.38752L7.73125 7.40977ZM7.72462 7.45397L7.57596 7.43167L7.57514 7.44151L7.72462 7.45397ZM7.72339 7.4687L7.5739 7.45625L7.57379 7.45781L7.72339 7.4687ZM7.17627 7.95959L7.18816 7.81007L7.18803 7.81005L7.17627 7.95959ZM6.70625 7.38816L6.85586 7.39905L6.85587 7.39882L6.70625 7.38816ZM6.77526 6.99697L6.92065 7.03385L6.92066 7.03381L6.77526 6.99697ZM7.11095 6.19568L6.98323 6.11701L6.98322 6.11704L7.11095 6.19568ZM8.98315 5.0312L8.96505 4.8823L8.96504 4.8823L8.98315 5.0312ZM9.00992 1.1561C11.971 1.1561 14.5499 2.79368 15.8896 5.21338L16.1521 5.06806C14.7616 2.55677 12.0844 0.856104 9.00992 0.856104V1.1561ZM16.0054 5.28993C19.7143 5.67349 22.5761 8.80985 22.5761 12.5851H22.8761C22.8761 8.65543 19.8974 5.39083 16.0363 4.99152L16.0054 5.28993ZM22.5761 12.5851C22.5761 14.0419 22.1495 15.4359 21.3594 16.6288L21.6096 16.7944C22.4319 15.5528 22.8761 14.1012 22.8761 12.5851H22.5761ZM21.6101 16.7937L21.6226 16.7746L21.3715 16.6104L21.359 16.6295L21.6101 16.7937ZM21.3471 16.6958L21.4306 20.476L21.7305 20.4694L21.647 16.6892L21.3471 16.6958ZM21.4306 20.476C21.4354 20.6982 21.214 20.852 21.0102 20.7759L20.9053 21.057C21.3057 21.2064 21.7399 20.9059 21.7305 20.4695L21.4306 20.476ZM21.015 20.7778L20.984 20.765L20.8696 21.0424L20.9005 21.0551L21.015 20.7778ZM20.989 20.7672L18.0294 19.4198L17.9051 19.6928L20.8647 21.0402L20.989 20.7672ZM17.9128 19.4165L17.8403 19.4448L17.9493 19.7243L18.0217 19.696L17.9128 19.4165ZM17.8416 19.4443C17.0615 19.7405 16.2331 19.9019 15.3835 19.9181L15.3892 20.218C16.2733 20.2012 17.1358 20.0332 17.948 19.7247L17.8416 19.4443ZM15.3848 19.918L15.2402 19.9195L15.2432 20.2195L15.3879 20.218L15.3848 19.918ZM15.2417 19.9195C12.878 19.9195 10.7042 18.7927 9.33379 16.9318L9.09222 17.1097C10.5184 19.0463 12.7814 20.2195 15.2417 20.2195V19.9195ZM9.20936 16.8708L9.13864 16.8726L9.14593 17.1725L9.21665 17.1707L9.20936 16.8708ZM9.14089 16.8725L9.00853 16.8737L9.01131 17.1737L9.14367 17.1725L9.14089 16.8725ZM9.00992 16.8737C8.04073 16.8737 7.09596 16.698 6.21008 16.3605L6.10326 16.6408C7.02329 16.9914 8.00426 17.1737 9.00992 17.1737V16.8737ZM6.21163 16.3611L6.13305 16.3302L6.02313 16.6093L6.10172 16.6402L6.21163 16.3611ZM6.01592 16.3332L2.1529 18.0925L2.27724 18.3655L6.14026 16.6062L6.01592 16.3332ZM2.36503 18.2323L2.47038 13.4238L2.17045 13.4172L2.0651 18.2257L2.36503 18.2323ZM2.44619 13.3388L2.38283 13.2413L2.13129 13.4048L2.19464 13.5023L2.44619 13.3388ZM2.38347 13.2423C1.60683 12.0266 1.17579 10.6193 1.15121 9.14882L0.851249 9.15384C0.876764 10.6803 1.32436 12.1417 2.13065 13.4038L2.38347 13.2423ZM1.15122 9.14998L1.14999 9.01345L0.850006 9.01614L0.851234 9.15268L1.15122 9.14998ZM1.15 9.0148C1.15 4.6745 4.6686 1.1561 9.00992 1.1561V0.856104C4.50295 0.856104 0.85 4.50877 0.85 9.0148H1.15ZM16.3485 6.19728C16.3944 6.31658 16.4373 6.43751 16.4776 6.55988L16.7625 6.46603C16.7208 6.33939 16.6763 6.21378 16.6284 6.08947L16.3485 6.19728ZM16.4764 6.55606C16.4777 6.56042 16.479 6.56451 16.4797 6.56668C16.4806 6.56942 16.4809 6.57025 16.481 6.57079L16.7684 6.48459C16.7671 6.48022 16.7658 6.47614 16.765 6.47396C16.7642 6.47122 16.7639 6.4704 16.7637 6.46985L16.4764 6.55606ZM16.4821 6.57429C16.5106 6.66136 16.5376 6.74879 16.5628 6.83658L16.8511 6.75364C16.8248 6.66217 16.7968 6.57132 16.7673 6.48108L16.4821 6.57429ZM16.5625 6.83526C16.5661 6.84824 16.5702 6.86312 16.5747 6.878L16.8619 6.7913C16.8585 6.78015 16.8553 6.76851 16.8515 6.75496L16.5625 6.83526ZM16.5739 6.87525C16.612 7.01081 16.6467 7.14751 16.6778 7.28536L16.9704 7.21936C16.9382 7.07628 16.9022 6.93451 16.8627 6.79405L16.5739 6.87525ZM16.6773 7.28295C16.6787 7.2897 16.6801 7.29632 16.6814 7.30209C16.6827 7.30811 16.6838 7.31327 16.6849 7.31831L16.9786 7.25713C16.9772 7.25038 16.9757 7.24376 16.9745 7.23798C16.9731 7.23197 16.972 7.22681 16.971 7.22177L16.6773 7.28295ZM16.6853 7.32037C16.6928 7.35369 16.7 7.38733 16.707 7.42104L17.0007 7.36019C16.9935 7.32514 16.9859 7.29002 16.9781 7.25507L16.6853 7.32037ZM16.7067 7.41963C16.7101 7.43703 16.7136 7.45467 16.7171 7.47209L17.0112 7.41326C17.0078 7.3963 17.0044 7.37906 17.001 7.36159L16.7067 7.41963ZM16.7171 7.47238C16.7363 7.56735 16.7534 7.66338 16.7691 7.76056L17.0653 7.71267C17.0491 7.61242 17.0313 7.51248 17.0112 7.41297L16.7171 7.47238ZM16.7672 7.73662C16.7672 7.74552 16.7679 7.75281 16.7685 7.75743C16.769 7.76172 16.7697 7.76548 16.7697 7.7657L17.0656 7.71638C17.0654 7.71512 17.0658 7.71741 17.0662 7.72022C17.0666 7.72337 17.0672 7.72919 17.0672 7.73662H16.7672ZM17.0668 7.72447L17.0663 7.72005L16.7681 7.75318L16.7686 7.7576L17.0668 7.72447ZM16.7691 7.76032C16.7768 7.80842 16.784 7.85697 16.7911 7.90587L17.088 7.86303C17.0808 7.81322 17.0733 7.76304 17.0653 7.71292L16.7691 7.76032ZM16.7908 7.90385C16.7922 7.91488 16.7939 7.92777 16.7959 7.9409L17.0925 7.89577C17.0911 7.88632 17.0898 7.87661 17.0883 7.86505L16.7908 7.90385ZM16.7955 7.9381C16.8007 7.97706 16.8057 8.01488 16.8102 8.05278L17.1081 8.01718C17.1033 7.97699 17.098 7.93721 17.0929 7.89857L16.7955 7.9381ZM16.8104 8.05398C16.8127 8.07236 16.8116 8.06571 16.8145 8.0887L17.1122 8.05149C17.1121 8.05091 17.1086 8.02069 17.108 8.01599L16.8104 8.05398ZM16.8144 8.08771C16.8255 8.18142 16.8349 8.27562 16.8426 8.37032L17.1416 8.34598C17.1336 8.24766 17.1238 8.14983 17.1123 8.05248L16.8144 8.08771ZM16.8425 8.36899L16.8437 8.38593L17.1429 8.36425L17.1417 8.34731L16.8425 8.36899ZM16.8437 8.38578C16.844 8.39061 16.8445 8.39535 16.8447 8.39855C16.8451 8.4022 16.8453 8.40449 16.8454 8.40653L17.1447 8.38589C17.1443 8.38081 17.1439 8.37598 17.1436 8.37257C17.1433 8.36871 17.1431 8.36646 17.1429 8.36441L16.8437 8.38578ZM16.8454 8.40729C16.8484 8.44723 16.8513 8.48607 16.8537 8.52499L17.1531 8.50662C17.1506 8.46549 17.1476 8.42476 17.1446 8.38513L16.8454 8.40729ZM16.8535 8.52246C16.8541 8.53538 16.855 8.54821 16.8557 8.55918L17.155 8.53922C17.1543 8.52809 17.1536 8.51833 17.1532 8.50914L16.8535 8.52246ZM16.8556 8.55784C16.8578 8.59546 16.8597 8.63326 16.8611 8.67059L17.1609 8.65913C17.1594 8.61936 17.1574 8.57956 17.1551 8.54056L16.8556 8.55784ZM16.8611 8.67063C16.8614 8.67785 16.8617 8.68496 16.862 8.69122C16.8623 8.69773 16.8626 8.70339 16.8628 8.70894L17.1626 8.69741C17.1623 8.69018 17.162 8.68308 17.1617 8.67681C17.1614 8.67031 17.1611 8.66464 17.1609 8.6591L16.8611 8.67063ZM16.8628 8.70869C16.8643 8.74806 16.8655 8.78795 16.8664 8.82787L17.1664 8.8206C17.1654 8.77948 17.1641 8.73833 17.1626 8.69765L16.8628 8.70869ZM16.8664 8.82772C16.8679 8.88991 16.8686 8.95235 16.8686 9.0148H17.1686C17.1686 8.95004 17.1679 8.88527 17.1664 8.82075L16.8664 8.82772ZM17.1686 9.0133L17.1671 8.86547L16.8671 8.86846L16.8686 9.01629L17.1686 9.0133ZM16.8672 8.86996C16.8681 8.91807 16.8686 8.96643 16.8686 9.0148H17.1686C17.1686 8.96444 17.1681 8.91409 17.1671 8.86397L16.8672 8.86996ZM16.8686 9.0148C16.8686 9.05697 16.8684 9.09854 16.8677 9.13989L17.1676 9.14509C17.1684 9.10148 17.1686 9.05808 17.1686 9.0148H16.8686ZM16.8676 9.14024C16.8667 9.20408 16.8648 9.26795 16.8623 9.33204L17.1621 9.3434C17.1646 9.27782 17.1666 9.21155 17.1676 9.14475L16.8676 9.14024ZM16.8623 9.33172C16.8616 9.35024 16.8609 9.36741 16.86 9.38438L17.1596 9.40058C17.1606 9.3812 17.1614 9.36203 17.1621 9.34371L16.8623 9.33172ZM16.8599 9.38693C16.8594 9.39865 16.8588 9.41084 16.858 9.42458L17.1576 9.44092C17.1583 9.42765 17.1591 9.41283 17.1597 9.39803L16.8599 9.38693ZM16.858 9.42473C16.8565 9.45241 16.8551 9.47948 16.8534 9.50648L17.1529 9.52503C17.1546 9.49653 17.1561 9.46811 17.1576 9.44078L16.858 9.42473ZM16.8534 9.50628C16.8522 9.52568 16.851 9.54508 16.8498 9.56448L17.1492 9.58343C17.1504 9.56403 17.1516 9.54463 17.1528 9.52523L16.8534 9.50628ZM16.85 9.56096C16.8489 9.57427 16.848 9.58755 16.8473 9.59878L17.1467 9.61789C17.1475 9.60603 17.1481 9.59623 17.1489 9.58695L16.85 9.56096ZM16.8474 9.59683C16.845 9.62894 16.8426 9.66047 16.8399 9.6917L17.1389 9.717C17.1416 9.68438 17.1441 9.65157 17.1466 9.61984L16.8474 9.59683ZM16.8401 9.68942C16.8385 9.70547 16.8372 9.72108 16.836 9.73539L17.1349 9.76073C17.1362 9.74607 17.1373 9.7327 17.1386 9.71928L16.8401 9.68942ZM16.8361 9.73475C16.8339 9.75878 16.8315 9.78316 16.8291 9.80832L17.1276 9.83759C17.1301 9.81266 17.1326 9.78695 17.1349 9.76137L16.8361 9.73475ZM16.8293 9.80602C16.8286 9.8123 16.828 9.81839 16.8274 9.82361C16.8269 9.82907 16.8264 9.83366 16.8259 9.83819L17.1239 9.87206C17.1247 9.86579 17.1253 9.8597 17.1258 9.85448C17.1264 9.84902 17.1269 9.84443 17.1274 9.8399L16.8293 9.80602ZM16.8257 9.83971C16.8043 10.0471 16.7746 10.2521 16.7371 10.4542L17.032 10.509C17.0711 10.299 17.1018 10.086 17.1241 9.87055L16.8257 9.83971ZM16.7374 10.4522C16.7335 10.4717 16.7299 10.491 16.7265 10.5093L17.0214 10.5643C17.0249 10.5458 17.0282 10.5283 17.0316 10.511L16.7374 10.4522ZM16.7265 10.5095C16.7222 10.5324 16.7177 10.5555 16.7131 10.5789L17.0074 10.6372C17.0121 10.6135 17.0169 10.5889 17.0215 10.5642L16.7265 10.5095ZM16.7141 10.5743C16.7107 10.5888 16.7074 10.6052 16.7054 10.6151L16.9989 10.6771C17.0022 10.6615 17.0038 10.6528 17.0064 10.6418L16.7141 10.5743ZM16.7052 10.6157C16.4296 11.949 15.816 13.1588 14.9575 14.1517L15.1845 14.3479C16.0755 13.3173 16.7128 12.0612 16.999 10.6765L16.7052 10.6157ZM14.9584 14.1507C14.9501 14.1602 14.9419 14.1696 14.9338 14.1788C14.9258 14.188 14.9179 14.197 14.91 14.206L15.1352 14.4042C15.1436 14.3947 15.1518 14.3853 15.1598 14.3761C15.1679 14.3669 15.1757 14.3579 15.1836 14.3489L14.9584 14.1507ZM14.9093 14.2068C14.8971 14.2208 14.8847 14.2349 14.8721 14.2489L15.0951 14.4496C15.109 14.4342 15.1226 14.4187 15.136 14.4033L14.9093 14.2068ZM14.8721 14.2489C14.8611 14.2612 14.85 14.2735 14.839 14.2857L15.0619 14.4864C15.073 14.4742 15.084 14.4619 15.0951 14.4496L14.8721 14.2489ZM14.8392 14.2855C14.798 14.331 14.7562 14.3762 14.714 14.4208L14.932 14.6269C14.9757 14.5807 15.0189 14.534 15.0617 14.4867L14.8392 14.2855ZM14.7149 14.4199C14.7084 14.4267 14.7019 14.4335 14.6956 14.44C14.6893 14.4466 14.6833 14.4529 14.6773 14.4591L14.8935 14.6672C14.9001 14.6604 14.9066 14.6535 14.9128 14.647C14.9191 14.6404 14.9251 14.6341 14.9311 14.6279L14.7149 14.4199ZM14.6772 14.4593C14.6663 14.4707 14.6552 14.4819 14.6436 14.4938L14.858 14.7037C14.8694 14.692 14.8815 14.6797 14.8937 14.667L14.6772 14.4593ZM14.6432 14.4942C13.7226 15.4416 12.5645 16.1579 11.2626 16.5463L11.3484 16.8337C12.7005 16.4304 13.9029 15.6866 14.8584 14.7033L14.6432 14.4942ZM11.2673 16.5449C11.2594 16.547 11.252 16.5493 11.2461 16.5511L11.3364 16.8372C11.3398 16.8361 11.3422 16.8354 11.3437 16.8351L11.2673 16.5449ZM11.2482 16.5505C11.1753 16.5723 11.1015 16.593 11.0274 16.6125L11.1037 16.9026C11.1809 16.8823 11.2579 16.8607 11.3343 16.8379L11.2482 16.5505ZM11.0274 16.6125C11.0256 16.613 11.0237 16.6134 11.0212 16.6141C11.0189 16.6147 11.016 16.6154 11.0132 16.6162L11.0895 16.9063C11.0913 16.9058 11.0932 16.9053 11.0957 16.9047C11.098 16.9041 11.1009 16.9034 11.1037 16.9026L11.0274 16.6125ZM11.0132 16.6161C10.9796 16.625 10.9467 16.6336 10.914 16.6416L10.9858 16.9329C11.0209 16.9242 11.0557 16.9152 11.0894 16.9063L11.0132 16.6161ZM10.9147 16.6414C10.9076 16.6432 10.9005 16.6449 10.8933 16.6466L10.9637 16.9382C10.9709 16.9365 10.978 16.9348 10.9851 16.9331L10.9147 16.6414ZM10.9637 16.9382L10.9851 16.9331L10.9147 16.6414L10.8933 16.6466L10.9637 16.9382ZM10.9138 16.6417C10.8778 16.6506 10.8418 16.6593 10.8058 16.6677L10.8744 16.9598C10.9116 16.9511 10.9489 16.9421 10.9861 16.9328L10.9138 16.6417ZM10.807 16.6675C10.794 16.6704 10.781 16.6734 10.768 16.6763L10.8342 16.9689C10.8472 16.966 10.8602 16.963 10.8733 16.9601L10.807 16.6675ZM10.7678 16.6763C10.7516 16.68 10.7356 16.6837 10.7195 16.6873L10.785 16.98C10.8017 16.9763 10.8182 16.9726 10.8343 16.9689L10.7678 16.6763ZM10.7195 16.6873C10.6833 16.6954 10.6468 16.703 10.609 16.7109L10.6705 17.0046C10.7079 16.9967 10.7465 16.9887 10.785 16.98L10.7195 16.6873ZM10.6095 16.7108C10.584 16.7161 10.5602 16.721 10.536 16.7258L10.5937 17.0202C10.6196 17.0151 10.6454 17.0097 10.67 17.0047L10.6095 16.7108ZM10.539 16.7252C10.5273 16.7272 10.5155 16.7296 10.5064 16.7314L10.5639 17.0258C10.5749 17.0237 10.5827 17.0221 10.5907 17.0207L10.539 16.7252ZM10.5066 16.7313C10.4448 16.7433 10.3824 16.7544 10.3192 16.7651L10.369 17.0609C10.434 17.05 10.4988 17.0384 10.5637 17.0259L10.5066 16.7313ZM10.3698 17.0608L10.4727 17.0428L10.4212 16.7473L10.3183 16.7652L10.3698 17.0608ZM10.4203 16.7474C10.3773 16.7552 10.3348 16.7627 10.2922 16.7696L10.3405 17.0657C10.3853 17.0584 10.4297 17.0506 10.4737 17.0427L10.4203 16.7474ZM10.2033 17.0162L10.2401 17.0585L10.4662 16.8613L10.4294 16.8191L10.2033 17.0162ZM10.2414 17.0599C11.4726 18.4363 13.2298 19.2628 15.13 19.2939L15.1349 18.994C13.3196 18.9642 11.6413 18.1749 10.465 16.8599L10.2414 17.0599ZM15.1311 19.294L15.2403 19.2949L15.243 18.995L15.1338 18.994L15.1311 19.294ZM15.2417 19.2949C16.151 19.2949 17.0355 19.1134 17.8561 18.7656L17.739 18.4894C16.9555 18.8214 16.1108 18.9949 15.2417 18.9949V19.2949ZM17.8562 18.7656C17.9364 18.7315 18.0274 18.7327 18.1073 18.769L18.2314 18.4959C18.0755 18.4251 17.8969 18.4224 17.7389 18.4895L17.8562 18.7656ZM18.1072 18.769L20.5779 19.8937L20.7021 19.6206L18.2315 18.4959L18.1072 18.769ZM20.79 19.7538L20.7195 16.5632L20.4196 16.5698L20.49 19.7605L20.79 19.7538ZM20.7195 16.5633C20.7183 16.5077 20.7318 16.4533 20.7585 16.4051L20.496 16.2598C20.4436 16.3545 20.4173 16.4612 20.4196 16.5696L20.7195 16.5633ZM20.7549 16.4112L20.7762 16.3766L20.5209 16.2191L20.4996 16.2537L20.7549 16.4112ZM20.7729 16.3818L20.8404 16.2819L20.5918 16.1139L20.5243 16.2139L20.7729 16.3818ZM20.8412 16.2807C21.5617 15.1925 21.9515 13.9182 21.9515 12.5851H21.6515C21.6515 13.859 21.2792 15.0757 20.591 16.1151L20.8412 16.2807ZM21.9515 12.5851C21.9515 9.33572 19.6341 6.60372 16.5346 5.99958L16.4772 6.29404C19.4377 6.87108 21.6515 9.48116 21.6515 12.5851H21.9515ZM16.5349 5.99965L16.5175 5.99621L16.4594 6.29054L16.4768 6.29398L16.5349 5.99965ZM9.00992 1.78067C5.01349 1.78067 1.77456 5.01931 1.77456 9.0148H2.07456C2.07456 5.18503 5.17913 2.08067 9.00992 2.08067V1.78067ZM1.77456 9.0148C1.77456 10.4957 2.22149 11.9105 3.04347 13.1078L3.2908 12.9381C2.50284 11.7903 2.07456 10.4346 2.07456 9.0148H1.77456ZM3.04344 13.1078L3.12767 13.2306L3.37506 13.0609L3.29083 12.9381L3.04344 13.1078ZM3.1014 13.1424L3.02183 16.7741L3.32176 16.7807L3.40133 13.149L3.1014 13.1424ZM3.23395 16.9139L6.1233 15.5984L5.99899 15.3254L3.10964 16.6409L3.23395 16.9139ZM6.00276 15.6001L6.18988 15.6792L6.30666 15.4028L6.11953 15.3238L6.00276 15.6001ZM6.18976 15.6791C7.07443 16.0539 8.02823 16.2492 9.00992 16.2492V15.9492C8.06833 15.9492 7.15434 15.7619 6.30677 15.4029L6.18976 15.6791ZM9.00992 16.2492C9.15623 16.2492 9.30195 16.2449 9.44632 16.2361L9.42809 15.9367C9.29006 15.9451 9.15043 15.9492 9.00992 15.9492V16.2492ZM9.44577 16.2362C9.47245 16.2346 9.49873 16.2329 9.524 16.2311L9.50365 15.9318C9.47833 15.9336 9.45353 15.9352 9.42865 15.9366L9.44577 16.2362ZM9.50423 15.9318L9.42761 15.9367L9.4468 16.2361L9.52342 16.2312L9.50423 15.9318ZM9.4459 16.2362C9.48457 16.2339 9.52368 16.2314 9.5628 16.2283L9.5395 15.9292C9.50298 15.9321 9.46597 15.9345 9.42851 15.9367L9.4459 16.2362ZM9.54032 15.9292L9.503 15.9319L9.52465 16.2311L9.56198 16.2284L9.54032 15.9292ZM9.52494 16.2311C9.56111 16.2284 9.5985 16.2256 9.63583 16.2223L9.6094 15.9235C9.57452 15.9266 9.53923 15.9292 9.50271 15.9319L9.52494 16.2311ZM9.61028 15.9234L9.53882 15.9293L9.56348 16.2283L9.63494 16.2224L9.61028 15.9234ZM9.56242 16.2284C9.59901 16.2256 9.63532 16.2226 9.67161 16.2194L9.64482 15.9205C9.6099 15.9237 9.575 15.9266 9.53988 15.9292L9.56242 16.2284ZM9.64585 15.9205L9.61024 15.9234L9.63498 16.2224L9.67059 16.2194L9.64585 15.9205ZM9.63528 16.2224C9.75067 16.2126 9.86533 16.2 9.97926 16.1847L9.93931 15.8874C9.83027 15.902 9.72048 15.9141 9.60994 15.9234L9.63528 16.2224ZM9.97789 16.1849C9.99494 16.1828 10.0118 16.1804 10.0273 16.1782L9.98555 15.8811C9.96964 15.8834 9.95506 15.8854 9.94068 15.8872L9.97789 16.1849ZM9.98631 15.881L9.93916 15.8874L9.97941 16.1847L10.0266 16.1783L9.98631 15.881ZM9.97932 16.1847C10.0146 16.18 10.05 16.1749 10.0852 16.1697L10.0407 15.873C10.0071 15.878 9.97319 15.8828 9.93925 15.8874L9.97932 16.1847ZM10.041 15.8729L9.9845 15.8813L10.0284 16.1781L10.0848 16.1697L10.041 15.8729ZM10.0272 16.1782C10.067 16.1727 10.1063 16.1666 10.1444 16.1607L10.0988 15.8642C10.0603 15.8702 10.023 15.8759 9.98562 15.8811L10.0272 16.1782ZM10.0993 15.8642L10.0406 15.873L10.0853 16.1697L10.1439 16.1608L10.0993 15.8642ZM10.0844 16.1698C10.1246 16.164 10.1647 16.1577 10.2041 16.1511L10.1551 15.8552C10.1173 15.8614 10.0793 15.8674 10.0414 15.8729L10.0844 16.1698ZM10.1557 15.8551L10.0978 15.8644L10.1455 16.1606L10.2034 16.1512L10.1557 15.8551ZM10.1448 16.1607C10.1783 16.1554 10.2126 16.1498 10.247 16.1437L10.1941 15.8484C10.1627 15.854 10.1307 15.8592 10.0984 15.8643L10.1448 16.1607ZM10.1949 15.8482L10.1539 15.8554L10.2052 16.1509L10.2462 16.1438L10.1949 15.8482ZM10.2044 16.1511C10.2402 16.1451 10.2757 16.1388 10.3104 16.1327L10.258 15.8373C10.2234 15.8434 10.1891 15.8495 10.1547 15.8552L10.2044 16.1511ZM10.2585 15.8372L10.1949 15.8482L10.2462 16.1438L10.3098 16.1328L10.2585 15.8372ZM10.2455 16.1439C10.2907 16.1363 10.3354 16.128 10.3787 16.1199L10.3237 15.825C10.28 15.8331 10.2379 15.841 10.1956 15.8481L10.2455 16.1439ZM10.3237 15.825L10.2566 15.8375L10.3117 16.1324L10.3788 16.1199L10.3237 15.825ZM10.3113 16.1325C10.348 16.1258 10.3848 16.1188 10.4214 16.1115L10.363 15.8172C10.3279 15.8242 10.2925 15.8309 10.2571 15.8375L10.3113 16.1325ZM10.3631 15.8172L10.3221 15.8253L10.3803 16.1196L10.4213 16.1115L10.3631 15.8172ZM10.38 16.1197C10.4232 16.1112 10.4666 16.1025 10.5097 16.0935L10.4486 15.7998C10.4068 15.8085 10.3646 15.817 10.3224 15.8252L10.38 16.1197ZM10.4493 15.7997L10.3623 15.8174L10.4221 16.1113L10.509 16.0937L10.4493 15.7997ZM10.4207 16.1116C10.4576 16.1045 10.4939 16.0969 10.5289 16.0896L10.4677 15.7959C10.432 15.8033 10.3981 15.8105 10.3638 15.8171L10.4207 16.1116ZM10.4682 15.7958L10.449 15.7997L10.5093 16.0936L10.5284 16.0897L10.4682 15.7958ZM10.5101 16.0934C11.9769 15.7839 13.2799 15.0303 14.2715 13.9798L14.0533 13.7738C13.1025 14.7812 11.8535 15.5034 10.4482 15.7999L10.5101 16.0934ZM14.2712 13.9801C14.2787 13.9722 14.2861 13.9643 14.2929 13.9569C14.2999 13.9494 14.3064 13.9425 14.3129 13.9357L14.0954 13.729C14.0879 13.7369 14.0805 13.7448 14.0737 13.7522C14.0667 13.7597 14.0602 13.7666 14.0537 13.7735L14.2712 13.9801ZM14.0948 13.7296L14.0531 13.7741L14.2718 13.9795L14.3135 13.935L14.0948 13.7296ZM14.2715 13.9798C14.2968 13.9529 14.3223 13.9256 14.3478 13.8976L14.1258 13.6958C14.1022 13.7218 14.0781 13.7476 14.0534 13.7738L14.2715 13.9798ZM14.1263 13.6953L14.0936 13.7309L14.3147 13.9337L14.3474 13.8981L14.1263 13.6953ZM14.3143 13.9341C14.3417 13.9045 14.3687 13.8748 14.3953 13.8452L14.1722 13.6446C14.1462 13.6735 14.1202 13.7022 14.094 13.7306L14.3143 13.9341ZM14.1725 13.6443L14.1256 13.6961L14.348 13.8974L14.3949 13.8456L14.1725 13.6443ZM14.347 13.8985C14.3716 13.8719 14.3959 13.8445 14.4185 13.8192L14.1951 13.619C14.1711 13.6458 14.1492 13.6705 14.1266 13.695L14.347 13.8985ZM14.1951 13.6191L14.172 13.6449L14.3955 13.845L14.4186 13.8192L14.1951 13.6191ZM14.3953 13.8451C14.4173 13.8207 14.4392 13.796 14.4611 13.7708L14.2346 13.5741C14.2142 13.5976 14.1934 13.621 14.1721 13.6447L14.3953 13.8451ZM14.2352 13.5734L14.1941 13.6201L14.4195 13.8182L14.4605 13.7715L14.2352 13.5734ZM14.4189 13.8188C14.4428 13.7919 14.4669 13.7646 14.4908 13.7365L14.2628 13.5416C14.2406 13.5676 14.218 13.5933 14.1947 13.6195L14.4189 13.8188ZM14.2635 13.5408L14.2345 13.5742L14.4611 13.7708L14.4901 13.7374L14.2635 13.5408ZM14.4608 13.7711C15.4064 12.6877 16.0336 11.3204 16.1999 9.81785L15.9017 9.78485C15.7424 11.2247 15.1414 12.5351 14.2348 13.5738L14.4608 13.7711ZM16.1999 9.81791C16.2026 9.79358 16.2054 9.7683 16.2079 9.74285L15.9094 9.713C15.9071 9.73666 15.9044 9.7605 15.9017 9.78478L16.1999 9.81791ZM15.9095 9.71196L15.9017 9.78539L16.2 9.81731L16.2078 9.74389L15.9095 9.71196ZM16.1999 9.81765C16.212 9.70776 16.2217 9.59704 16.229 9.48575L15.9296 9.4662C15.9227 9.57296 15.9133 9.67933 15.9017 9.78505L16.1999 9.81765ZM16.229 9.48554C16.2333 9.4191 16.2368 9.35198 16.2391 9.28457L15.9392 9.27446C15.9371 9.33819 15.9337 9.40221 15.9296 9.4664L16.229 9.48554ZM16.239 9.28496C16.2423 9.19536 16.2441 9.10539 16.2441 9.0148H15.9441C15.9441 9.10151 15.9424 9.18785 15.9392 9.27407L16.239 9.28496ZM16.2441 9.0148C16.2441 8.88345 16.2405 8.75257 16.2335 8.6224L15.934 8.63856C15.9407 8.7633 15.9441 8.88879 15.9441 9.0148H16.2441ZM16.2335 8.6227C16.2326 8.60387 16.2315 8.58423 16.2302 8.5644L15.9309 8.5841C15.932 8.60159 15.933 8.61928 15.9339 8.63827L16.2335 8.6227ZM15.9308 8.58275L15.934 8.63898L16.2335 8.62198L16.2303 8.56575L15.9308 8.58275ZM16.2335 8.62276C16.231 8.57407 16.228 8.52561 16.2245 8.47739L15.9253 8.49921C15.9287 8.54529 15.9315 8.59162 15.9339 8.63821L16.2335 8.62276ZM15.9252 8.49814L15.9309 8.58408L16.2302 8.56441L16.2246 8.47846L15.9252 8.49814ZM16.2303 8.56512C16.2185 8.37172 16.1989 8.18066 16.1724 7.99197L15.8753 8.03379C15.9008 8.21493 15.9195 8.39812 15.9308 8.58338L16.2303 8.56512ZM16.1723 7.99193C16.1697 7.97297 16.1668 7.95273 16.1637 7.93257L15.8673 7.97876C15.87 7.99641 15.8726 8.01448 15.8753 8.03383L16.1723 7.99193ZM15.867 7.97732L15.8754 8.03454L16.1722 7.99122L16.1639 7.934L15.867 7.97732ZM16.1723 7.99188C16.145 7.79849 16.1099 7.60737 16.0675 7.41928L15.7748 7.48522C15.8155 7.66548 15.8491 7.84861 15.8753 8.03388L16.1723 7.99188ZM16.0676 7.41991C16.0636 7.40158 16.0592 7.3812 16.0545 7.36113L15.7623 7.42942C15.7665 7.44718 15.7704 7.4651 15.7747 7.48459L16.0676 7.41991ZM15.762 7.42809L15.7748 7.48506L16.0675 7.41944L16.0548 7.36247L15.762 7.42809ZM16.0675 7.41905C16.0596 7.38439 16.0515 7.34905 16.0429 7.31347L15.7513 7.38427C15.7594 7.41745 15.767 7.45086 15.7749 7.48545L16.0675 7.41905ZM15.7514 7.38434L15.7627 7.43075L16.0541 7.35981L16.0429 7.31339L15.7514 7.38434ZM16.0545 7.36108C16.0451 7.32126 16.0353 7.28159 16.0258 7.24293L15.7345 7.31483C15.7441 7.35377 15.7535 7.3917 15.7624 7.42948L16.0545 7.36108ZM15.7344 7.31418L15.7513 7.38416L16.0429 7.31357L16.026 7.24358L15.7344 7.31418ZM16.0428 7.31323C16.0316 7.26743 16.0202 7.22193 16.0085 7.17649L15.7179 7.25112C15.7293 7.29556 15.7405 7.33994 15.7514 7.3845L16.0428 7.31323ZM15.7181 7.2516L15.735 7.31668L16.0253 7.24108L16.0084 7.17601L15.7181 7.2516ZM16.0256 7.24225C16.0169 7.20751 16.0077 7.17222 15.998 7.1369L15.7088 7.21655C15.7177 7.249 15.7263 7.28199 15.7347 7.31551L16.0256 7.24225ZM15.7084 7.21513L15.7182 7.25221L16.0082 7.17539L15.9984 7.13831L15.7084 7.21513ZM16.0083 7.17572C15.9123 6.80983 15.7884 6.45496 15.6389 6.11386L15.3641 6.23428C15.5073 6.56113 15.6261 6.90121 15.7181 7.25189L16.0083 7.17572ZM15.6395 6.11526C15.6326 6.09904 15.6255 6.08309 15.6186 6.06782L15.3451 6.19093C15.3515 6.20514 15.3576 6.21914 15.3635 6.23289L15.6395 6.11526ZM15.3445 6.18974L15.3642 6.23443L15.6388 6.11371L15.6192 6.06902L15.3445 6.18974ZM15.6389 6.11391C15.6203 6.07131 15.6012 6.02915 15.582 5.9875L15.3095 6.11311C15.3281 6.15348 15.3464 6.19383 15.3641 6.23424L15.6389 6.11391ZM15.5858 5.99646C15.5832 5.98971 15.5804 5.98323 15.5778 5.97762L15.3054 6.10334L15.3058 6.10415L15.5858 5.99646ZM15.3035 6.09915L15.3077 6.10898L15.5838 5.99163L15.5796 5.98181L15.3035 6.09915ZM15.582 5.98746C14.4364 3.50445 11.9246 1.78067 9.00992 1.78067V2.08067C11.8032 2.08067 14.2112 3.73245 15.3096 6.11315L15.582 5.98746ZM9.05486 12.24C9.29117 12.24 9.48268 12.4316 9.48268 12.6681H9.78268C9.78268 12.2661 9.45702 11.94 9.05486 11.94V12.24ZM9.48268 12.6681C9.48268 12.9043 9.29121 13.0959 9.05486 13.0959V13.3959C9.45698 13.3959 9.78268 13.0699 9.78268 12.6681H9.48268ZM9.05486 13.0959C8.81851 13.0959 8.62704 12.9043 8.62704 12.6681H8.32704C8.32704 13.0699 8.65274 13.3959 9.05486 13.3959V13.0959ZM8.62704 12.6681C8.62704 12.4316 8.81855 12.24 9.05486 12.24V11.94C8.6527 11.94 8.32704 12.2661 8.32704 12.6681H8.62704ZM10.47 8.8531L10.4228 8.89927L10.6327 9.11362L10.6799 9.06746L10.47 8.8531ZM10.4247 8.89748C10.3538 8.96457 10.2868 9.03284 10.2235 9.10255L10.4456 9.30423C10.5036 9.24036 10.5652 9.1775 10.6309 9.11541L10.4247 8.89748ZM10.2236 9.1024C9.85152 9.51106 9.61652 9.94447 9.49077 10.3803L9.77901 10.4635C9.89146 10.0737 10.1029 9.68056 10.4454 9.30438L10.2236 9.1024ZM9.49075 10.3804C9.42824 10.5975 9.40059 10.7824 9.39513 10.9193L9.69489 10.9313C9.69926 10.8217 9.7222 10.6608 9.77903 10.4634L9.49075 10.3804ZM9.39502 10.9243L9.39452 10.999L9.69452 11.001L9.69501 10.9263L9.39502 10.9243ZM9.39456 11.0032L9.39529 11.0378L9.69522 11.0314L9.69449 10.9968L9.39456 11.0032ZM9.39526 11.0334C9.39363 11.2376 9.24234 11.399 9.05847 11.4114L9.07875 11.7107C9.43121 11.6869 9.69247 11.3846 9.69525 11.0358L9.39526 11.0334ZM9.05834 11.4114C8.87482 11.424 8.70592 11.2854 8.679 11.0842L8.38165 11.124C8.42791 11.4699 8.72559 11.735 9.07888 11.7107L9.05834 11.4114ZM8.67978 11.0913L8.67487 11.0338L8.37596 11.0594L8.38087 11.1169L8.67978 11.0913ZM8.67526 11.0398L8.67477 11.029L8.37508 11.0426L8.37557 11.0534L8.67526 11.0398ZM8.67485 11.0311C8.66804 10.8157 8.69888 10.5149 8.80239 10.156L8.51414 10.0729C8.40303 10.4581 8.36708 10.7903 8.375 11.0406L8.67485 11.0311ZM8.80239 10.156C8.95967 9.61061 9.25088 9.07068 9.70628 8.57036L9.48442 8.36842C8.99881 8.90194 8.68445 9.48229 8.51414 10.0729L8.80239 10.156ZM9.70632 8.57032C9.75644 8.51521 9.80857 8.46069 9.86251 8.40675L9.65038 8.19462C9.59332 8.25168 9.5379 8.30963 9.48438 8.36847L9.70632 8.57032ZM9.86095 8.4083L9.94591 8.32579L9.73691 8.11057L9.65195 8.19308L9.86095 8.4083ZM9.9447 8.32695C10.4389 7.85766 10.5592 7.22907 10.3848 6.72928C10.2089 6.22485 9.73375 5.86142 9.08294 5.94044L9.11911 6.23826C9.62099 6.17731 9.96903 6.44818 10.1016 6.8281C10.2357 7.21266 10.1498 7.71847 9.73812 8.1094L9.9447 8.32695ZM9.08293 5.94045C8.49293 6.01215 8.0963 6.27877 7.84099 6.69338L8.09644 6.85068C8.30083 6.51876 8.61389 6.29965 9.11912 6.23826L9.08293 5.94045ZM7.84102 6.69332C7.73582 6.864 7.6623 7.04911 7.6158 7.23272L7.90662 7.30637C7.94656 7.14865 8.00908 6.99242 8.09641 6.85073L7.84102 6.69332ZM7.61514 7.23545L7.59697 7.31329L7.88911 7.38149L7.90728 7.30365L7.61514 7.23545ZM7.59565 7.31954L7.58386 7.38191L7.87864 7.43762L7.89043 7.37525L7.59565 7.31954ZM7.58291 7.38752L7.57628 7.43172L7.87296 7.47622L7.87959 7.43202L7.58291 7.38752ZM7.57514 7.44151L7.57391 7.45625L7.87287 7.48116L7.8741 7.46643L7.57514 7.44151ZM7.57379 7.45781C7.55801 7.67454 7.37997 7.82532 7.18816 7.81007L7.16437 8.10912C7.53443 8.13856 7.84605 7.84977 7.873 7.4796L7.57379 7.45781ZM7.18803 7.81005C6.99533 7.79489 6.84004 7.61633 6.85586 7.39905L6.55665 7.37727C6.52974 7.74689 6.79535 8.08009 7.1645 8.10913L7.18803 7.81005ZM6.85587 7.39882C6.86151 7.31965 6.88016 7.19347 6.92065 7.03385L6.62986 6.96008C6.58588 7.13345 6.56376 7.2774 6.55663 7.3775L6.85587 7.39882ZM6.92066 7.03381C6.98632 6.7747 7.0893 6.51695 7.23868 6.27432L6.98322 6.11704C6.81631 6.38814 6.70221 6.67457 6.62985 6.96013L6.92066 7.03381ZM7.23866 6.27435C7.60515 5.67936 8.18634 5.27926 9.00127 5.1801L8.96504 4.8823C8.0605 4.99236 7.39814 5.4434 6.98323 6.11701L7.23866 6.27435ZM9.00126 5.1801C10.0121 5.05721 10.733 5.61076 11.0292 6.37729C11.3272 7.14847 11.1928 8.13318 10.4691 8.854L10.6808 9.06656C11.4926 8.25799 11.6479 7.14616 11.309 6.26915C10.9683 5.3875 10.1256 4.7412 8.96505 4.8823L9.00126 5.1801Z" fill="#8C8E98" mask="url(#path-2-outside-1_14_1442)"/>
</g>
</svg>
