<svg width="20" height="20" viewBox="0 0 20 20" fill="none" xmlns="http://www.w3.org/2000/svg">
<path d="M10 15.625C9.65833 15.625 9.375 15.3417 9.375 15V12.5C9.375 12.1583 9.65833 11.875 10 11.875C10.3417 11.875 10.625 12.1583 10.625 12.5V15C10.625 15.3417 10.3417 15.625 10 15.625Z" fill="#8C8E98"/>
<path d="M14.6667 18.8H5.33333C3.81667 18.8 2.43333 17.6333 2.18333 16.1417L1.075 9.50001C0.891666 8.46668 1.4 7.14168 2.225 6.48335L8 1.85835C9.11667 0.958348 10.875 0.966681 12 1.86668L17.775 6.48335C18.5917 7.14168 19.0917 8.46668 18.925 9.50001L17.8167 16.1333C17.5667 17.6083 16.15 18.8 14.6667 18.8ZM9.99167 2.44168C9.55 2.44168 9.10833 2.57501 8.78333 2.83335L3.00833 7.46668C2.54167 7.84168 2.20833 8.70835 2.30833 9.30001L3.41667 15.9333C3.56667 16.8083 4.44167 17.55 5.33333 17.55H14.6667C15.5583 17.55 16.4333 16.8083 16.5833 15.925L17.6917 9.29168C17.7833 8.70835 17.45 7.82501 16.9917 7.45835L11.2167 2.84168C10.8833 2.57501 10.4333 2.44168 9.99167 2.44168Z" fill="#8C8E98"/>
</svg>
