<svg width="20" height="23" viewBox="0 0 20 23" fill="none" xmlns="http://www.w3.org/2000/svg">
<mask id="mask0_14_1450" style="mask-type:luminance" maskUnits="userSpaceOnUse" x="0" y="0" width="20" height="23">
<path d="M0 0H20V22.9935H0V0Z" fill="white"/>
</mask>
<g mask="url(#mask0_14_1450)">
<mask id="path-2-outside-1_14_1450" maskUnits="userSpaceOnUse" x="-1" y="-0.982178" width="22" height="25" fill="black">
<rect fill="white" x="-1" y="-0.982178" width="22" height="25"/>
<path d="M2.25145 7.96658V5.52329C2.25145 5.36557 2.37956 5.23723 2.53728 5.23723H4.08555C4.24327 5.23723 4.37161 5.36557 4.37161 5.52329C4.37161 5.68101 4.24327 5.80935 4.08555 5.80935H2.82335V7.68074H4.69473V6.70302C4.69473 6.5453 4.82285 6.41695 4.98079 6.41695C5.13851 6.41695 5.26663 6.5453 5.26663 6.70302V7.96658C5.26663 8.12452 5.13851 8.25264 4.98079 8.25264H2.53728C2.37911 8.25264 2.25145 8.12452 2.25145 7.96658ZM7.2162 6.3512H11.9557C12.1134 6.3512 12.2417 6.22308 12.2417 6.06536C12.2417 5.90742 12.1134 5.7793 11.9557 5.7793H7.2162C7.05848 5.7793 6.93036 5.90742 6.93036 6.06536C6.93036 6.22308 7.05803 6.3512 7.2162 6.3512ZM3.54121 6.39413C3.42959 6.28274 3.2486 6.28274 3.13652 6.39413C3.0249 6.50576 3.0249 6.68675 3.13652 6.79882L3.52879 7.19109C3.58257 7.24509 3.6551 7.27514 3.73102 7.27514C3.73192 7.27514 3.73283 7.27514 3.73418 7.27514C3.81101 7.27401 3.88445 7.24215 3.93777 7.18679L5.20992 5.85613C5.31905 5.74157 5.31476 5.56103 5.20088 5.45189C5.08654 5.34275 4.90578 5.34704 4.79664 5.46093L3.72673 6.5801L3.54121 6.39413ZM6.02404 7.68978H11.9557C12.1134 7.68978 12.2417 7.56143 12.2417 7.40371C12.2417 7.246 12.1134 7.11765 11.9557 7.11765H6.02404C5.86632 7.11765 5.7382 7.246 5.7382 7.40371C5.7382 7.56143 5.86587 7.68978 6.02404 7.68978ZM4.98079 12.7666C5.13851 12.7666 5.26663 12.6385 5.26663 12.4808V11.217C5.26663 11.0593 5.13851 10.9311 4.98079 10.9311C4.82285 10.9311 4.69473 11.0593 4.69473 11.217V12.1947H2.82335V10.3233H4.08555C4.24327 10.3233 4.37161 10.195 4.37161 10.0373C4.37161 9.87954 4.24327 9.75119 4.08555 9.75119H2.53728C2.37956 9.75119 2.25145 9.87954 2.25145 10.0373V12.4808C2.25145 12.6385 2.37956 12.7666 2.53728 12.7666H4.98079ZM11.9557 10.2933H7.2162C7.05848 10.2933 6.93036 10.4214 6.93036 10.5793C6.93036 10.737 7.05848 10.8652 7.2162 10.8652H11.9557C12.1134 10.8652 12.2417 10.737 12.2417 10.5793C12.2417 10.4214 12.1134 10.2933 11.9557 10.2933ZM4.79664 9.97489L3.72673 11.0941L3.54121 10.9081C3.42959 10.7967 3.2486 10.7967 3.13652 10.9081C3.0249 11.0197 3.0249 11.2009 3.13652 11.3128L3.52879 11.7051C3.58257 11.7591 3.6551 11.7891 3.73102 11.7891C3.73192 11.7891 3.73283 11.7891 3.73418 11.7891C3.81101 11.788 3.88445 11.7561 3.93777 11.7008L5.20992 10.3701C5.31905 10.2555 5.31476 10.075 5.20088 9.96585C5.08699 9.85672 4.90578 9.86056 4.79664 9.97489ZM6.02404 12.2042H11.9557C12.1134 12.2042 12.2417 12.0761 12.2417 11.9181C12.2417 11.7604 12.1134 11.6323 11.9557 11.6323H6.02404C5.86632 11.6323 5.7382 11.7604 5.7382 11.9181C5.7382 12.0761 5.86587 12.2042 6.02404 12.2042ZM8.74932 14.2658H2.63693C2.47921 14.2658 2.35109 14.394 2.35109 14.5517C2.35109 14.7096 2.47921 14.8377 2.63693 14.8377H8.74932C8.90704 14.8377 9.03516 14.7096 9.03516 14.5517C9.03516 14.394 8.90749 14.2658 8.74932 14.2658ZM7.80075 15.8701H2.63693C2.47921 15.8701 2.35109 15.9985 2.35109 16.1562C2.35109 16.3139 2.47921 16.4423 2.63693 16.4423H7.80075C7.95847 16.4423 8.08659 16.3139 8.08659 16.1562C8.08659 15.9985 7.95847 15.8701 7.80075 15.8701ZM7.69681 17.4742H2.63693C2.47921 17.4742 2.35109 17.6023 2.35109 17.7603C2.35109 17.918 2.47921 18.0461 2.63693 18.0461H7.69681C7.85453 18.0461 7.98265 17.918 7.98265 17.7603C7.98265 17.6023 7.85453 17.4742 7.69681 17.4742ZM19.9912 16.7353V17.967C19.9912 18.3265 19.6986 18.6191 19.3393 18.6191H18.4513C18.414 18.6191 18.3869 18.6386 18.3754 18.6738C18.3092 18.8752 18.2271 19.0729 18.1313 19.2627C18.1146 19.2959 18.1198 19.3289 18.146 19.3551L18.7744 19.9833C19.0284 20.2375 19.0284 20.6512 18.7744 20.9052L17.9036 21.776C17.7804 21.8989 17.617 21.9667 17.4426 21.9667C17.2682 21.9667 17.1046 21.8989 16.9817 21.776L16.3535 21.1478C16.3273 21.1216 16.2943 21.116 16.2608 21.1329C16.0717 21.2287 15.8733 21.3112 15.6722 21.3772C15.637 21.3885 15.6173 21.4156 15.6173 21.4529V22.3409C15.6173 22.7004 15.3252 22.993 14.9654 22.993H13.7337C13.3742 22.993 13.0816 22.7004 13.0816 22.3409V21.4529C13.0816 21.4156 13.062 21.3885 13.0267 21.3772C12.8256 21.3108 12.6274 21.2287 12.4381 21.1329C12.4046 21.1164 12.3719 21.1216 12.3457 21.1478L11.7173 21.776C11.5944 21.8989 11.431 21.9667 11.2566 21.9667C11.0819 21.9667 10.9185 21.8989 10.7956 21.776L9.92476 20.9052C9.67055 20.6512 9.67055 20.2375 9.92476 19.9833L10.0773 19.8307H0.286063C0.128344 19.8307 0 19.7026 0 19.5449V2.46224C0 2.30452 0.128344 2.17617 0.286063 2.17617H3.43773V1.78346C3.43773 1.62574 3.56607 1.4974 3.72379 1.4974H5.57506C5.71245 0.659543 6.44161 0.0178223 7.31788 0.0178223C8.19392 0.0178223 8.92308 0.659543 9.06047 1.4974H10.9117C11.0697 1.4974 11.1978 1.62574 11.1978 1.78346V2.17617H14.3495C14.5072 2.17617 14.6355 2.30452 14.6355 2.46224V11.7093H14.9654C15.3247 11.7093 15.6173 12.0022 15.6173 12.3615V13.2495C15.6173 13.2868 15.637 13.3139 15.6722 13.3254C15.8733 13.3916 16.0713 13.4736 16.2608 13.5694C16.2943 13.5862 16.3273 13.5807 16.3535 13.5545L16.9817 12.9264C17.1046 12.8034 17.2682 12.7356 17.4426 12.7356C17.617 12.7356 17.7804 12.8034 17.9036 12.9264L18.7744 13.7972C18.8973 13.9201 18.9651 14.0837 18.9651 14.2582C18.9651 14.4326 18.8973 14.5962 18.7744 14.7191L18.146 15.3473C18.1198 15.3735 18.1146 15.4065 18.1313 15.4397C18.2271 15.6295 18.3096 15.8272 18.3754 16.0285C18.3869 16.0638 18.414 16.0832 18.4513 16.0832H19.3393C19.6986 16.0832 19.9912 16.3761 19.9912 16.7353ZM4.0103 3.74681H10.6259V2.06952H8.7979C8.63996 2.06952 8.51184 1.94118 8.51184 1.78346C8.51184 1.12524 7.97655 0.589948 7.31833 0.589948C6.66011 0.589948 6.12482 1.12524 6.12482 1.78346C6.12482 1.94118 5.99648 2.06952 5.83876 2.06952H4.01076V3.74681H4.0103ZM0.572126 19.2584H10.5658C10.4709 19.0699 10.3889 18.8736 10.3236 18.6734C10.3123 18.6381 10.2849 18.6187 10.2479 18.6187H9.35986C9.00036 18.6187 8.70775 18.3261 8.70775 17.9666V16.7349C8.70775 16.3754 9.00036 16.0828 9.35986 16.0828H10.2479C10.2849 16.0828 10.3123 16.0633 10.3236 16.0281C10.3898 15.8263 10.4718 15.6286 10.5676 15.4392C10.5843 15.406 10.5791 15.373 10.5529 15.3468L9.92476 14.7187C9.80161 14.5955 9.73405 14.4321 9.73405 14.2577C9.73405 14.0833 9.80161 13.9197 9.92476 13.7967L10.7956 12.9259C10.9185 12.803 11.0819 12.7352 11.2566 12.7352C11.431 12.7352 11.5944 12.803 11.7173 12.9259L12.3457 13.5541C12.3719 13.5803 12.4046 13.5855 12.4381 13.569C12.6274 13.4732 12.8256 13.3907 13.0267 13.3249C13.062 13.3134 13.0816 13.2863 13.0816 13.249V12.361C13.0816 12.0017 13.3742 11.7089 13.7337 11.7089H14.0634V2.74762H11.1978V4.03242C11.1978 4.19014 11.0697 4.31826 10.9117 4.31826H3.72424C3.56652 4.31826 3.43818 4.19014 3.43818 4.03242V2.7483H0.572126V19.2584ZM19.4193 16.7353C19.4193 16.6919 19.3827 16.6553 19.3393 16.6553H18.4513C18.1691 16.6553 17.9203 16.475 17.8319 16.2068C17.7748 16.0328 17.7038 15.8616 17.6209 15.6982C17.493 15.446 17.5418 15.1423 17.7413 14.9426L18.3697 14.3144C18.3896 14.2943 18.3925 14.2706 18.3925 14.2577C18.3925 14.2448 18.3896 14.2215 18.3697 14.201L17.4989 13.3301C17.4788 13.31 17.455 13.3066 17.4422 13.3066C17.4293 13.3066 17.4058 13.3096 17.3854 13.3297L16.757 13.9579C16.5573 14.1576 16.2538 14.2062 16.0017 14.0785C15.8381 13.9956 15.667 13.9244 15.493 13.8672C15.2246 13.7791 15.0445 13.5303 15.0445 13.2481V12.3601C15.0445 12.3167 15.0077 12.2799 14.9643 12.2799H13.7326C13.6894 12.2799 13.6526 12.3167 13.6526 12.3601V13.2481C13.6526 13.5303 13.4725 13.7791 13.2041 13.8672C13.0301 13.9244 12.859 13.9956 12.6955 14.0785C12.4433 14.2062 12.1396 14.1576 11.9401 13.9579L11.3117 13.3297C11.2918 13.3096 11.2679 13.3062 11.255 13.3062C11.2425 13.3062 11.2188 13.3091 11.1987 13.3292L10.3279 14.2001C10.308 14.22 10.305 14.2439 10.305 14.2568C10.305 14.2697 10.308 14.2929 10.3279 14.3131L10.9563 14.9412C11.1558 15.141 11.2046 15.4447 11.0767 15.6966C10.9938 15.8602 10.9228 16.0312 10.8656 16.2052C10.7773 16.4737 10.5285 16.6538 10.2463 16.6538H9.35828C9.31512 16.6538 9.27829 16.6906 9.27829 16.734V17.9657C9.27829 18.0091 9.31512 18.0457 9.35828 18.0457H10.2463C10.5285 18.0457 10.7773 18.226 10.8656 18.4942C10.9228 18.6682 10.9938 18.8392 11.0767 19.0028C11.2046 19.255 11.1558 19.5587 10.9563 19.7584L10.3279 20.3866C10.2974 20.4171 10.2974 20.4691 10.3279 20.4996L11.1987 21.3704C11.2188 21.3905 11.2425 21.3932 11.2554 21.3932C11.2679 21.3932 11.2918 21.3905 11.3121 21.3704L11.9405 20.7422C12.0659 20.6168 12.2322 20.5511 12.4008 20.5511C12.5009 20.5511 12.6021 20.5744 12.6959 20.6216C12.8595 20.7045 13.0306 20.7755 13.2045 20.8326C13.473 20.921 13.6531 21.1698 13.6531 21.452V22.34C13.6531 22.3834 13.6899 22.42 13.7333 22.42H14.965C15.0084 22.42 15.045 22.3834 15.045 22.34V21.452C15.045 21.1698 15.2251 20.921 15.4935 20.8326C15.6675 20.7755 15.8385 20.7045 16.0021 20.6216C16.2543 20.4939 16.558 20.5425 16.7575 20.7422L17.3859 21.3704C17.4058 21.3905 17.4297 21.3932 17.4426 21.3932C17.455 21.3932 17.4788 21.3905 17.4989 21.3704L18.3697 20.4996C18.4002 20.4691 18.4002 20.4171 18.3697 20.3866L17.7413 19.7584C17.5418 19.5587 17.493 19.255 17.6209 19.0028C17.7038 18.8388 17.7748 18.6677 17.8319 18.4942C17.9203 18.226 18.1691 18.0457 18.4513 18.0457H19.3393C19.3827 18.0457 19.4193 18.0091 19.4193 17.9657V16.7353ZM16.8287 17.3513C16.8287 18.7183 15.7165 19.8303 14.3495 19.8303C12.9824 19.8303 11.8705 18.7183 11.8705 17.3513C11.8705 15.984 12.9824 14.8721 14.3495 14.8721C15.7165 14.8721 16.8287 15.984 16.8287 17.3513ZM16.2566 17.3513C16.2566 16.2997 15.4011 15.444 14.3495 15.444C13.2981 15.444 12.4424 16.2997 12.4424 17.3513C12.4424 18.4027 13.2981 19.2584 14.3495 19.2584C15.4011 19.2584 16.2566 18.4027 16.2566 17.3513Z"/>
</mask>
<path d="M2.25145 7.96658V5.52329C2.25145 5.36557 2.37956 5.23723 2.53728 5.23723H4.08555C4.24327 5.23723 4.37161 5.36557 4.37161 5.52329C4.37161 5.68101 4.24327 5.80935 4.08555 5.80935H2.82335V7.68074H4.69473V6.70302C4.69473 6.5453 4.82285 6.41695 4.98079 6.41695C5.13851 6.41695 5.26663 6.5453 5.26663 6.70302V7.96658C5.26663 8.12452 5.13851 8.25264 4.98079 8.25264H2.53728C2.37911 8.25264 2.25145 8.12452 2.25145 7.96658ZM7.2162 6.3512H11.9557C12.1134 6.3512 12.2417 6.22308 12.2417 6.06536C12.2417 5.90742 12.1134 5.7793 11.9557 5.7793H7.2162C7.05848 5.7793 6.93036 5.90742 6.93036 6.06536C6.93036 6.22308 7.05803 6.3512 7.2162 6.3512ZM3.54121 6.39413C3.42959 6.28274 3.2486 6.28274 3.13652 6.39413C3.0249 6.50576 3.0249 6.68675 3.13652 6.79882L3.52879 7.19109C3.58257 7.24509 3.6551 7.27514 3.73102 7.27514C3.73192 7.27514 3.73283 7.27514 3.73418 7.27514C3.81101 7.27401 3.88445 7.24215 3.93777 7.18679L5.20992 5.85613C5.31905 5.74157 5.31476 5.56103 5.20088 5.45189C5.08654 5.34275 4.90578 5.34704 4.79664 5.46093L3.72673 6.5801L3.54121 6.39413ZM6.02404 7.68978H11.9557C12.1134 7.68978 12.2417 7.56143 12.2417 7.40371C12.2417 7.246 12.1134 7.11765 11.9557 7.11765H6.02404C5.86632 7.11765 5.7382 7.246 5.7382 7.40371C5.7382 7.56143 5.86587 7.68978 6.02404 7.68978ZM4.98079 12.7666C5.13851 12.7666 5.26663 12.6385 5.26663 12.4808V11.217C5.26663 11.0593 5.13851 10.9311 4.98079 10.9311C4.82285 10.9311 4.69473 11.0593 4.69473 11.217V12.1947H2.82335V10.3233H4.08555C4.24327 10.3233 4.37161 10.195 4.37161 10.0373C4.37161 9.87954 4.24327 9.75119 4.08555 9.75119H2.53728C2.37956 9.75119 2.25145 9.87954 2.25145 10.0373V12.4808C2.25145 12.6385 2.37956 12.7666 2.53728 12.7666H4.98079ZM11.9557 10.2933H7.2162C7.05848 10.2933 6.93036 10.4214 6.93036 10.5793C6.93036 10.737 7.05848 10.8652 7.2162 10.8652H11.9557C12.1134 10.8652 12.2417 10.737 12.2417 10.5793C12.2417 10.4214 12.1134 10.2933 11.9557 10.2933ZM4.79664 9.97489L3.72673 11.0941L3.54121 10.9081C3.42959 10.7967 3.2486 10.7967 3.13652 10.9081C3.0249 11.0197 3.0249 11.2009 3.13652 11.3128L3.52879 11.7051C3.58257 11.7591 3.6551 11.7891 3.73102 11.7891C3.73192 11.7891 3.73283 11.7891 3.73418 11.7891C3.81101 11.788 3.88445 11.7561 3.93777 11.7008L5.20992 10.3701C5.31905 10.2555 5.31476 10.075 5.20088 9.96585C5.08699 9.85672 4.90578 9.86056 4.79664 9.97489ZM6.02404 12.2042H11.9557C12.1134 12.2042 12.2417 12.0761 12.2417 11.9181C12.2417 11.7604 12.1134 11.6323 11.9557 11.6323H6.02404C5.86632 11.6323 5.7382 11.7604 5.7382 11.9181C5.7382 12.0761 5.86587 12.2042 6.02404 12.2042ZM8.74932 14.2658H2.63693C2.47921 14.2658 2.35109 14.394 2.35109 14.5517C2.35109 14.7096 2.47921 14.8377 2.63693 14.8377H8.74932C8.90704 14.8377 9.03516 14.7096 9.03516 14.5517C9.03516 14.394 8.90749 14.2658 8.74932 14.2658ZM7.80075 15.8701H2.63693C2.47921 15.8701 2.35109 15.9985 2.35109 16.1562C2.35109 16.3139 2.47921 16.4423 2.63693 16.4423H7.80075C7.95847 16.4423 8.08659 16.3139 8.08659 16.1562C8.08659 15.9985 7.95847 15.8701 7.80075 15.8701ZM7.69681 17.4742H2.63693C2.47921 17.4742 2.35109 17.6023 2.35109 17.7603C2.35109 17.918 2.47921 18.0461 2.63693 18.0461H7.69681C7.85453 18.0461 7.98265 17.918 7.98265 17.7603C7.98265 17.6023 7.85453 17.4742 7.69681 17.4742ZM19.9912 16.7353V17.967C19.9912 18.3265 19.6986 18.6191 19.3393 18.6191H18.4513C18.414 18.6191 18.3869 18.6386 18.3754 18.6738C18.3092 18.8752 18.2271 19.0729 18.1313 19.2627C18.1146 19.2959 18.1198 19.3289 18.146 19.3551L18.7744 19.9833C19.0284 20.2375 19.0284 20.6512 18.7744 20.9052L17.9036 21.776C17.7804 21.8989 17.617 21.9667 17.4426 21.9667C17.2682 21.9667 17.1046 21.8989 16.9817 21.776L16.3535 21.1478C16.3273 21.1216 16.2943 21.116 16.2608 21.1329C16.0717 21.2287 15.8733 21.3112 15.6722 21.3772C15.637 21.3885 15.6173 21.4156 15.6173 21.4529V22.3409C15.6173 22.7004 15.3252 22.993 14.9654 22.993H13.7337C13.3742 22.993 13.0816 22.7004 13.0816 22.3409V21.4529C13.0816 21.4156 13.062 21.3885 13.0267 21.3772C12.8256 21.3108 12.6274 21.2287 12.4381 21.1329C12.4046 21.1164 12.3719 21.1216 12.3457 21.1478L11.7173 21.776C11.5944 21.8989 11.431 21.9667 11.2566 21.9667C11.0819 21.9667 10.9185 21.8989 10.7956 21.776L9.92476 20.9052C9.67055 20.6512 9.67055 20.2375 9.92476 19.9833L10.0773 19.8307H0.286063C0.128344 19.8307 0 19.7026 0 19.5449V2.46224C0 2.30452 0.128344 2.17617 0.286063 2.17617H3.43773V1.78346C3.43773 1.62574 3.56607 1.4974 3.72379 1.4974H5.57506C5.71245 0.659543 6.44161 0.0178223 7.31788 0.0178223C8.19392 0.0178223 8.92308 0.659543 9.06047 1.4974H10.9117C11.0697 1.4974 11.1978 1.62574 11.1978 1.78346V2.17617H14.3495C14.5072 2.17617 14.6355 2.30452 14.6355 2.46224V11.7093H14.9654C15.3247 11.7093 15.6173 12.0022 15.6173 12.3615V13.2495C15.6173 13.2868 15.637 13.3139 15.6722 13.3254C15.8733 13.3916 16.0713 13.4736 16.2608 13.5694C16.2943 13.5862 16.3273 13.5807 16.3535 13.5545L16.9817 12.9264C17.1046 12.8034 17.2682 12.7356 17.4426 12.7356C17.617 12.7356 17.7804 12.8034 17.9036 12.9264L18.7744 13.7972C18.8973 13.9201 18.9651 14.0837 18.9651 14.2582C18.9651 14.4326 18.8973 14.5962 18.7744 14.7191L18.146 15.3473C18.1198 15.3735 18.1146 15.4065 18.1313 15.4397C18.2271 15.6295 18.3096 15.8272 18.3754 16.0285C18.3869 16.0638 18.414 16.0832 18.4513 16.0832H19.3393C19.6986 16.0832 19.9912 16.3761 19.9912 16.7353ZM4.0103 3.74681H10.6259V2.06952H8.7979C8.63996 2.06952 8.51184 1.94118 8.51184 1.78346C8.51184 1.12524 7.97655 0.589948 7.31833 0.589948C6.66011 0.589948 6.12482 1.12524 6.12482 1.78346C6.12482 1.94118 5.99648 2.06952 5.83876 2.06952H4.01076V3.74681H4.0103ZM0.572126 19.2584H10.5658C10.4709 19.0699 10.3889 18.8736 10.3236 18.6734C10.3123 18.6381 10.2849 18.6187 10.2479 18.6187H9.35986C9.00036 18.6187 8.70775 18.3261 8.70775 17.9666V16.7349C8.70775 16.3754 9.00036 16.0828 9.35986 16.0828H10.2479C10.2849 16.0828 10.3123 16.0633 10.3236 16.0281C10.3898 15.8263 10.4718 15.6286 10.5676 15.4392C10.5843 15.406 10.5791 15.373 10.5529 15.3468L9.92476 14.7187C9.80161 14.5955 9.73405 14.4321 9.73405 14.2577C9.73405 14.0833 9.80161 13.9197 9.92476 13.7967L10.7956 12.9259C10.9185 12.803 11.0819 12.7352 11.2566 12.7352C11.431 12.7352 11.5944 12.803 11.7173 12.9259L12.3457 13.5541C12.3719 13.5803 12.4046 13.5855 12.4381 13.569C12.6274 13.4732 12.8256 13.3907 13.0267 13.3249C13.062 13.3134 13.0816 13.2863 13.0816 13.249V12.361C13.0816 12.0017 13.3742 11.7089 13.7337 11.7089H14.0634V2.74762H11.1978V4.03242C11.1978 4.19014 11.0697 4.31826 10.9117 4.31826H3.72424C3.56652 4.31826 3.43818 4.19014 3.43818 4.03242V2.7483H0.572126V19.2584ZM19.4193 16.7353C19.4193 16.6919 19.3827 16.6553 19.3393 16.6553H18.4513C18.1691 16.6553 17.9203 16.475 17.8319 16.2068C17.7748 16.0328 17.7038 15.8616 17.6209 15.6982C17.493 15.446 17.5418 15.1423 17.7413 14.9426L18.3697 14.3144C18.3896 14.2943 18.3925 14.2706 18.3925 14.2577C18.3925 14.2448 18.3896 14.2215 18.3697 14.201L17.4989 13.3301C17.4788 13.31 17.455 13.3066 17.4422 13.3066C17.4293 13.3066 17.4058 13.3096 17.3854 13.3297L16.757 13.9579C16.5573 14.1576 16.2538 14.2062 16.0017 14.0785C15.8381 13.9956 15.667 13.9244 15.493 13.8672C15.2246 13.7791 15.0445 13.5303 15.0445 13.2481V12.3601C15.0445 12.3167 15.0077 12.2799 14.9643 12.2799H13.7326C13.6894 12.2799 13.6526 12.3167 13.6526 12.3601V13.2481C13.6526 13.5303 13.4725 13.7791 13.2041 13.8672C13.0301 13.9244 12.859 13.9956 12.6955 14.0785C12.4433 14.2062 12.1396 14.1576 11.9401 13.9579L11.3117 13.3297C11.2918 13.3096 11.2679 13.3062 11.255 13.3062C11.2425 13.3062 11.2188 13.3091 11.1987 13.3292L10.3279 14.2001C10.308 14.22 10.305 14.2439 10.305 14.2568C10.305 14.2697 10.308 14.2929 10.3279 14.3131L10.9563 14.9412C11.1558 15.141 11.2046 15.4447 11.0767 15.6966C10.9938 15.8602 10.9228 16.0312 10.8656 16.2052C10.7773 16.4737 10.5285 16.6538 10.2463 16.6538H9.35828C9.31512 16.6538 9.27829 16.6906 9.27829 16.734V17.9657C9.27829 18.0091 9.31512 18.0457 9.35828 18.0457H10.2463C10.5285 18.0457 10.7773 18.226 10.8656 18.4942C10.9228 18.6682 10.9938 18.8392 11.0767 19.0028C11.2046 19.255 11.1558 19.5587 10.9563 19.7584L10.3279 20.3866C10.2974 20.4171 10.2974 20.4691 10.3279 20.4996L11.1987 21.3704C11.2188 21.3905 11.2425 21.3932 11.2554 21.3932C11.2679 21.3932 11.2918 21.3905 11.3121 21.3704L11.9405 20.7422C12.0659 20.6168 12.2322 20.5511 12.4008 20.5511C12.5009 20.5511 12.6021 20.5744 12.6959 20.6216C12.8595 20.7045 13.0306 20.7755 13.2045 20.8326C13.473 20.921 13.6531 21.1698 13.6531 21.452V22.34C13.6531 22.3834 13.6899 22.42 13.7333 22.42H14.965C15.0084 22.42 15.045 22.3834 15.045 22.34V21.452C15.045 21.1698 15.2251 20.921 15.4935 20.8326C15.6675 20.7755 15.8385 20.7045 16.0021 20.6216C16.2543 20.4939 16.558 20.5425 16.7575 20.7422L17.3859 21.3704C17.4058 21.3905 17.4297 21.3932 17.4426 21.3932C17.455 21.3932 17.4788 21.3905 17.4989 21.3704L18.3697 20.4996C18.4002 20.4691 18.4002 20.4171 18.3697 20.3866L17.7413 19.7584C17.5418 19.5587 17.493 19.255 17.6209 19.0028C17.7038 18.8388 17.7748 18.6677 17.8319 18.4942C17.9203 18.226 18.1691 18.0457 18.4513 18.0457H19.3393C19.3827 18.0457 19.4193 18.0091 19.4193 17.9657V16.7353ZM16.8287 17.3513C16.8287 18.7183 15.7165 19.8303 14.3495 19.8303C12.9824 19.8303 11.8705 18.7183 11.8705 17.3513C11.8705 15.984 12.9824 14.8721 14.3495 14.8721C15.7165 14.8721 16.8287 15.984 16.8287 17.3513ZM16.2566 17.3513C16.2566 16.2997 15.4011 15.444 14.3495 15.444C13.2981 15.444 12.4424 16.2997 12.4424 17.3513C12.4424 18.4027 13.2981 19.2584 14.3495 19.2584C15.4011 19.2584 16.2566 18.4027 16.2566 17.3513Z" fill="#8C8E98"/>
<path d="M2.25145 7.96658V5.52329C2.25145 5.36557 2.37956 5.23723 2.53728 5.23723H4.08555C4.24327 5.23723 4.37161 5.36557 4.37161 5.52329C4.37161 5.68101 4.24327 5.80935 4.08555 5.80935H2.82335V7.68074H4.69473V6.70302C4.69473 6.5453 4.82285 6.41695 4.98079 6.41695C5.13851 6.41695 5.26663 6.5453 5.26663 6.70302V7.96658C5.26663 8.12452 5.13851 8.25264 4.98079 8.25264H2.53728C2.37911 8.25264 2.25145 8.12452 2.25145 7.96658ZM7.2162 6.3512H11.9557C12.1134 6.3512 12.2417 6.22308 12.2417 6.06536C12.2417 5.90742 12.1134 5.7793 11.9557 5.7793H7.2162C7.05848 5.7793 6.93036 5.90742 6.93036 6.06536C6.93036 6.22308 7.05803 6.3512 7.2162 6.3512ZM3.54121 6.39413C3.42959 6.28274 3.2486 6.28274 3.13652 6.39413C3.0249 6.50576 3.0249 6.68675 3.13652 6.79882L3.52879 7.19109C3.58257 7.24509 3.6551 7.27514 3.73102 7.27514C3.73192 7.27514 3.73283 7.27514 3.73418 7.27514C3.81101 7.27401 3.88445 7.24215 3.93777 7.18679L5.20992 5.85613C5.31905 5.74157 5.31476 5.56103 5.20088 5.45189C5.08654 5.34275 4.90578 5.34704 4.79664 5.46093L3.72673 6.5801L3.54121 6.39413ZM6.02404 7.68978H11.9557C12.1134 7.68978 12.2417 7.56143 12.2417 7.40371C12.2417 7.246 12.1134 7.11765 11.9557 7.11765H6.02404C5.86632 7.11765 5.7382 7.246 5.7382 7.40371C5.7382 7.56143 5.86587 7.68978 6.02404 7.68978ZM4.98079 12.7666C5.13851 12.7666 5.26663 12.6385 5.26663 12.4808V11.217C5.26663 11.0593 5.13851 10.9311 4.98079 10.9311C4.82285 10.9311 4.69473 11.0593 4.69473 11.217V12.1947H2.82335V10.3233H4.08555C4.24327 10.3233 4.37161 10.195 4.37161 10.0373C4.37161 9.87954 4.24327 9.75119 4.08555 9.75119H2.53728C2.37956 9.75119 2.25145 9.87954 2.25145 10.0373V12.4808C2.25145 12.6385 2.37956 12.7666 2.53728 12.7666H4.98079ZM11.9557 10.2933H7.2162C7.05848 10.2933 6.93036 10.4214 6.93036 10.5793C6.93036 10.737 7.05848 10.8652 7.2162 10.8652H11.9557C12.1134 10.8652 12.2417 10.737 12.2417 10.5793C12.2417 10.4214 12.1134 10.2933 11.9557 10.2933ZM4.79664 9.97489L3.72673 11.0941L3.54121 10.9081C3.42959 10.7967 3.2486 10.7967 3.13652 10.9081C3.0249 11.0197 3.0249 11.2009 3.13652 11.3128L3.52879 11.7051C3.58257 11.7591 3.6551 11.7891 3.73102 11.7891C3.73192 11.7891 3.73283 11.7891 3.73418 11.7891C3.81101 11.788 3.88445 11.7561 3.93777 11.7008L5.20992 10.3701C5.31905 10.2555 5.31476 10.075 5.20088 9.96585C5.08699 9.85672 4.90578 9.86056 4.79664 9.97489ZM6.02404 12.2042H11.9557C12.1134 12.2042 12.2417 12.0761 12.2417 11.9181C12.2417 11.7604 12.1134 11.6323 11.9557 11.6323H6.02404C5.86632 11.6323 5.7382 11.7604 5.7382 11.9181C5.7382 12.0761 5.86587 12.2042 6.02404 12.2042ZM8.74932 14.2658H2.63693C2.47921 14.2658 2.35109 14.394 2.35109 14.5517C2.35109 14.7096 2.47921 14.8377 2.63693 14.8377H8.74932C8.90704 14.8377 9.03516 14.7096 9.03516 14.5517C9.03516 14.394 8.90749 14.2658 8.74932 14.2658ZM7.80075 15.8701H2.63693C2.47921 15.8701 2.35109 15.9985 2.35109 16.1562C2.35109 16.3139 2.47921 16.4423 2.63693 16.4423H7.80075C7.95847 16.4423 8.08659 16.3139 8.08659 16.1562C8.08659 15.9985 7.95847 15.8701 7.80075 15.8701ZM7.69681 17.4742H2.63693C2.47921 17.4742 2.35109 17.6023 2.35109 17.7603C2.35109 17.918 2.47921 18.0461 2.63693 18.0461H7.69681C7.85453 18.0461 7.98265 17.918 7.98265 17.7603C7.98265 17.6023 7.85453 17.4742 7.69681 17.4742ZM19.9912 16.7353V17.967C19.9912 18.3265 19.6986 18.6191 19.3393 18.6191H18.4513C18.414 18.6191 18.3869 18.6386 18.3754 18.6738C18.3092 18.8752 18.2271 19.0729 18.1313 19.2627C18.1146 19.2959 18.1198 19.3289 18.146 19.3551L18.7744 19.9833C19.0284 20.2375 19.0284 20.6512 18.7744 20.9052L17.9036 21.776C17.7804 21.8989 17.617 21.9667 17.4426 21.9667C17.2682 21.9667 17.1046 21.8989 16.9817 21.776L16.3535 21.1478C16.3273 21.1216 16.2943 21.116 16.2608 21.1329C16.0717 21.2287 15.8733 21.3112 15.6722 21.3772C15.637 21.3885 15.6173 21.4156 15.6173 21.4529V22.3409C15.6173 22.7004 15.3252 22.993 14.9654 22.993H13.7337C13.3742 22.993 13.0816 22.7004 13.0816 22.3409V21.4529C13.0816 21.4156 13.062 21.3885 13.0267 21.3772C12.8256 21.3108 12.6274 21.2287 12.4381 21.1329C12.4046 21.1164 12.3719 21.1216 12.3457 21.1478L11.7173 21.776C11.5944 21.8989 11.431 21.9667 11.2566 21.9667C11.0819 21.9667 10.9185 21.8989 10.7956 21.776L9.92476 20.9052C9.67055 20.6512 9.67055 20.2375 9.92476 19.9833L10.0773 19.8307H0.286063C0.128344 19.8307 0 19.7026 0 19.5449V2.46224C0 2.30452 0.128344 2.17617 0.286063 2.17617H3.43773V1.78346C3.43773 1.62574 3.56607 1.4974 3.72379 1.4974H5.57506C5.71245 0.659543 6.44161 0.0178223 7.31788 0.0178223C8.19392 0.0178223 8.92308 0.659543 9.06047 1.4974H10.9117C11.0697 1.4974 11.1978 1.62574 11.1978 1.78346V2.17617H14.3495C14.5072 2.17617 14.6355 2.30452 14.6355 2.46224V11.7093H14.9654C15.3247 11.7093 15.6173 12.0022 15.6173 12.3615V13.2495C15.6173 13.2868 15.637 13.3139 15.6722 13.3254C15.8733 13.3916 16.0713 13.4736 16.2608 13.5694C16.2943 13.5862 16.3273 13.5807 16.3535 13.5545L16.9817 12.9264C17.1046 12.8034 17.2682 12.7356 17.4426 12.7356C17.617 12.7356 17.7804 12.8034 17.9036 12.9264L18.7744 13.7972C18.8973 13.9201 18.9651 14.0837 18.9651 14.2582C18.9651 14.4326 18.8973 14.5962 18.7744 14.7191L18.146 15.3473C18.1198 15.3735 18.1146 15.4065 18.1313 15.4397C18.2271 15.6295 18.3096 15.8272 18.3754 16.0285C18.3869 16.0638 18.414 16.0832 18.4513 16.0832H19.3393C19.6986 16.0832 19.9912 16.3761 19.9912 16.7353ZM4.0103 3.74681H10.6259V2.06952H8.7979C8.63996 2.06952 8.51184 1.94118 8.51184 1.78346C8.51184 1.12524 7.97655 0.589948 7.31833 0.589948C6.66011 0.589948 6.12482 1.12524 6.12482 1.78346C6.12482 1.94118 5.99648 2.06952 5.83876 2.06952H4.01076V3.74681H4.0103ZM0.572126 19.2584H10.5658C10.4709 19.0699 10.3889 18.8736 10.3236 18.6734C10.3123 18.6381 10.2849 18.6187 10.2479 18.6187H9.35986C9.00036 18.6187 8.70775 18.3261 8.70775 17.9666V16.7349C8.70775 16.3754 9.00036 16.0828 9.35986 16.0828H10.2479C10.2849 16.0828 10.3123 16.0633 10.3236 16.0281C10.3898 15.8263 10.4718 15.6286 10.5676 15.4392C10.5843 15.406 10.5791 15.373 10.5529 15.3468L9.92476 14.7187C9.80161 14.5955 9.73405 14.4321 9.73405 14.2577C9.73405 14.0833 9.80161 13.9197 9.92476 13.7967L10.7956 12.9259C10.9185 12.803 11.0819 12.7352 11.2566 12.7352C11.431 12.7352 11.5944 12.803 11.7173 12.9259L12.3457 13.5541C12.3719 13.5803 12.4046 13.5855 12.4381 13.569C12.6274 13.4732 12.8256 13.3907 13.0267 13.3249C13.062 13.3134 13.0816 13.2863 13.0816 13.249V12.361C13.0816 12.0017 13.3742 11.7089 13.7337 11.7089H14.0634V2.74762H11.1978V4.03242C11.1978 4.19014 11.0697 4.31826 10.9117 4.31826H3.72424C3.56652 4.31826 3.43818 4.19014 3.43818 4.03242V2.7483H0.572126V19.2584ZM19.4193 16.7353C19.4193 16.6919 19.3827 16.6553 19.3393 16.6553H18.4513C18.1691 16.6553 17.9203 16.475 17.8319 16.2068C17.7748 16.0328 17.7038 15.8616 17.6209 15.6982C17.493 15.446 17.5418 15.1423 17.7413 14.9426L18.3697 14.3144C18.3896 14.2943 18.3925 14.2706 18.3925 14.2577C18.3925 14.2448 18.3896 14.2215 18.3697 14.201L17.4989 13.3301C17.4788 13.31 17.455 13.3066 17.4422 13.3066C17.4293 13.3066 17.4058 13.3096 17.3854 13.3297L16.757 13.9579C16.5573 14.1576 16.2538 14.2062 16.0017 14.0785C15.8381 13.9956 15.667 13.9244 15.493 13.8672C15.2246 13.7791 15.0445 13.5303 15.0445 13.2481V12.3601C15.0445 12.3167 15.0077 12.2799 14.9643 12.2799H13.7326C13.6894 12.2799 13.6526 12.3167 13.6526 12.3601V13.2481C13.6526 13.5303 13.4725 13.7791 13.2041 13.8672C13.0301 13.9244 12.859 13.9956 12.6955 14.0785C12.4433 14.2062 12.1396 14.1576 11.9401 13.9579L11.3117 13.3297C11.2918 13.3096 11.2679 13.3062 11.255 13.3062C11.2425 13.3062 11.2188 13.3091 11.1987 13.3292L10.3279 14.2001C10.308 14.22 10.305 14.2439 10.305 14.2568C10.305 14.2697 10.308 14.2929 10.3279 14.3131L10.9563 14.9412C11.1558 15.141 11.2046 15.4447 11.0767 15.6966C10.9938 15.8602 10.9228 16.0312 10.8656 16.2052C10.7773 16.4737 10.5285 16.6538 10.2463 16.6538H9.35828C9.31512 16.6538 9.27829 16.6906 9.27829 16.734V17.9657C9.27829 18.0091 9.31512 18.0457 9.35828 18.0457H10.2463C10.5285 18.0457 10.7773 18.226 10.8656 18.4942C10.9228 18.6682 10.9938 18.8392 11.0767 19.0028C11.2046 19.255 11.1558 19.5587 10.9563 19.7584L10.3279 20.3866C10.2974 20.4171 10.2974 20.4691 10.3279 20.4996L11.1987 21.3704C11.2188 21.3905 11.2425 21.3932 11.2554 21.3932C11.2679 21.3932 11.2918 21.3905 11.3121 21.3704L11.9405 20.7422C12.0659 20.6168 12.2322 20.5511 12.4008 20.5511C12.5009 20.5511 12.6021 20.5744 12.6959 20.6216C12.8595 20.7045 13.0306 20.7755 13.2045 20.8326C13.473 20.921 13.6531 21.1698 13.6531 21.452V22.34C13.6531 22.3834 13.6899 22.42 13.7333 22.42H14.965C15.0084 22.42 15.045 22.3834 15.045 22.34V21.452C15.045 21.1698 15.2251 20.921 15.4935 20.8326C15.6675 20.7755 15.8385 20.7045 16.0021 20.6216C16.2543 20.4939 16.558 20.5425 16.7575 20.7422L17.3859 21.3704C17.4058 21.3905 17.4297 21.3932 17.4426 21.3932C17.455 21.3932 17.4788 21.3905 17.4989 21.3704L18.3697 20.4996C18.4002 20.4691 18.4002 20.4171 18.3697 20.3866L17.7413 19.7584C17.5418 19.5587 17.493 19.255 17.6209 19.0028C17.7038 18.8388 17.7748 18.6677 17.8319 18.4942C17.9203 18.226 18.1691 18.0457 18.4513 18.0457H19.3393C19.3827 18.0457 19.4193 18.0091 19.4193 17.9657V16.7353ZM16.8287 17.3513C16.8287 18.7183 15.7165 19.8303 14.3495 19.8303C12.9824 19.8303 11.8705 18.7183 11.8705 17.3513C11.8705 15.984 12.9824 14.8721 14.3495 14.8721C15.7165 14.8721 16.8287 15.984 16.8287 17.3513ZM16.2566 17.3513C16.2566 16.2997 15.4011 15.444 14.3495 15.444C13.2981 15.444 12.4424 16.2997 12.4424 17.3513C12.4424 18.4027 13.2981 19.2584 14.3495 19.2584C15.4011 19.2584 16.2566 18.4027 16.2566 17.3513Z" stroke="#8C8E98" stroke-width="0.2" mask="url(#path-2-outside-1_14_1450)"/>
</g>
</svg>
