<svg width="22" height="22" viewBox="0 0 22 22" fill="none" xmlns="http://www.w3.org/2000/svg">
<mask id="mask0_13_2120" style="mask-type:luminance" maskUnits="userSpaceOnUse" x="10" y="4" width="12" height="18">
<path d="M10.7074 5.02092H10.6574V5.07092V21.3494V21.3994H10.7074H21H21.05V21.3494V5.07092V5.02092H21H10.7074Z" fill="white" stroke="white" stroke-width="0.1"/>
</mask>
<g mask="url(#mask0_13_2120)">
<path d="M10.8639 9.48844C10.7447 9.54271 10.6684 9.66159 10.6684 9.79239V21.0654C10.6684 21.1789 10.7261 21.285 10.8219 21.3462L20.5767 5.05735L10.8639 9.48844ZM10.8639 9.48844L10.8846 9.53395L10.8639 9.48846L10.8639 9.48844ZM20.3813 5.8811V16.4192L11.3367 20.5456V10.0072L20.3813 5.8811ZM11.1413 21.3693L20.8543 16.9383L11.1413 21.3693Z" fill="#8C8E98" stroke="#8C8E98" stroke-width="0.1"/>
</g>
<path d="M4.64462 17.0608L4.64445 17.0608L2.40281 16.0381L4.64462 17.0608ZM4.64462 17.0608C4.68858 17.0807 4.73585 17.0908 4.78301 17.0908C4.84622 17.0908 4.90897 17.073 4.96374 17.0379L4.9639 17.0378C5.05925 16.9762 5.11723 16.8704 5.11723 16.7566V14.7135C5.11723 14.5826 5.04065 14.4638 4.9218 14.4095L4.92179 14.4095M4.64462 17.0608L4.92179 14.4095M4.92179 14.4095L2.68017 13.3868L2.65937 13.4323L2.68012 13.3868L2.68015 13.3868C2.57664 13.3395 2.45644 13.3483 2.3608 13.4097C2.26501 13.4711 2.20734 13.5772 2.20734 13.6908V15.7341C2.20734 15.8649 2.28363 15.9838 2.40278 16.0381L4.92179 14.4095ZM2.87556 14.2106L4.44878 14.9283V16.237L2.87556 15.5193V14.2106Z" fill="#8C8E98" stroke="#8C8E98" stroke-width="0.1"/>
<mask id="mask1_13_2120" style="mask-type:luminance" maskUnits="userSpaceOnUse" x="0" y="4" width="12" height="18">
<path d="M1 4.98198H0.95V5.03198V21.3541V21.4041H1H11.3258H11.3758V21.3541V5.03198V4.98198H11.3258H1Z" fill="white" stroke="white" stroke-width="0.1"/>
</mask>
<g mask="url(#mask1_13_2120)">
<path d="M10.8639 21.3691L10.8639 21.3691C10.9082 21.3894 10.9555 21.3992 11.0025 21.3992C11.0657 21.3992 11.1285 21.3814 11.1833 21.346M10.8639 21.3691L1.42826 5.05713M10.8639 21.3691L1.1509 16.938L10.8639 21.3691ZM11.1833 21.346C11.1832 21.346 11.1832 21.3461 11.1832 21.3461L11.1563 21.3039L11.1834 21.346C11.1833 21.346 11.1833 21.346 11.1833 21.346ZM11.1833 21.346C11.2791 21.2847 11.3367 21.1786 11.3367 21.0652V9.79215C11.3367 9.66134 11.2604 9.54246 11.1412 9.4882M11.1412 9.4882L11.1413 9.48821L11.1205 9.5337L11.1412 9.4882ZM11.1412 9.4882L1.42826 5.05713M1.42826 5.05713L1.40745 5.10259L1.42821 5.0571L1.42823 5.05712C1.42824 5.05712 1.42825 5.05712 1.42826 5.05713ZM1.10886 5.07998C1.01309 5.14144 0.955426 5.24754 0.955426 5.36104V16.6338C0.955426 16.7648 1.0317 16.8837 1.15087 16.938L1.10886 5.07998ZM1.10886 5.07998C1.10885 5.07998 1.10885 5.07999 1.10884 5.07999L1.13589 5.12204L1.10889 5.07996C1.10888 5.07996 1.10887 5.07997 1.10886 5.07998ZM1.62364 5.88085L10.6685 10.007V20.5454L1.62364 16.419V5.88085Z" fill="#8C8E98" stroke="#8C8E98" stroke-width="0.1"/>
</g>
<path d="M6.84393 10.8576L6.84391 10.8576L4.69223 9.87603L4.69222 9.87603C4.52447 9.79946 4.45026 9.60116 4.52684 9.43333L6.84393 10.8576ZM6.84393 10.8576C6.88886 10.8781 6.93598 10.8876 6.98246 10.8876C7.10893 10.8876 7.23047 10.8152 7.28662 10.6922L7.28663 10.6922C7.36321 10.5241 7.28902 10.3261 7.12125 10.2495L7.12124 10.2495M6.84393 10.8576L7.12124 10.2495M7.12124 10.2495L4.96958 9.26794C4.96957 9.26794 4.96957 9.26793 4.96957 9.26793M7.12124 10.2495L4.96957 9.26793M4.96957 9.26793C4.80179 9.19136 4.60345 9.26526 4.52685 9.4333L4.96957 9.26793Z" fill="#8C8E98" stroke="#8C8E98" stroke-width="0.1"/>
<mask id="mask2_13_2120" style="mask-type:luminance" maskUnits="userSpaceOnUse" x="0" y="0" width="22" height="6">
<path d="M1.00518 0.595874H0.955177V0.645874V5.65266V5.70266H1.00518H21H21.05V5.65266V0.645874V0.595874H21H1.00518Z" fill="white" stroke="white" stroke-width="0.1"/>
</mask>
<g mask="url(#mask2_13_2120)">
<path d="M1.15085 5.05727C0.982787 5.13386 0.908891 5.33198 0.985446 5.49998L0.985459 5.50001C1.06206 5.66784 1.26015 5.74168 1.42809 5.66541L1.42817 5.66538L11.0025 1.29732L20.5768 5.66538L20.5769 5.66543C20.622 5.68585 20.669 5.69544 20.7155 5.69544C20.8423 5.69544 20.9636 5.62293 21.0197 5.50002L21.0197 5.49998C21.0963 5.33194 21.0221 5.13385 20.8543 5.05728L20.8336 5.10277L20.8543 5.05728L11.1413 0.625944L11.1411 0.625892C11.0532 0.586031 10.952 0.586031 10.864 0.625892L10.8639 0.625944L1.15085 5.05727ZM1.15085 5.05727L1.17159 5.10277M1.15085 5.05727L1.15083 5.05728L1.17159 5.10277M1.17159 5.10277L10.8847 0.671434L11.0025 1.24237L1.40742 5.61989C1.26452 5.68478 1.09606 5.62192 1.03094 5.47925M1.17159 5.10277C1.02868 5.16789 0.965825 5.33634 1.03094 5.47925M1.03094 5.47925L1.03094 5.47925L1.03094 5.47925Z" fill="#8C8E98" stroke="#8C8E98" stroke-width="0.1"/>
</g>
<path d="M4.5268 7.1156L4.52679 7.11559C4.45023 6.94785 4.52408 6.74948 4.69216 6.67309L4.5268 7.1156ZM4.5268 7.1156C4.5829 7.23845 4.70417 7.31125 4.83095 7.31125C4.87738 7.31125 4.9247 7.30138 4.96948 7.28097L4.96951 7.28096L14.6826 2.84964C14.6826 2.84963 14.6826 2.84963 14.6826 2.84963C14.8506 2.77303 14.9245 2.57468 14.848 2.4069C14.7714 2.23914 14.5733 2.16495 14.4053 2.24152L14.4052 2.24153L4.69224 6.67306L4.5268 7.1156Z" fill="#8C8E98" stroke="#8C8E98" stroke-width="0.1"/>
<path d="M16.8343 3.83135L16.8343 3.83133C17.0022 3.75455 17.0762 3.55651 16.9994 3.38867C16.9231 3.22056 16.7247 3.1467 16.5569 3.22326C16.5569 3.22326 16.5569 3.22326 16.5569 3.22326L6.85195 7.65068C6.73219 7.70135 6.64817 7.82 6.64817 7.95853C6.64817 8.14311 6.79791 8.29252 6.9824 8.29252C7.03032 8.29252 7.07756 8.28214 7.12099 8.26255L7.12118 8.26246L16.8343 3.83135Z" fill="#8C8E98" stroke="#8C8E98" stroke-width="0.1"/>
<path d="M6.64817 10.5534C6.64817 10.7379 6.79786 10.8876 6.9824 10.8876C7.16693 10.8876 7.31662 10.7379 7.31662 10.5534V7.95854C7.31662 7.77375 7.16691 7.62432 6.9824 7.62432C6.79789 7.62432 6.64817 7.77375 6.64817 7.95854V10.5534Z" fill="#8C8E98" stroke="#8C8E98" stroke-width="0.1"/>
<path d="M4.49677 9.57183C4.49677 9.75636 4.64645 9.90605 4.83099 9.90605C5.01553 9.90605 5.16521 9.75636 5.16521 9.57183V6.97675C5.16521 6.79216 5.01547 6.64275 4.83099 6.64275C4.64651 6.64275 4.49677 6.79216 4.49677 6.97675V9.57183Z" fill="#8C8E98" stroke="#8C8E98" stroke-width="0.1"/>
</svg>
