<svg width="13" height="13" viewBox="0 0 13 13" fill="none" xmlns="http://www.w3.org/2000/svg">
<path d="M11.335 6.5C11.335 6.59946 11.2955 6.69484 11.2252 6.76517C11.1549 6.83549 11.0595 6.875 10.96 6.875H7.21002V10.625C7.21002 10.7245 7.17051 10.8198 7.10019 10.8902C7.02986 10.9605 6.93448 11 6.83502 11C6.73557 11 6.64018 10.9605 6.56986 10.8902C6.49953 10.8198 6.46002 10.7245 6.46002 10.625V6.875H2.71002C2.61057 6.875 2.51518 6.83549 2.44486 6.76517C2.37453 6.69484 2.33502 6.59946 2.33502 6.5C2.33502 6.40054 2.37453 6.30516 2.44486 6.23484C2.51518 6.16451 2.61057 6.125 2.71002 6.125H6.46002V2.375C6.46002 2.27554 6.49953 2.18016 6.56986 2.10984C6.64018 2.03951 6.73557 2 6.83502 2C6.93448 2 7.02986 2.03951 7.10019 2.10984C7.17051 2.18016 7.21002 2.27554 7.21002 2.375V6.125H10.96C11.0595 6.125 11.1549 6.16451 11.2252 6.23484C11.2955 6.30516 11.335 6.40054 11.335 6.5Z" fill="white"/>
</svg>
