<svg width="22" height="22" viewBox="0 0 22 22" fill="none" xmlns="http://www.w3.org/2000/svg">
<mask id="mask0_14_1584" style="mask-type:luminance" maskUnits="userSpaceOnUse" x="0" y="0" width="22" height="22">
<path d="M1 0.901343H0.9V1.00134V20.9986V21.0986H1H21H21.1V20.9986V1.00134V0.901343H21H1Z" fill="white" stroke="white" stroke-width="0.2"/>
</mask>
<g mask="url(#mask0_14_1584)">
<path d="M16.1314 18.3053V16.7086C16.1314 15.3367 15.5974 14.0475 14.6273 13.077C14.6273 13.077 14.6273 13.077 14.6273 13.077M16.1314 18.3053L7.29361 13.0063C8.2824 12.0177 9.59725 11.4729 10.9957 11.4729C12.3944 11.4729 13.709 12.0177 14.698 13.0063L14.6273 13.077M16.1314 18.3053C14.676 19.3315 12.9073 19.9406 10.9957 19.9406C9.08412 19.9406 7.31537 19.3315 5.85981 18.3053V16.7086C5.85981 15.3369 6.39404 14.0475 7.36431 13.077M16.1314 18.3053L7.36431 13.077M14.6273 13.077C13.657 12.1071 12.3678 11.5729 10.9957 11.5729C9.62379 11.5729 8.33437 12.1072 7.36433 13.077M14.6273 13.077L7.36433 13.077M7.36433 13.077C7.36432 13.077 7.36432 13.077 7.36431 13.077M7.36433 13.077L7.36431 13.077M10.9957 0.901343C5.42868 0.901343 0.9 5.43025 0.9 10.9968C0.9 16.5636 5.42868 21.0925 10.9957 21.0925C16.5623 21.0925 21.0912 16.5636 21.0912 10.9968C21.0912 5.43025 16.5623 0.901343 10.9957 0.901343ZM8.71569 8.14094C8.71569 6.88404 9.73878 5.86115 10.9957 5.86115C12.2526 5.86115 13.2755 6.88403 13.2755 8.14094C13.2755 9.39786 12.2526 10.421 10.9957 10.421C9.73879 10.421 8.71569 9.39807 8.71569 8.14094ZM15.4419 12.2627C14.783 11.6038 14.0021 11.1139 13.1518 10.8046C13.9281 10.1754 14.4277 9.21662 14.4277 8.14094C14.4277 6.24889 12.888 4.70919 10.9957 4.70919C9.10321 4.70919 7.56373 6.2489 7.56373 8.14094C7.56373 9.2166 8.06309 10.1756 8.83938 10.8048C7.98947 11.114 7.2084 11.604 6.54977 12.2627C5.36214 13.4503 4.70807 15.0292 4.70807 16.7086V17.3386C3.07165 15.717 2.05219 13.4762 2.05219 10.9968C2.05219 6.06538 6.06427 2.0533 10.9957 2.0533C15.9271 2.0533 19.9392 6.06538 19.9392 10.9968C19.9392 13.4761 18.9196 15.717 17.2836 17.3386V16.7086C17.2836 15.0292 16.629 13.4498 15.4419 12.2627Z" fill="#8C8E98" stroke="#8C8E98" stroke-width="0.2"/>
</g>
</svg>
