<svg width="20" height="20" viewBox="0 0 20 20" fill="none" xmlns="http://www.w3.org/2000/svg">
<path fill-rule="evenodd" clip-rule="evenodd" d="M3.70645 5.0788C3.71659 5.12325 3.73219 5.16536 3.75324 5.20592C3.7743 5.24647 3.79926 5.28468 3.82889 5.319C3.85852 5.35331 3.89206 5.38451 3.92871 5.41102C3.96615 5.43832 4.00514 5.46015 4.04803 5.47731C4.09015 5.49525 4.13382 5.50695 4.17905 5.51397C4.22428 5.52176 4.26951 5.52332 4.31553 5.51942C4.36076 5.5163 4.40521 5.50695 4.44888 5.49291C4.49256 5.47887 4.53389 5.45937 4.57288 5.43598L6.53347 4.23966C6.59898 4.19911 6.65435 4.14842 6.69958 4.08681C6.74403 4.02442 6.77601 3.95657 6.79316 3.88248C6.8111 3.8084 6.81422 3.73353 6.80174 3.65788C6.79004 3.58224 6.76431 3.51205 6.72376 3.44732C6.68398 3.38181 6.63251 3.32722 6.57012 3.28199C6.50851 3.23753 6.43988 3.20634 6.36502 3.1884C6.29093 3.17047 6.21528 3.16735 6.13964 3.17982C6.06399 3.19152 5.99302 3.21726 5.92751 3.25703L5.49703 3.52219C5.60933 3.32176 5.73566 3.13147 5.87682 2.94976C6.0172 2.76883 6.17083 2.59804 6.33694 2.43973C6.50383 2.28142 6.68086 2.13558 6.86881 2.00301C7.05676 1.87043 7.25328 1.75267 7.45917 1.64973C7.66505 1.54678 7.87718 1.45944 8.09554 1.38691C8.31468 1.31516 8.53773 1.26057 8.76467 1.22158C8.99161 1.18259 9.22011 1.16075 9.45017 1.15607C9.68101 1.15139 9.91029 1.16387 10.1388 1.19272C10.3673 1.22158 10.5919 1.26759 10.8134 1.32998C11.0349 1.39315 11.2509 1.47114 11.4607 1.5655C11.6705 1.66064 11.8724 1.76982 12.0658 1.8946C12.2592 2.0186 12.4425 2.15664 12.6149 2.30793C12.788 2.46001 12.9487 2.623 13.0968 2.79847C13.245 2.97394 13.3799 3.15955 13.5 3.35451C13.6209 3.54948 13.7262 3.75303 13.8166 3.96359C13.9071 4.17493 13.9804 4.39096 14.0389 4.61322C14.0561 4.68887 14.0873 4.75827 14.1333 4.82144C14.1785 4.88383 14.2347 4.93608 14.3009 4.97664C14.368 5.01641 14.4398 5.04293 14.517 5.05462C14.5942 5.06554 14.6706 5.06164 14.7462 5.04293C14.8219 5.02343 14.8905 4.98989 14.9529 4.9431C15.0145 4.89631 15.0652 4.8386 15.1042 4.77153C15.1432 4.70446 15.1674 4.63194 15.1767 4.55473C15.1861 4.47752 15.1806 4.40188 15.1588 4.32701C15.0863 4.04704 14.9935 3.77408 14.8796 3.50815C14.7657 3.24143 14.6324 2.98564 14.4795 2.7392C14.3267 2.49354 14.1567 2.25958 13.9687 2.03888C13.7808 1.81818 13.578 1.61307 13.3589 1.42278C13.1397 1.2325 12.9073 1.05937 12.6624 0.904172C12.4176 0.748979 12.1618 0.612502 11.8966 0.494742C11.6307 0.377762 11.3577 0.281059 11.077 0.204632C10.797 0.128205 10.5123 0.0736143 10.2238 0.0393002C9.93525 0.00576586 9.64592 -0.00671201 9.35503 0.0034264C9.06492 0.0127848 8.77636 0.0439795 8.49093 0.0970104C8.20472 0.149261 7.92475 0.223349 7.65024 0.317713C7.37572 0.412856 7.10979 0.527497 6.85243 0.661634C6.59508 0.796551 6.34942 0.949405 6.11468 1.1202C5.88072 1.29177 5.6608 1.47971 5.45491 1.68404C5.24903 1.88836 5.05952 2.10673 4.88717 2.33913C4.71404 2.57153 4.55963 2.81563 4.42393 3.07142L4.31007 2.58635C4.29213 2.51226 4.26172 2.44363 4.21648 2.38202C4.17203 2.31963 4.11666 2.26816 4.05193 2.22839C3.98642 2.18783 3.91624 2.16132 3.84059 2.14884C3.76416 2.13636 3.68929 2.13948 3.61443 2.15664C3.53956 2.1738 3.47093 2.20499 3.40854 2.24944C3.34615 2.2939 3.29468 2.34849 3.25413 2.41321C3.21358 2.47872 3.18706 2.54891 3.17458 2.62378C3.1621 2.69943 3.16522 2.77429 3.18238 2.84838L3.70645 5.0788Z" fill="black" fill-opacity="0.8"/>
<path fill-rule="evenodd" clip-rule="evenodd" d="M14.8664 5.9489C14.7806 5.9138 14.6909 5.89977 14.5989 5.90678C14.5061 5.9138 14.4203 5.94188 14.3407 5.99023L12.3801 7.18577C12.3146 7.22554 12.2593 7.27623 12.214 7.33862C12.1688 7.40023 12.1376 7.46808 12.1197 7.54216C12.1017 7.61703 12.0994 7.6919 12.1111 7.76677C12.1236 7.84241 12.1493 7.9126 12.1899 7.97733C12.2296 8.04284 12.2811 8.09743 12.3427 8.14266C12.4051 8.18711 12.4737 8.21831 12.5486 8.23625C12.6227 8.25418 12.6983 8.2573 12.774 8.24482C12.8496 8.23313 12.9206 8.20661 12.9853 8.16684L13.4166 7.90168C13.3043 8.10211 13.1779 8.29318 13.0368 8.47411C12.8964 8.65581 12.7428 8.82583 12.5767 8.98414C12.4106 9.14323 12.2335 9.28907 12.0448 9.42086C11.8569 9.55344 11.6603 9.6712 11.4544 9.77492C11.2493 9.87787 11.0372 9.96521 10.8181 10.037C10.5997 10.1095 10.3767 10.1641 10.1497 10.2031C9.92278 10.2421 9.69428 10.2639 9.46422 10.2686C9.23338 10.274 9.0041 10.2616 8.7756 10.2327C8.5471 10.2031 8.32249 10.1578 8.10101 10.0954C7.87953 10.0331 7.66351 9.95429 7.45372 9.85993C7.24394 9.76556 7.04195 9.65638 6.84855 9.53238C6.65514 9.40761 6.47187 9.26957 6.29874 9.11828C6.12639 8.96698 5.96574 8.80399 5.81678 8.62852C5.66861 8.45305 5.53369 8.26822 5.41359 8.07247C5.29271 7.87751 5.18665 7.67474 5.09697 7.46418C5.0065 7.25283 4.93241 7.03681 4.87392 6.81455C4.85365 6.7428 4.82011 6.67729 4.77332 6.61802C4.72731 6.55875 4.67116 6.5104 4.60565 6.47297C4.54014 6.43553 4.47073 6.41214 4.39587 6.402C4.321 6.39186 4.24691 6.39654 4.17438 6.41448C4.10108 6.43319 4.03401 6.46517 3.97396 6.50962C3.91313 6.55407 3.86322 6.60866 3.82422 6.67261C3.78445 6.73656 3.75871 6.80597 3.74702 6.88006C3.73454 6.95415 3.73688 7.02745 3.75404 7.10076C3.82578 7.38073 3.91937 7.65447 4.03323 7.9204C4.14709 8.18711 4.28045 8.44291 4.43252 8.68935C4.58537 8.93579 4.75538 9.16975 4.94333 9.39045C5.13128 9.61115 5.33483 9.81704 5.55397 10.0073C5.77311 10.1976 6.00473 10.3707 6.25039 10.5267C6.49527 10.6819 6.75106 10.8184 7.017 10.9361C7.28215 11.0531 7.55589 11.1506 7.83586 11.227C8.11661 11.3035 8.40126 11.3581 8.68981 11.3924C8.97914 11.4259 9.26847 11.4376 9.55936 11.4282C9.85025 11.4189 10.138 11.3877 10.4242 11.3347C10.7104 11.2816 10.9904 11.2083 11.2657 11.1132C11.5402 11.0188 11.8062 10.9042 12.0635 10.7693C12.3209 10.6343 12.5673 10.4815 12.8013 10.3099C13.0352 10.1383 13.2559 9.95039 13.4618 9.74607C13.6669 9.54174 13.8564 9.3226 14.0296 9.0902C14.2019 8.85702 14.3563 8.61292 14.492 8.35713L14.6067 8.8422C14.6238 8.91629 14.655 8.98414 14.6995 9.04653C14.7447 9.10892 14.7993 9.15961 14.8648 9.20016C14.9295 9.23993 15.0005 9.26645 15.0761 9.27893C15.1518 9.29141 15.2267 9.28907 15.3015 9.27191C15.3764 9.25397 15.445 9.22356 15.5074 9.17911C15.5698 9.13387 15.6213 9.07928 15.6618 9.01455C15.7024 8.94982 15.7289 8.87964 15.7414 8.80477C15.7538 8.72912 15.7515 8.65425 15.7336 8.58017L15.2103 6.35131C15.1884 6.26084 15.1479 6.17974 15.0871 6.10877C15.0262 6.0378 14.9529 5.98477 14.8664 5.9489Z" fill="black" fill-opacity="0.8"/>
<mask id="mask0_214_515" style="mask-type:luminance" maskUnits="userSpaceOnUse" x="0" y="11" width="20" height="9">
<path d="M0.716431 11.7644H19.2835V19.9998H0.716431V11.7644Z" fill="white"/>
</mask>
<g mask="url(#mask0_214_515)">
<path fill-rule="evenodd" clip-rule="evenodd" d="M16.3957 12.279L12.7467 15.3984H12.5159C12.6289 15.1434 12.6874 14.8767 12.6921 14.5983C12.6921 14.4868 12.6812 14.376 12.6586 14.2661C12.6367 14.1561 12.6048 14.05 12.5611 13.9463C12.5182 13.8434 12.466 13.7451 12.4028 13.6523C12.3404 13.5595 12.2694 13.4729 12.1899 13.3942C12.1111 13.3146 12.0246 13.2444 11.931 13.182C11.8374 13.1204 11.7391 13.0674 11.6354 13.0245C11.5309 12.9816 11.4241 12.9496 11.3141 12.9278C11.2041 12.906 11.0926 12.895 10.9803 12.895H5.3099C5.16484 12.895 5.0385 12.9426 4.9301 13.0378L4.31011 13.5767V13.4651C4.31011 13.3988 4.30387 13.3333 4.29061 13.2678C4.27735 13.2031 4.25864 13.1399 4.2329 13.0783C4.20795 13.0167 4.17597 12.9582 4.13932 12.9028C4.10266 12.8483 4.06055 12.7968 4.01298 12.75C3.96619 12.7024 3.91472 12.6603 3.85935 12.6237C3.80398 12.587 3.74549 12.555 3.68388 12.5301C3.62227 12.5043 3.5591 12.4848 3.49359 12.4716C3.42808 12.4583 3.36179 12.4521 3.29472 12.4521H1.85977C1.7927 12.4521 1.72641 12.4583 1.6609 12.4716C1.59539 12.4841 1.53144 12.5036 1.46983 12.5293C1.40822 12.5542 1.34973 12.5854 1.29436 12.6229C1.23821 12.6595 1.18752 12.7016 1.13995 12.7484C1.09238 12.7952 1.05027 12.8467 1.01361 12.9021C0.976178 12.9574 0.944983 13.0159 0.919248 13.0768C0.893512 13.1384 0.874016 13.2015 0.861538 13.267C0.84828 13.3326 0.842041 13.3981 0.842041 13.4644V18.9866C0.842041 19.0529 0.84828 19.1192 0.861538 19.1839C0.874016 19.2494 0.893512 19.3126 0.919248 19.3734C0.944204 19.435 0.975398 19.4935 1.01283 19.5481C1.04949 19.6035 1.0916 19.6549 1.13839 19.7017C1.18596 19.7485 1.23665 19.7906 1.29202 19.8281C1.34739 19.8647 1.40588 19.8959 1.46749 19.9216C1.5291 19.9474 1.59227 19.9661 1.65778 19.9794C1.72329 19.9926 1.78958 19.9996 1.85587 19.9996H3.2916C3.35867 19.9996 3.42418 19.9934 3.48969 19.9801C3.5552 19.9669 3.61915 19.9482 3.68076 19.9224C3.74237 19.8967 3.80086 19.8655 3.85623 19.8288C3.91238 19.7914 3.96385 19.7501 4.01064 19.7025C4.05821 19.6557 4.10032 19.6042 4.13698 19.5497C4.17441 19.4943 4.20561 19.4358 4.23134 19.3742C4.25708 19.3126 4.27579 19.2494 4.28905 19.1847C4.30231 19.1192 4.30855 19.0529 4.30855 18.9866V18.8049H13.4353C13.642 18.8049 13.8424 18.769 14.0366 18.698C14.2308 18.6263 14.407 18.5233 14.5638 18.39L18.6269 14.9282C18.7127 14.8549 18.7899 14.7737 18.8585 14.6848C18.9279 14.5967 18.988 14.5024 19.0387 14.4018C19.0901 14.3019 19.1307 14.1974 19.1611 14.089C19.1915 13.9814 19.211 13.8714 19.2196 13.7591C19.229 13.6476 19.2266 13.5361 19.2141 13.4246C19.2009 13.3131 19.1775 13.2039 19.1432 13.097C19.1089 12.9894 19.0644 12.8873 19.0098 12.789C18.9552 12.6907 18.8921 12.5987 18.8195 12.5121C18.747 12.4263 18.6675 12.3484 18.5793 12.2774C18.492 12.2072 18.3976 12.1456 18.2978 12.0933C18.198 12.0411 18.0943 11.9982 17.9866 11.9662C17.8782 11.9343 17.7683 11.9124 17.656 11.9015C17.5437 11.8906 17.4314 11.8906 17.3191 11.9015C17.2068 11.9124 17.0968 11.9343 16.9884 11.9662C16.8808 11.9982 16.7771 12.0411 16.6772 12.0933C16.5774 12.1456 16.4838 12.2072 16.3957 12.2774V12.279ZM3.15123 18.8486H1.99546V13.6032H3.15123V18.8486ZM17.8798 14.05L13.8128 17.515C13.7044 17.607 13.5788 17.653 13.4361 17.653H4.31089V15.106L5.5306 14.0461H10.9819C11.0552 14.0461 11.1261 14.0602 11.194 14.0882C11.2618 14.1163 11.3219 14.1561 11.3741 14.2083C11.4256 14.2598 11.4662 14.3191 11.4942 14.3869C11.5223 14.4548 11.5364 14.525 11.5364 14.5983C11.527 14.812 11.4552 15.0022 11.3211 15.1699C11.2439 15.3009 11.13 15.3774 10.9787 15.3984H7.13167C7.05446 15.3984 6.98115 15.4125 6.91018 15.4421C6.83922 15.4709 6.77605 15.5123 6.72224 15.5669C6.66765 15.6207 6.62553 15.6831 6.59668 15.7533C6.56704 15.8242 6.55223 15.8975 6.55223 15.974C6.55223 16.0504 6.56704 16.1237 6.59668 16.1947C6.62553 16.2649 6.66765 16.3272 6.72224 16.3811C6.77605 16.4356 6.83922 16.477 6.91018 16.5058C6.98115 16.5355 7.05446 16.5495 7.13167 16.5495H12.9581C13.1015 16.5495 13.2279 16.5035 13.3363 16.4107L17.1405 13.161C17.1997 13.1126 17.266 13.0768 17.3393 13.0541C17.4134 13.0315 17.4883 13.0237 17.5647 13.0307C17.6412 13.0378 17.7137 13.0596 17.7815 13.0947C17.8494 13.1306 17.9079 13.1781 17.957 13.2366C18.0061 13.2951 18.042 13.3614 18.0646 13.4347C18.088 13.5072 18.0958 13.5821 18.0888 13.6585C18.0818 13.7342 18.0599 13.8059 18.0241 13.8738C17.989 13.9416 17.9414 14.0001 17.8821 14.0493L17.8798 14.05Z" fill="black" fill-opacity="0.8"/>
</g>
</svg>
