<svg width="40" height="36" viewBox="0 0 40 36" fill="none" xmlns="http://www.w3.org/2000/svg">
<g clip-path="url(#clip0_13_1076)">
<mask id="mask0_13_1076" style="mask-type:luminance" maskUnits="userSpaceOnUse" x="1" y="9" width="22" height="27">
<path d="M1.73926 9.22595H22.2287V35.5H1.73926V9.22595Z" fill="white"/>
</mask>
<g mask="url(#mask0_13_1076)">
<path d="M17.8722 31.6673C17.3293 31.192 15.5035 29.3841 14.8039 26.05C14.7537 25.8112 14.5261 25.6553 14.2886 25.6978C14.0515 25.7403 13.8899 25.9663 13.9239 26.208C14.3203 29.0537 15.1082 31.1955 15.7595 32.3609C15.0112 32.7056 14.064 32.9344 13.6351 33.0272C13.3093 32.6757 12.5799 31.8194 12.3621 30.9802C12.3032 30.7545 12.0857 30.6109 11.8588 30.6482C11.6319 30.685 11.4696 30.8902 11.4832 31.123C11.5568 32.3604 11.6806 33.1484 11.7712 33.5895C11.0883 33.801 9.61705 34.2126 8.28775 34.2877C8.14127 33.2932 7.93097 32.122 7.0668 30.0583C6.97997 29.8498 6.75497 29.739 6.54052 29.797C6.32535 29.8549 6.1849 30.0649 6.21132 30.2893C6.42122 32.0675 6.3295 33.7665 6.27285 34.484C4.7952 34.6395 3.37152 34.638 2.79617 34.4888C3.40437 32.2306 4.37992 26.8966 4.4237 26.6577C4.42937 26.6273 4.43202 26.5966 4.43125 26.5661C4.42485 26.239 4.64985 25.9547 4.96622 25.8912L15.9396 23.6778C16.2446 23.6158 16.5489 23.777 16.6754 24.0623C16.7641 24.4714 17.4214 26.8728 21.1185 30.143C20.1528 31.0177 18.457 31.5153 17.8722 31.6673ZM4.42145 24.4415L6.86482 21.0964C6.9324 21.0041 7.03095 20.9405 7.14232 20.9183C7.49645 20.8467 7.8011 20.6398 8.00195 20.3357C8.20243 20.0316 8.27378 19.6662 8.20355 19.3074L6.83425 12.321C7.07435 12.758 7.5727 13.0096 8.08237 12.9074C8.59167 12.8043 8.9575 12.3781 9.0145 11.8809L10.3838 18.8677C10.5291 19.6084 11.2412 20.091 11.9721 19.9439C12.0831 19.9213 12.1978 19.9416 12.2956 20.0014L15.8142 22.1431C15.827 22.1508 15.8573 22.1692 15.8486 22.219C15.8399 22.2691 15.8059 22.276 15.7912 22.2791L4.49392 24.558C4.4792 24.5606 4.44522 24.5675 4.41842 24.5246C4.39162 24.4821 4.41237 24.4534 4.42145 24.4415ZM7.90832 12.0177C7.7611 12.0471 7.61612 11.9495 7.58705 11.7997C7.5576 11.6496 7.65387 11.5033 7.8015 11.4734C7.9491 11.4436 8.0937 11.5412 8.12277 11.6913C8.15222 11.8411 8.05595 11.9874 7.90832 12.0177ZM6.67985 11.532C6.56017 10.9223 6.95205 10.3279 7.55345 10.2065C7.62632 10.1915 7.69955 10.1842 7.77242 10.1842C7.98987 10.1842 8.2028 10.2497 8.38742 10.375C8.63433 10.5419 8.80195 10.797 8.8601 11.0923L8.87557 11.1701C8.63545 10.7327 8.13635 10.4814 7.62707 10.5837C7.11815 10.6863 6.75157 11.1126 6.69495 11.6102L6.67985 11.532ZM22.1145 30.3971C22.2689 30.2049 22.2428 29.9231 22.056 29.7638C18.0341 26.329 17.5493 23.8743 17.5452 23.8525C17.5403 23.8218 17.532 23.792 17.521 23.7632C17.3425 23.3002 16.9687 22.9658 16.5259 22.8283C16.6285 22.7008 16.6999 22.546 16.7297 22.3748C16.7988 21.9719 16.6199 21.5755 16.2744 21.3652L12.7554 19.2235C12.4674 19.0477 12.1272 18.9875 11.7977 19.0542C11.5511 19.1044 11.3099 18.9408 11.2608 18.6904L9.7371 10.9154C9.63252 10.3822 9.32975 9.92224 8.88425 9.62046C8.43877 9.31865 7.90417 9.21063 7.37902 9.31672C6.29437 9.53542 5.58687 10.6086 5.80282 11.709L7.32655 19.4843C7.37562 19.7348 7.2148 19.9788 6.9679 20.0286C6.6383 20.0948 6.34647 20.2825 6.1464 20.5563L3.703 23.9011C3.4629 24.2293 3.44742 24.6648 3.66297 25.0103C3.76302 25.1704 3.90272 25.2918 4.06202 25.3695C3.74112 25.6579 3.54217 26.0754 3.5369 26.5334C3.43722 27.0762 2.38994 32.7477 1.83686 34.5915C1.78627 34.7597 1.83611 34.942 1.96447 35.06C2.19703 35.2735 2.65987 35.5084 4.14622 35.5084C4.3297 35.5084 4.52942 35.5051 4.7465 35.4972C5.773 35.461 6.6991 35.3483 6.73797 35.3438C6.94297 35.3184 7.10457 35.1538 7.12835 34.9458C7.13362 34.8982 7.20007 34.3034 7.22687 33.4107C7.32315 33.8649 7.38055 34.2613 7.4368 34.6524L7.46095 34.819C7.49305 35.0415 7.68142 35.2066 7.90305 35.2063H7.90455C9.92472 35.2007 12.3496 34.3564 12.4515 34.3207C12.6822 34.2395 12.8053 33.9841 12.7298 33.749C12.7283 33.7454 12.6773 33.5831 12.6112 33.2199C12.9106 33.5885 13.1537 33.8264 13.1768 33.8484C13.2802 33.9489 13.4248 33.9925 13.5653 33.9669C13.6438 33.9522 15.5016 33.6042 16.6225 32.928C16.729 32.8641 16.8045 32.7576 16.8309 32.6351C16.8573 32.5121 16.8324 32.3843 16.7618 32.2808C16.5708 31.9998 16.365 31.6163 16.1589 31.1456C16.8604 32.0429 17.4463 32.4885 17.4969 32.5268C17.6003 32.6034 17.731 32.6318 17.8563 32.6044C17.9794 32.5778 20.8883 31.9257 22.1145 30.3971Z" fill="#545454"/>
</g>
<path d="M25.4888 24.1661H28.472V27.3967H25.4888V24.1661ZM25.0418 28.3042H28.919C29.1655 28.3042 29.366 28.1008 29.366 27.8502V23.7123C29.366 23.4618 29.1655 23.2588 28.919 23.2588H25.0418C24.7948 23.2588 24.5947 23.4618 24.5947 23.7123V27.8502C24.5947 28.1008 24.7948 28.3042 25.0418 28.3042Z" fill="#545454"/>
<mask id="mask1_13_1076" style="mask-type:luminance" maskUnits="userSpaceOnUse" x="11" y="2" width="29" height="32">
<path d="M11.2109 2.85278H39.867V33.7381H11.2109V2.85278Z" fill="white"/>
</mask>
<g mask="url(#mask1_13_1076)">
<path d="M38.9707 16.6877H36.0935C35.8467 16.6877 35.6462 16.8906 35.6462 17.1415V32.7427H22.1804C22.7139 32.3777 23.1567 31.9775 23.504 31.5443L24.6166 30.1582C24.7706 29.966 24.7446 29.6845 24.5577 29.5247L23.2096 28.3735C23.1824 28.3502 23.1556 28.3271 23.1284 28.3042H23.7064C23.9533 28.3042 24.1534 28.1008 24.1534 27.8503V23.7123C24.1534 23.4618 23.9533 23.2588 23.7064 23.2588H19.8291C19.5822 23.2588 19.3821 23.4618 19.3821 23.7123V23.7135C19.347 23.625 19.3244 23.5587 19.3108 23.5158L19.3055 23.4526C19.3017 23.409 19.2919 23.3665 19.2764 23.3259L19.1896 23.1007C19.0356 22.702 18.8143 22.3431 18.5308 22.0309C18.4776 21.1106 17.9887 20.289 17.1962 19.8068L13.6772 17.6651C13.6742 17.6632 13.6712 17.6613 13.6678 17.6593C13.2159 17.3993 13.103 17.0798 13.0894 17.035L12.2196 12.8212L24.3739 3.8781L38.9707 14.6183V16.6877ZM13.0921 17.0484L13.0909 17.0419C13.0913 17.045 13.0925 17.0488 13.0925 17.0488C13.0925 17.0488 13.0925 17.0488 13.0921 17.0484ZM39.6805 14.02L24.6366 2.95048C24.4799 2.83519 24.2682 2.83519 24.1115 2.95048L11.46 12.2598C11.3173 12.3643 11.249 12.5447 11.2852 12.7197L12.217 17.2342C12.2177 17.2369 12.2181 17.24 12.2188 17.2426C12.2355 17.3162 12.4046 17.9734 13.2219 18.4456L16.736 20.5847C17.3087 20.9332 17.6474 21.543 17.641 22.2163C17.6398 22.3404 17.6889 22.4595 17.7769 22.5457C18.0317 22.7969 18.2269 23.0949 18.3568 23.4312L18.4202 23.5951L18.424 23.6407C18.4262 23.6702 18.4315 23.6993 18.4394 23.728C18.4934 23.9172 18.7264 24.6181 19.4637 25.679C19.5762 25.8407 19.7785 25.91 19.9643 25.8502C20.15 25.7905 20.2765 25.6155 20.2765 25.4178V24.1662H23.2594V27.3968H21.9573C21.7742 27.3968 21.6092 27.5102 21.542 27.6829C21.4744 27.8561 21.5178 28.0532 21.6511 28.1807C21.9663 28.481 22.2967 28.7795 22.6338 29.0674L23.6456 29.9312L22.8105 30.9719C22.2525 31.6678 21.3838 32.2755 20.2286 32.7794C20.0338 32.8646 19.9243 33.0767 19.9669 33.2877C20.01 33.4984 20.1931 33.6496 20.4052 33.6496H36.0935C36.3405 33.6496 36.5405 33.4467 36.5405 33.1959V17.595H39.4182C39.6647 17.595 39.8652 17.3916 39.8652 17.1415V14.387C39.8652 14.2418 39.7965 14.1051 39.6805 14.02Z" fill="#545454"/>
</g>
<path d="M23.2593 21.9394H20.2765V18.7083H23.2593V21.9394ZM23.7063 17.8014H19.8291C19.5822 17.8014 19.3821 18.0044 19.3821 18.2549V22.3928C19.3821 22.6433 19.5822 22.8463 19.8291 22.8463H23.7063C23.9532 22.8463 24.1533 22.6433 24.1533 22.3928V18.2549C24.1533 18.0044 23.9532 17.8014 23.7063 17.8014Z" fill="#545454"/>
<path d="M25.4888 18.7083H28.472V21.9394H25.4888V18.7083ZM25.0418 22.8463H28.919C29.1655 22.8463 29.366 22.6433 29.366 22.3928V18.2549C29.366 18.0044 29.1655 17.8014 28.919 17.8014H25.0418C24.7948 17.8014 24.5947 18.0044 24.5947 18.2549V22.3928C24.5947 22.6433 24.7948 22.8463 25.0418 22.8463Z" fill="#545454"/>
<path d="M11.478 2.97765C11.9416 3.97078 12.7356 4.77586 13.7142 5.24618C12.7356 5.7165 11.9416 6.52119 11.478 7.51471C11.0148 6.52119 10.2209 5.7165 9.24192 5.24618C10.2209 4.77586 11.0148 3.97078 11.478 2.97765ZM7.24705 5.69966C9.33367 5.69966 11.031 7.42163 11.031 9.5385C11.031 9.78936 11.2315 9.99197 11.478 9.99197C11.7253 9.99197 11.9254 9.78936 11.9254 9.5385C11.9254 7.42163 13.6232 5.69966 15.7098 5.69966C15.9567 5.69966 16.1568 5.49666 16.1568 5.24618C16.1568 4.9957 15.9567 4.7927 15.7098 4.7927C13.6232 4.7927 11.9254 3.07034 11.9254 0.953476C11.9254 0.702992 11.7253 0.5 11.478 0.5C11.2315 0.5 11.031 0.702992 11.031 0.953476C11.031 3.07034 9.33367 4.7927 7.24705 4.7927C7.00015 4.7927 6.80005 4.9957 6.80005 5.24618C6.80005 5.49666 7.00015 5.69966 7.24705 5.69966Z" fill="#545454"/>
<path d="M3.95805 6.72035C4.3333 7.44997 4.92378 8.04863 5.6426 8.42969C4.92378 8.81041 4.3333 9.40944 3.95805 10.1387C3.5824 9.40944 2.99233 8.81041 2.2735 8.42969C2.99233 8.04863 3.5824 7.44997 3.95805 6.72035ZM3.51105 11.9912C3.51105 12.2417 3.71115 12.4451 3.95805 12.4451C4.20495 12.4451 4.40505 12.2417 4.40505 11.9912C4.40505 10.2773 5.77925 8.88317 7.4691 8.88317C7.71562 8.88317 7.9161 8.6802 7.9161 8.42969C7.9161 8.17922 7.71562 7.97624 7.4691 7.97624C5.77925 7.97624 4.40505 6.58172 4.40505 4.86778C4.40505 4.61728 4.20495 4.41431 3.95805 4.41431C3.71115 4.41431 3.51105 4.61728 3.51105 4.86778C3.51105 6.58172 2.13645 7.97624 0.446997 7.97624C0.200469 7.97624 0 8.17922 0 8.42969C0 8.6802 0.200469 8.88317 0.446997 8.88317C2.13645 8.88317 3.51105 10.2773 3.51105 11.9912Z" fill="#545454"/>
</g>
<defs>
<clipPath id="clip0_13_1076">
<rect width="40" height="35" fill="white" transform="translate(0 0.5)"/>
</clipPath>
</defs>
</svg>
