<svg width="40" height="34" viewBox="0 0 40 34" fill="none" xmlns="http://www.w3.org/2000/svg">
<g clip-path="url(#clip0_13_1172)">
<mask id="mask0_13_1172" style="mask-type:luminance" maskUnits="userSpaceOnUse" x="0" y="0" width="40" height="34">
<path d="M0 0.5H39.9879V33.5H0V0.5Z" fill="white"/>
</mask>
<g mask="url(#mask0_13_1172)">
<path fill-rule="evenodd" clip-rule="evenodd" d="M29.2756 6.99968L20.5094 17.7114H19.0874L28.415 6.31216C28.5064 6.20283 28.639 6.13008 28.7862 6.11645C29.28 6.06315 29.5787 6.62422 29.2756 6.99968ZM26.969 16.0539V11.7182L21.6651 18.1989C21.8281 18.4036 21.9263 18.6678 21.9263 18.9503V20.0296C22.6154 20.1845 23.1313 20.7903 23.1313 21.5144V23.6454H24.4708C24.9544 23.6454 25.3489 23.2587 25.3489 22.7801V20.749C25.3489 19.2094 25.9544 17.2662 26.969 16.0539ZM29.9838 16.0126C28.8163 15.9126 28.1326 16.2998 27.4635 17.4425C26.8371 18.5129 26.5576 19.8747 26.5576 20.749V22.7801C26.5576 23.919 25.6206 24.8386 24.4708 24.8386H8.44827C7.29846 24.8386 6.36163 23.919 6.36163 22.7801V20.749C6.36163 19.8747 6.08236 18.5129 5.45598 17.4425C4.7716 16.2741 4.0746 15.9188 2.93543 16.0126C1.97613 16.0947 1.22391 16.9009 1.22391 17.8526C1.22391 18.7682 1.8862 19.5331 2.79817 19.6786C4.22253 19.9062 5.25598 21.0996 5.25598 22.5252V28.3546C5.25598 28.7826 5.60823 29.1289 6.04015 29.1289H26.8793C27.3113 29.1289 27.6635 28.7826 27.6635 28.3546V22.5252C27.6635 21.0996 28.697 19.9062 30.121 19.6786C31.0337 19.5331 31.6953 18.7678 31.6953 17.8526C31.6953 16.9009 30.9435 16.0947 29.9838 16.0126ZM24.7891 32.3261V30.3221H25.8953V32.3261H24.7891ZM8.12995 32.3261H7.02391V30.3221H8.12995V32.3261ZM20.6676 18.9001C20.694 18.9001 20.7173 18.9273 20.7173 18.9503V19.993H17.2954V18.9503C17.2954 18.9273 17.3191 18.9001 17.3455 18.9001H20.6676ZM10.9246 23.6454L11.9759 22.284C12.5305 21.5642 13.3075 21.1864 14.2219 21.1864H21.5878C21.7689 21.1864 21.9219 21.3365 21.9219 21.514V23.6454H10.9246ZM7.21601 10.2241C6.51824 10.2241 5.95063 10.7844 5.95063 11.4719V16.0539C6.1443 16.2861 6.32772 16.5499 6.50284 16.846C7.15133 17.9573 7.57063 19.4876 7.57063 20.749V22.7801C7.57063 23.2587 7.96508 23.6454 8.44827 23.6454H9.40483L11.013 21.5642C11.7944 20.5486 12.9332 19.993 14.2219 19.993H16.0864V18.9503C16.0864 18.267 16.6513 17.7114 17.3455 17.7114H17.5333L23.6611 10.2241H20.7918C19.7663 10.47 18.973 11.3171 18.8105 12.3509C18.7048 13.0201 17.721 13.0201 17.6157 12.3509C17.4528 11.3171 16.66 10.47 15.6336 10.2241H7.21601ZM18.2129 8.5938C17.9403 8.99924 17.5916 9.34981 17.1869 9.62761C17.5916 9.90543 17.9407 10.256 18.2129 10.6568C18.4855 10.256 18.8342 9.90543 19.2389 9.62761C18.8342 9.34981 18.4851 8.99924 18.2129 8.5938ZM37.6577 29.6844C37.5314 29.771 37.4017 29.8578 37.2701 29.9441C36.1532 30.6954 34.887 31.547 33.7421 31.2557C33.1164 31.1008 32.6887 30.7366 32.4361 30.1445C31.6512 28.3137 32.7132 24.7248 33.7484 22.9396C34.8611 21.0218 36.2153 19.5374 37.5809 17.8569C41.6417 12.8606 40.4958 4.0745 33.3283 3.99396C32.0306 3.98035 30.7651 4.33986 29.5586 5.06863C28.832 4.74841 27.9767 4.95036 27.4737 5.56511L24.6369 9.03076H20.7918C19.7659 8.78056 18.973 7.93313 18.8101 6.90398C18.7044 6.23475 17.7202 6.23513 17.6153 6.90398C17.4528 7.93351 16.6595 8.78056 15.6324 9.03076H7.21601C5.85121 9.03076 4.74163 10.1237 4.74163 11.4719V15.1064C4.189 14.8512 3.56103 14.7601 2.83208 14.8239C1.25231 14.9558 0.0149231 16.2904 0.0149231 17.8526C0.0149231 19.3553 1.10479 20.6167 2.60607 20.8583C3.44151 20.9902 4.0466 21.6918 4.0466 22.5252V28.3546C4.0466 29.3654 4.82129 30.199 5.81492 30.3083V32.4851C5.81492 33.0545 6.2859 33.5191 6.86457 33.5191H8.28971C8.86876 33.5191 9.33894 33.0545 9.33894 32.4851V30.3219H23.5802V32.4851C23.5802 33.0545 24.0512 33.5191 24.6293 33.5191H26.055C26.6332 33.5191 27.1043 33.0545 27.1043 32.4851V30.3085C28.0979 30.199 28.8725 29.3659 28.8725 28.3546V22.5252C28.8725 21.6918 29.4781 20.9902 30.313 20.8583C31.8148 20.6171 32.9043 19.3553 32.9043 17.8526C32.9043 16.2904 31.6672 14.9562 30.0875 14.8239C29.3588 14.7601 28.7309 14.8512 28.1779 15.1064V11.4719C28.1779 11.1307 28.1052 10.8027 27.968 10.4929L30.216 7.74675C30.6388 7.23042 30.7212 6.54058 30.4475 5.93864C31.377 5.42855 32.3375 5.17368 33.3139 5.18731C36.0972 5.21921 37.4192 6.76313 38.0383 8.05647C39.3193 10.7252 38.7299 14.5372 36.6369 17.1102C35.2361 18.8351 33.8546 20.356 32.6992 22.3478C31.8124 23.8781 30.2356 28.0767 31.3224 30.6089C31.8293 31.7887 32.9396 32.508 34.2226 32.508C35.7569 32.508 37.136 31.4678 38.3283 30.6775C38.6061 30.4953 38.6815 30.1265 38.496 29.853C38.3106 29.5751 37.9358 29.5024 37.6577 29.6844ZM12.7987 14.4278C13.0708 14.8286 13.4199 15.1792 13.8243 15.457C13.4199 15.7348 13.0708 16.0858 12.7987 16.4908C12.5261 16.0858 12.177 15.7348 11.7727 15.457C12.177 15.1792 12.5261 14.8286 12.7987 14.4278ZM10.1645 16.0398C9.53026 15.8939 9.54447 15.0076 10.1645 14.8741C11.2173 14.6465 12.0362 13.7854 12.2011 12.7337C12.3064 12.0641 13.2914 12.0645 13.3959 12.7337C13.5611 13.7858 14.3804 14.6465 15.4332 14.8741C16.058 15.0088 16.0627 15.8978 15.4332 16.0398C14.3804 16.2721 13.5615 17.1285 13.3959 18.1806C13.2914 18.8495 12.3064 18.8499 12.2011 18.1806C12.0362 17.1285 11.2173 16.2721 10.1645 16.0398ZM9.74524 2.76444C10.0178 3.16987 10.3661 3.52043 10.7708 3.79825C10.3657 4.07139 10.0178 4.42198 9.74524 4.8274C9.47189 4.42198 9.12398 4.07139 8.71926 3.79825C9.12398 3.52043 9.47189 3.16987 9.74524 2.76444ZM7.11148 4.37645C6.48352 4.2426 6.48156 3.35196 7.11148 3.2154C8.16389 2.9831 8.98236 2.12243 9.14764 1.07033C9.25218 0.407709 10.2375 0.407709 10.3428 1.07033C10.5077 2.12243 11.3262 2.9831 12.379 3.2154C13.005 3.35117 13.0093 4.23947 12.379 4.37645C11.3262 4.60874 10.5077 5.46939 10.3428 6.52149C10.2375 7.19075 9.25257 7.19034 9.14764 6.52149C8.98236 5.46939 8.16389 4.60874 7.11148 4.37645Z" fill="#545454"/>
</g>
</g>
<defs>
<clipPath id="clip0_13_1172">
<rect width="40" height="33" fill="white" transform="translate(0 0.5)"/>
</clipPath>
</defs>
</svg>
