<svg width="23" height="16" viewBox="0 0 23 16" fill="none" xmlns="http://www.w3.org/2000/svg">
<mask id="mask0_14_1435" style="mask-type:luminance" maskUnits="userSpaceOnUse" x="0" y="0" width="23" height="16">
<path d="M0 0.5H22.9734V15.5H0V0.5Z" fill="white"/>
</mask>
<g mask="url(#mask0_14_1435)">
<path fill-rule="evenodd" clip-rule="evenodd" d="M19.4142 0.507568H21.7081C22.0411 0.507568 22.3604 0.63994 22.5958 0.875353C22.8309 1.11077 22.9633 1.42975 22.9633 1.76276V14.2493C22.9633 14.582 22.8309 14.9013 22.5958 15.1367C22.3604 15.3721 22.0411 15.5042 21.7081 15.5042H19.4142C19.2346 15.5042 19.089 15.3586 19.089 15.179C19.089 14.5223 18.5559 13.9895 17.8994 13.9895C17.2428 13.9895 16.7099 14.5223 16.7099 15.179C16.7099 15.3586 16.5643 15.5042 16.3844 15.5042H1.25493C0.561929 15.5042 0 14.9423 0 14.2493V1.76276C0 1.0695 0.561929 0.507568 1.25493 0.507568H16.3844C16.5643 0.507568 16.7099 0.653436 16.7099 0.833046C16.7099 1.48945 17.2428 2.02257 17.8994 2.02257C18.5559 2.02257 19.089 1.48945 19.089 0.833046C19.089 0.653436 19.2346 0.507568 19.4142 0.507568ZM19.7109 1.15852C19.5572 2.0192 18.804 2.67327 17.8994 2.67327C16.9946 2.67327 16.2417 2.0192 16.0878 1.15852H1.25493C0.921408 1.15852 0.650696 1.42898 0.650696 1.76276V14.2493C0.650696 14.583 0.921408 14.8535 1.25493 14.8535H16.0878C16.2417 13.9928 16.9946 13.3388 17.8994 13.3388C18.804 13.3388 19.5572 13.9928 19.7109 14.8535H21.7081C21.8685 14.8535 22.0222 14.7899 22.1356 14.6765C22.2488 14.5631 22.3126 14.4094 22.3126 14.2493V1.76276C22.3126 1.60236 22.2488 1.4487 22.1356 1.33554C22.0222 1.22211 21.8685 1.15852 21.7081 1.15852H19.7109ZM17.574 3.59104C17.574 3.41143 17.7198 3.26556 17.8994 3.26556C18.0791 3.26556 18.2247 3.41143 18.2247 3.59104V5.55014C18.2247 5.72974 18.0791 5.87535 17.8994 5.87535C17.7198 5.87535 17.574 5.72974 17.574 5.55014V3.59104ZM17.574 10.4619C17.574 10.2823 17.7198 10.1364 17.8994 10.1364C18.0791 10.1364 18.2247 10.2823 18.2247 10.4619V12.421C18.2247 12.6006 18.0791 12.7462 17.8994 12.7462C17.7198 12.7462 17.574 12.6006 17.574 12.421V10.4619ZM8.22519 13.6764C7.85169 13.6764 7.54879 13.3748 7.54879 13C7.54879 12.2362 6.62453 11.8536 6.08466 12.3937C5.82044 12.6577 5.39218 12.6577 5.12822 12.3937L4.37188 11.6379C4.10792 11.3742 4.10792 10.9449 4.37188 10.6809C4.91149 10.1413 4.52891 9.21682 3.76531 9.21682C3.39182 9.21682 3.08892 8.91392 3.08892 8.54043V7.47159C3.08892 7.0981 3.39182 6.7952 3.76531 6.7952C4.52891 6.7952 4.91149 5.87068 4.37188 5.33107C4.10792 5.06685 4.10792 4.63859 4.37188 4.37463L5.12822 3.61829C5.39218 3.35433 5.82044 3.35433 6.08466 3.61829C6.62427 4.1579 7.54879 3.77532 7.54879 3.01172C7.54879 2.63823 7.85169 2.33533 8.22519 2.33533H9.29402C9.66751 2.33533 9.97041 2.63823 9.97041 3.01172C9.97041 3.77532 10.8949 4.1579 11.4345 3.61829C11.6985 3.35433 12.1278 3.35433 12.3915 3.61829L13.1473 4.37463C13.4113 4.63859 13.4113 5.06685 13.1473 5.33107C12.6077 5.87068 12.9908 6.7952 13.7536 6.7952C14.1284 6.7952 14.43 7.0981 14.43 7.47159V8.54043C14.43 8.91392 14.1284 9.21682 13.7536 9.21682C12.9908 9.21682 12.6077 10.1413 13.1473 10.6809C13.411 10.9449 13.411 11.3742 13.1473 11.6379L12.3915 12.3937C12.1278 12.6577 11.6985 12.6577 11.4345 12.3937C10.8949 11.8541 9.97041 12.2372 9.97041 13C9.97041 13.3748 9.66751 13.6764 9.29402 13.6764H8.22519ZM9.89047 11.8178C10.4506 11.3807 11.3037 11.3425 11.8947 11.9335C11.9048 11.9437 11.9212 11.9437 11.9313 11.9335L12.6871 11.1777C12.6973 11.1676 12.6973 11.1513 12.6871 11.1411C11.738 10.1922 12.4118 8.56612 13.7536 8.56612C13.7679 8.56612 13.7793 8.55444 13.7793 8.54043V7.47159C13.7793 7.45732 13.7679 7.4459 13.7536 7.4459C12.4118 7.4459 11.738 5.81981 12.6871 4.87089C12.697 4.86077 12.697 4.84467 12.6871 4.83481L11.9313 4.07848C11.9212 4.06836 11.9048 4.06836 11.8947 4.07848C10.9455 5.0274 9.31971 4.35464 9.31971 3.01172C9.31971 2.99771 9.30803 2.98629 9.29402 2.98629H8.22519C8.21091 2.98629 8.19949 2.99771 8.19949 3.01172C8.19949 4.35464 6.5734 5.0274 5.62448 4.07848C5.61436 4.06836 5.59827 4.06836 5.5884 4.07848L4.83207 4.83481C4.82221 4.84467 4.82221 4.86077 4.83207 4.87089C5.78099 5.81981 5.10797 7.4459 3.76531 7.4459C3.7513 7.4459 3.73988 7.45732 3.73988 7.47159V8.54043C3.73988 8.55444 3.7513 8.56612 3.76531 8.56612C5.10797 8.56612 5.78099 10.1922 4.83207 11.1411C4.82195 11.1513 4.82195 11.1676 4.83207 11.1777L5.5884 11.9335C5.59827 11.9434 5.61436 11.9434 5.62448 11.9335C6.216 11.3418 7.06966 11.3799 7.62952 11.8173C7.62952 11.5881 7.62952 11.355 7.62952 11.1396C6.34811 10.675 5.42878 9.44419 5.42878 8.00627C5.42878 6.17124 6.92483 4.67519 8.75986 4.67519C10.5941 4.67519 12.0909 6.17124 12.0909 8.00627C12.0909 9.44393 11.1714 10.6745 9.89047 11.1393V11.8178ZM8.28021 13.0257H9.23977V9.96614C9.23977 9.83429 9.31945 9.71542 9.44144 9.66506C10.0937 9.39695 10.5534 8.75534 10.5531 8.00653V8.00627C10.5531 7.55932 10.3896 7.15079 10.1191 6.83673L10.1194 7.78306C10.1194 7.87831 10.0779 7.9689 10.0052 8.03067L8.9714 8.91314C8.84967 9.01696 8.67058 9.01696 8.54885 8.91314L7.51479 8.03067C7.44238 7.9689 7.40059 7.87857 7.40059 7.78332V6.83621C7.13014 7.15027 6.96662 7.55906 6.96662 8.00601C6.96662 8.75508 7.42629 9.39695 8.0788 9.66506C8.20079 9.71542 8.28047 9.83429 8.28021 9.96614V13.0257ZM7.62952 10.4359C7.62952 10.2727 7.62952 10.173 7.62952 10.173C6.84904 9.76499 6.31593 8.94792 6.31593 8.00601C6.31593 7.08928 6.82049 6.29064 7.56696 5.8725C7.66767 5.81592 7.79096 5.81721 7.89062 5.87561C7.99029 5.93401 8.05129 6.04095 8.05129 6.15645V7.63304L8.76012 8.23779L9.4687 7.6333L9.46844 6.15671C9.46818 6.04121 9.52943 5.93453 9.6291 5.87587C9.72877 5.81747 9.85205 5.81643 9.95276 5.87276C10.6992 6.29089 11.2038 7.08954 11.2038 8.00627C11.2043 8.94792 10.6712 9.76499 9.89047 10.173V10.4354C10.8043 10.0077 11.4402 9.07874 11.4402 8.00627C11.4402 6.52968 10.2357 5.32614 8.75986 5.32614C7.28327 5.32614 6.07947 6.52968 6.07947 8.00627C6.07947 9.07874 6.71537 10.0079 7.62952 10.4359ZM17.574 7.02646C17.574 6.84685 17.7198 6.70099 17.8994 6.70099C18.0791 6.70099 18.2247 6.84685 18.2247 7.02646V8.98556C18.2247 9.16517 18.0791 9.31078 17.8994 9.31078C17.7198 9.31078 17.574 9.16517 17.574 8.98556V7.02646Z" fill="#8C8E98"/>
</g>
</svg>
