<svg width="24" height="22" viewBox="0 0 24 22" fill="none" xmlns="http://www.w3.org/2000/svg">
<mask id="mask0_14_1457" style="mask-type:luminance" maskUnits="userSpaceOnUse" x="0" y="0" width="24" height="22">
<path d="M1 0.94353H0.95V0.99353V20.9935V21.0435H1H23.261H23.311V20.9935V0.99353V0.94353H23.261H1Z" fill="white" stroke="white" stroke-width="0.1"/>
</mask>
<g mask="url(#mask0_14_1457)">
<path d="M18.4868 18.2661V4.0757H22.9238C23.1265 4.0757 23.2921 3.91194 23.2921 3.70892C23.2921 2.17993 22.0509 0.939014 20.5212 0.939014H6.63431C5.10559 0.939014 3.8644 2.1802 3.8644 3.70892V17.8993H1.34345C1.21978 17.8993 1.12671 17.9473 1.0653 18.0194C1.00497 18.0903 0.977678 18.1815 0.977678 18.2661C0.977678 19.7948 2.21757 21.036 3.74608 21.036H15.7172C17.4223 21.036 18.447 19.5757 18.4868 18.2676H18.4868V18.2661ZM12.9736 18.6349C13.0615 19.2922 13.3807 19.8741 13.8449 20.3007H3.74608C2.76084 20.3007 2.0405 19.5702 1.85403 18.6349C5.56045 18.6366 9.26541 18.6366 12.9736 18.6349ZM20.5209 1.67458C21.5062 1.67458 22.228 2.40466 22.4145 3.34013H18.522C18.6934 2.3877 19.5152 1.67458 20.5209 1.67458ZM6.63431 1.67458H18.642C18.101 2.17359 17.7528 2.88541 17.7528 3.67646L17.751 18.2663C17.751 19.3952 16.8544 20.2945 15.727 20.3007H15.727H15.727H15.7269H15.7269H15.7269H15.7269H15.7269H15.7268H15.7268H15.7268H15.7268H15.7268H15.7267H15.7267H15.7267H15.7267H15.7267H15.7266H15.7266H15.7266H15.7266H15.7266H15.7266H15.7265H15.7265H15.7265H15.7265H15.7265H15.7264H15.7264H15.7264H15.7264H15.7264H15.7264H15.7263H15.7263H15.7263H15.7263H15.7263H15.7262H15.7262H15.7262H15.7262H15.7262H15.7262H15.7261H15.7261H15.7261H15.7261H15.7261H15.7261H15.726H15.726H15.726H15.726H15.726H15.7259H15.7259H15.7259H15.7259H15.7259H15.7259H15.7258H15.7258H15.7258H15.7258H15.7258H15.7258H15.7257H15.7257H15.7257H15.7257H15.7257H15.7257H15.7256H15.7256H15.7256H15.7256H15.7256H15.7256H15.7255H15.7255H15.7255H15.7255H15.7255H15.7255H15.7254H15.7254H15.7254H15.7254H15.7254H15.7254H15.7253H15.7253H15.7253H15.7253H15.7253H15.7253H15.7252H15.7252H15.7252H15.7252H15.7252H15.7252H15.7252H15.7251H15.7251H15.7251H15.7251H15.7251H15.7251H15.725H15.725H15.725H15.725H15.725H15.725H15.7249H15.7249H15.7249H15.7249H15.7249H15.7249H15.7248H15.7248H15.7248H15.7248H15.7248H15.7248H15.7247H15.7247H15.7247H15.7247H15.7247H15.7247H15.7246H15.7246H15.7246H15.7246H15.7246H15.7246H15.7246H15.7245H15.7245H15.7245H15.7245H15.7245H15.7245H15.7244H15.7244H15.7244H15.7244H15.7244H15.7244H15.7243H15.7243H15.7243H15.7243H15.7243H15.7243H15.7242H15.7242H15.7242H15.7242H15.7242H15.7242H15.7241H15.7241H15.7241H15.7241H15.7241H15.724H15.724H15.724H15.724H15.724H15.724H15.7239H15.7239H15.7239H15.7239H15.7239H15.7239H15.7238H15.7238H15.7238H15.7238H15.7238H15.7238H15.7237H15.7237H15.7237H15.7237H15.7237H15.7236H15.7236H15.7236H15.7236H15.7236H15.7236H15.7235H15.7235H15.7235H15.7235H15.7235H15.7234H15.7234H15.7234H15.7234H15.7234H15.7234H15.7233H15.7233H15.7233H15.7233H15.7233H15.7232H15.7232H15.7232H15.7232H15.7232H15.7231H15.7231H15.7231H15.7231H15.7231H15.723H15.723H15.723H15.723H15.723H15.7229H15.7229H15.7229H15.7229H15.7229H15.7228H15.7228H15.7228H15.7228H15.7228H15.7227H15.7227H15.7227H15.7227H15.7227H15.7226H15.7226H15.7226H15.7226H15.7226H15.7225H15.7225H15.7225H15.7225H15.7225H15.7224H15.7224H15.7224H15.7224H15.7224H15.7223H15.7223H15.7223H15.7223H15.7223H15.7222H15.7222H15.7222H15.7222H15.7222H15.7222H15.7221H15.7221H15.7221H15.7221H15.7221H15.722H15.722H15.722H15.722H15.722H15.7219H15.7219H15.7219H15.7219H15.7219H15.7219H15.7218H15.7218H15.7218H15.7218H15.7218H15.7217H15.7217H15.7217H15.7217H15.7217H15.7216H15.7216H15.7216H15.7216H15.7216H15.7216H15.7215H15.7215H15.7215H15.7215H15.7215H15.7214H15.7214H15.7214H15.7214H15.7214H15.7214H15.7213H15.7213H15.7213H15.7213H15.7213H15.7212H15.7212H15.7212H15.7212H15.7212H15.7211H15.7211H15.7211H15.7211H15.7211H15.7211H15.721H15.721H15.721H15.721H15.721H15.7209H15.7209H15.7209H15.7209H15.7209H15.7208H15.7208H15.7208H15.7208H15.7208H15.7207H15.7207H15.7207H15.7207H15.7207H15.7207H15.7206H15.7206H15.7206H15.7206H15.7206H15.7205H15.7205H15.7205H15.7205H15.7205H15.7204H15.7204H15.7204H15.7204H15.7204H15.7203H15.7203H15.7203H15.7203H15.7203H15.7202H15.7202H15.7202H15.7202H15.7201H15.7201H15.7201H15.7201H15.7201H15.72H15.72H15.72H15.72H15.72H15.7199H15.7199H15.7199H15.7199H15.7198H15.7198H15.7198H15.7198H15.7198H15.7197H15.7197H15.7197H15.7197H15.7196H15.7196H15.7196H15.7196H15.7195H15.7195H15.7195H15.7195H15.7195H15.7194H15.7194H15.7194H15.7194H15.7193H15.7193H15.7193H15.7193H15.7192H15.7192H15.7192H15.7192H15.7191H15.7191H15.7191H15.7191H15.719H15.719H15.719H15.719H15.7189H15.7189H15.7189H15.7188H15.7188H15.7188H15.7188H15.7187H15.7187H15.7187H15.7187H15.7187H15.7186H15.7186H15.7186H15.7186H15.7186H15.7185H15.7185H15.7185H15.7185H15.7185H15.7185H15.7185H15.7184H15.7184H15.7184H15.7184H15.7184H15.7184H15.7184H15.7183H15.7183H15.7183H15.7183H15.7183H15.7183H15.7182H15.7182H15.7182H15.7182H15.7182H15.7182H15.7182H15.7181H15.7181H15.7181H15.7181H15.7181H15.7181H15.7181H15.718H15.718H15.718H15.718H15.718H15.718H15.7179H15.7179H15.7179H15.7179H15.7179H15.7179H15.7178H15.7178H15.7178H15.7178H15.7178H15.7178H15.7177H15.7177H15.7177H15.7177H15.7177H15.7177H15.7176H15.7176H15.7176H15.7176H15.7176H15.7176H15.7175H15.7175H15.7175H15.7175H15.7175H15.7175H15.7174H15.7174H15.7174H15.7174H15.7174H15.7174H15.7173H15.7173H15.7173H15.7173H15.7173H15.7173H15.7172H15.7172H15.7172H15.7172H15.7172H15.7171H15.7171H15.7171H15.7171H15.7171H15.7171H15.717H15.717H15.717H15.717H15.717H15.7169H15.7169H15.7169H15.7169H15.7169H15.7169H15.7168H15.7168H15.7168H15.7168H15.7168H15.7167H15.7167H15.7167H15.7167C14.5935 20.3007 13.6982 19.4103 13.6841 18.2914C13.6904 18.1969 13.6643 18.0984 13.6023 18.0231C13.539 17.9461 13.4412 17.897 13.3135 17.8996H4.60148V3.70917C4.60148 2.57754 5.50108 1.67458 6.63431 1.67458Z" fill="#8C8E98" stroke="#8C8E98" stroke-width="0.1"/>
</g>
<path d="M19.9302 7.50733L19.9302 7.50727C19.9302 7.32007 20.0712 7.16137 20.2601 7.14217C20.2737 7.13997 20.2875 7.13989 20.301 7.14175H21.8459H21.8462V7.19175C22.0215 7.18999 22.1652 7.3319 22.1652 7.50727L19.9302 7.50733ZM19.9302 7.50733L19.9451 19.4069H19.9951L19.9451 19.407L19.9451 19.407C19.9451 19.4855 19.9704 19.5636 20.0197 19.6281C20.0197 19.6282 20.0197 19.6282 20.0198 19.6283L20.7998 20.6658L20.7998 20.6659C20.9487 20.8633 21.2428 20.862 21.3898 20.664C21.3898 20.6639 21.3899 20.6639 21.3899 20.6638L22.1582 19.6372L22.1585 19.6368C22.2054 19.5728 22.2315 19.4969 22.2295 19.4161C22.2295 19.4159 22.2295 19.4157 22.2295 19.4155L22.2152 7.50727L19.9302 7.50733ZM20.6806 19.2827L20.6658 7.87707H21.4794L21.4937 19.2965L21.0951 19.8316L20.6806 19.2827Z" fill="#8C8E98" stroke="#8C8E98" stroke-width="0.1"/>
<path d="M20.3572 5.98979C20.2377 5.98979 20.1457 6.03518 20.0856 6.10698C20.0263 6.1777 20.001 6.27012 20.0056 6.36015C20.0149 6.54041 20.1465 6.72536 20.3907 6.72536H21.7705C21.8933 6.72536 21.9894 6.68053 22.0545 6.60995C22.1189 6.54015 22.1502 6.44819 22.1502 6.35758C22.1502 6.26697 22.1189 6.175 22.0545 6.10521C21.9894 6.03463 21.8933 5.98979 21.7705 5.98979H20.3572Z" fill="#8C8E98" stroke="#8C8E98" stroke-width="0.1"/>
<path d="M7.51647 5.54424C6.78179 5.54424 6.17772 6.14386 6.17772 6.87871V8.80076C6.17772 9.53472 6.7819 10.1325 7.51647 10.1325H9.39348C10.1277 10.1325 10.7337 9.53454 10.7337 8.80076V8.28043C10.7337 8.16063 10.6883 8.0671 10.6174 8.00402C10.5474 7.94176 10.4555 7.9117 10.3652 7.9117C10.2749 7.9117 10.183 7.94176 10.113 8.00402C10.0421 8.0671 9.99666 8.16063 9.99666 8.28043V8.80076C9.99666 9.13529 9.7339 9.39715 9.39348 9.39715H7.51647C7.17575 9.39715 6.91505 9.13549 6.91505 8.80076V6.87871C6.91505 6.54294 7.17604 6.28132 7.51647 6.28132H9.27371C9.39362 6.28132 9.48724 6.23594 9.55038 6.16502C9.61272 6.09502 9.64282 6.00309 9.64282 5.91278C9.64282 5.82246 9.61272 5.73053 9.55038 5.66053C9.48724 5.58962 9.39362 5.54424 9.27371 5.54424H7.51647Z" fill="#8C8E98" stroke="#8C8E98" stroke-width="0.1"/>
<path d="M7.49171 7.29774C7.34297 7.44624 7.34805 7.68736 7.50283 7.82993L8.36414 8.68696L8.3642 8.68702C8.5075 8.82916 8.73844 8.82911 8.88195 8.68705L8.88206 8.68694L11.1399 6.43788L11.1047 6.40237L11.14 6.4378L11.14 6.43783C11.3769 6.20287 11.2059 5.80027 10.8741 5.80714M7.49171 7.29774C7.64018 7.14875 7.88148 7.15556 8.02357 7.30974L8.62329 7.90566L10.6193 5.91679C10.6194 5.91675 10.6194 5.91671 10.6194 5.91668C10.6864 5.84925 10.7773 5.80864 10.8741 5.80714M7.49171 7.29774C7.49173 7.29772 7.49174 7.29771 7.49176 7.29769L7.52708 7.33308L7.49165 7.29779C7.49167 7.29777 7.49169 7.29776 7.49171 7.29774ZM10.8741 5.80714C10.8741 5.80714 10.874 5.80714 10.874 5.80714L10.875 5.85713L10.8742 5.80714C10.8742 5.80714 10.8741 5.80714 10.8741 5.80714Z" fill="#8C8E98" stroke="#8C8E98" stroke-width="0.1"/>
<path d="M11.9797 9.39692C11.7719 9.38907 11.5982 9.55604 11.5982 9.76521C11.5982 9.97355 11.772 10.1401 11.9797 10.1325H15.7993C16.007 10.1401 16.1806 9.9735 16.1806 9.76521C16.1806 9.55609 16.0072 9.38907 15.7992 9.39692H11.9797Z" fill="#8C8E98" stroke="#8C8E98" stroke-width="0.1"/>
<path d="M13.0994 5.54424C12.8954 5.54424 12.7291 5.70956 12.7291 5.91278C12.7291 6.11766 12.8956 6.28132 13.0994 6.28132H15.8002C15.9201 6.28132 16.0136 6.23593 16.0768 6.16501C16.139 6.09501 16.1691 6.00308 16.1691 5.91278C16.1691 5.82247 16.139 5.73054 16.0768 5.66054C16.0136 5.58962 15.9201 5.54424 15.8002 5.54424H13.0994Z" fill="#8C8E98" stroke="#8C8E98" stroke-width="0.1"/>
<path d="M11.9795 8.11191C11.7722 8.1057 11.5982 8.27115 11.5982 8.48045C11.5982 8.68871 11.772 8.85558 11.9797 8.84773H15.7992C16.0071 8.85558 16.1806 8.68866 16.1806 8.48045C16.1806 8.2712 16.0068 8.1057 15.7994 8.11191H11.9795Z" fill="#8C8E98" stroke="#8C8E98" stroke-width="0.1"/>
<path d="M11.9797 6.82867C11.772 6.82109 11.5982 6.98791 11.5982 7.1962C11.5982 7.40508 11.7718 7.57233 11.9797 7.56448H15.7992C16.0072 7.57233 16.1806 7.40503 16.1806 7.1962C16.1806 6.98796 16.0071 6.82109 15.7993 6.82867H11.9797Z" fill="#8C8E98" stroke="#8C8E98" stroke-width="0.1"/>
<path d="M11.9788 15.3067C11.8589 15.3067 11.7654 15.3521 11.7023 15.423C11.64 15.4931 11.6099 15.585 11.6099 15.6754C11.6099 15.7657 11.64 15.8576 11.7023 15.9277C11.7654 15.9986 11.8589 16.044 11.9788 16.044H15.8003C15.9201 16.044 16.0137 15.9986 16.0768 15.9277C16.1391 15.8576 16.1692 15.7657 16.1692 15.6754C16.1692 15.585 16.1391 15.4931 16.0768 15.423C16.0137 15.3521 15.9201 15.3067 15.8003 15.3067H11.9788Z" fill="#8C8E98" stroke="#8C8E98" stroke-width="0.1"/>
<path d="M13.0994 11.4531C12.9795 11.4531 12.8859 11.4985 12.8227 11.5696C12.7604 11.6397 12.7303 11.7318 12.7303 11.8222C12.7303 11.9127 12.7604 12.0047 12.8227 12.0749C12.8859 12.1459 12.9795 12.1914 13.0994 12.1914H15.8002C15.9201 12.1914 16.0137 12.1459 16.0768 12.0749C16.1391 12.0047 16.1691 11.9127 16.1691 11.8222C16.1691 11.7318 16.1391 11.6397 16.0768 11.5696C16.0137 11.4985 15.9201 11.4531 15.8002 11.4531H13.0994Z" fill="#8C8E98" stroke="#8C8E98" stroke-width="0.1"/>
<path d="M12.0288 14.0225V14.0223H11.9788C11.7739 14.0223 11.6098 14.1884 11.6098 14.3908C11.6098 14.5951 11.7738 14.7609 11.9788 14.7609H15.8003C15.9202 14.7609 16.0138 14.7154 16.0769 14.6443C16.1391 14.5742 16.1692 14.4821 16.1692 14.3917C16.1692 14.3013 16.1391 14.2092 16.0769 14.1391C16.0138 14.068 15.9202 14.0225 15.8003 14.0225H12.0288Z" fill="#8C8E98" stroke="#8C8E98" stroke-width="0.1"/>
<path d="M12.0288 12.738V12.7375H11.9788C11.7738 12.7375 11.6098 12.9033 11.6098 13.1078C11.6098 13.3107 11.774 13.4763 11.9788 13.4763H15.8003C15.9202 13.4763 16.0138 13.4308 16.0769 13.3598C16.1391 13.2897 16.1692 13.1976 16.1692 13.1071C16.1692 13.0167 16.1391 12.9246 16.0769 12.8545C16.0138 12.7835 15.9202 12.738 15.8003 12.738H12.0288Z" fill="#8C8E98" stroke="#8C8E98" stroke-width="0.1"/>
<path d="M7.51647 11.4556C6.78179 11.4556 6.17772 12.055 6.17772 12.7903V14.7124C6.17772 15.4463 6.7819 16.0441 7.51647 16.0441H9.39348C10.1277 16.0441 10.7337 15.4462 10.7337 14.7124V14.1921C10.7337 14.072 10.6884 13.9783 10.6175 13.9151C10.5475 13.8527 10.4555 13.8226 10.3652 13.8226C10.2749 13.8226 10.1829 13.8527 10.1129 13.9151C10.042 13.9783 9.99666 14.072 9.99666 14.1921V14.7124C9.99666 15.0464 9.73395 15.308 9.39348 15.308H7.51647C7.17569 15.308 6.91505 15.0466 6.91505 14.7124V12.7903C6.91505 12.4541 7.17601 12.1929 7.51647 12.1929H9.27371C9.39362 12.1929 9.48724 12.1475 9.55039 12.0766C9.61272 12.0066 9.64282 11.9146 9.64282 11.8243C9.64282 11.7339 9.61272 11.642 9.55039 11.572C9.48724 11.501 9.39362 11.4556 9.27371 11.4556H7.51647Z" fill="#8C8E98" stroke="#8C8E98" stroke-width="0.1"/>
<path d="M8.3642 14.5991L8.36413 14.5991L7.50286 13.7413C7.34795 13.5992 7.34305 13.3585 7.49172 13.2098M8.3642 14.5991L10.875 11.7692C10.7917 11.7705 10.713 11.8055 10.6548 11.8636L10.6196 11.8282L10.6195 11.8282C10.6195 11.8282 10.6195 11.8282 10.6195 11.8282L8.62328 13.8175L8.02357 13.2221C7.88147 13.0679 7.64019 13.0611 7.49172 13.2098M8.3642 14.5991C8.5075 14.7413 8.73844 14.7412 8.88195 14.5992L8.88206 14.599L11.1399 12.3498C11.1399 12.3497 11.1399 12.3497 11.1399 12.3497C11.377 12.115 11.2058 11.7124 10.8741 11.7193L8.3642 14.5991ZM7.49172 13.2098L7.52708 13.2452M7.49172 13.2098C7.49171 13.2098 7.4917 13.2099 7.49169 13.2099L7.52708 13.2452M7.52708 13.2452C7.39825 13.374 7.40278 13.5823 7.53739 13.7051L7.52708 13.2452Z" fill="#8C8E98" stroke="#8C8E98" stroke-width="0.1"/>
</svg>
